<svg version="1.1" xmlns="http://www.w3.org/2000/svg" xmlns:xlink="http://www.w3.org/1999/xlink" width="1185.98324" height="481.51726" viewBox="0,0,1185.98324,481.51726"><defs><radialGradient cx="668.26393" cy="286.92961" r="270.1688" gradientUnits="userSpaceOnUse" id="color-1"><stop offset="0" stop-color="#121212"/><stop offset="1" stop-color="#000000"/></radialGradient><linearGradient x1="646.76393" y1="236.06547" x2="646.76393" y2="511.62724" gradientUnits="userSpaceOnUse" id="color-2"><stop offset="0" stop-color="#696969" stop-opacity="0.12157"/><stop offset="1" stop-color="#333333" stop-opacity="0.04706"/></linearGradient><radialGradient cx="-46.28181" cy="306.44913" r="270.1688" gradientUnits="userSpaceOnUse" id="color-3"><stop offset="0" stop-color="#121212"/><stop offset="1" stop-color="#000000"/></radialGradient><linearGradient x1="-24.78181" y1="255.58499" x2="-24.78181" y2="531.14676" gradientUnits="userSpaceOnUse" id="color-4"><stop offset="0" stop-color="#696969" stop-opacity="0.12157"/><stop offset="1" stop-color="#333333" stop-opacity="0.04706"/></linearGradient></defs><g transform="translate(282.00057,-57.62953)"><g stroke="none" stroke-miterlimit="10"><g fill="#ffffff" stroke-width="1" font-family="&quot;OpenSans-Bold&quot;, Sans Serif" font-weight="400" font-size="40" text-anchor="start"><text transform="translate(218.23305,142.96079) scale(1.95266,1.95266)" font-size="40" xml:space="preserve" fill="#ffffff"><tspan x="0" dy="0">T</tspan></text><text transform="translate(245.8291,147.66288) rotate(16.70068) scale(1.1847,1.1847)" font-size="40" xml:space="preserve" fill="#ffffff"><tspan x="0" dy="0">a</tspan></text><text transform="translate(267.39257,123.53461) rotate(16.70068) scale(1.1847,1.1847)" font-size="40" xml:space="preserve" fill="#ffffff"><tspan x="0" dy="0">p</tspan></text><text transform="translate(296.44194,142.96078) scale(1.95266,1.95266)" font-size="40" xml:space="preserve" fill="#ffffff"><tspan x="0" dy="0">D</tspan></text><text transform="translate(336.62346,137.67877) rotate(16.70068) scale(1.1847,1.1847)" font-size="40" xml:space="preserve" fill="#ffffff"><tspan x="0" dy="0">a</tspan></text><text transform="translate(371.93243,139.76568) rotate(-28.29928) scale(1.1847,1.1847)" font-size="40" xml:space="preserve" fill="#ffffff"><tspan x="0" dy="0">s</tspan></text><text transform="translate(379.82208,137.79349) rotate(20.16937) scale(1.1847,1.1847)" font-size="40" xml:space="preserve" fill="#ffffff"><tspan x="0" dy="0">h</tspan></text></g><text transform="translate(239.17157,184.95778) scale(0.42971,0.42971)" font-size="40" xml:space="preserve" fill="#ffffff" stroke-width="1" font-family="&quot;KNBobohei-Bold&quot;, Sans Serif" font-weight="400" text-anchor="start"><tspan x="0" dy="0">Save Mechanism</tspan></text><path d="M367.55126,416.4765c2.86289,-4.00939 6.04442,-6.29977 9.43153,-7.66573c3.4818,-1.83959 7.45037,-2.88114 11.66222,-2.88114c1.40383,0 2.78063,0.11571 4.12139,0.33811c3.28705,-0.31575 6.60538,-0.81217 9.87861,-2.02602c1.57008,-0.58225 -0.72859,-3.99827 -0.52381,-4.8529c2.49248,-10.40217 3.43327,-12.06378 11.07069,-19.55294c1.32229,-1.29662 5.97738,-2.96928 8.12253,-4.06612c10.77487,-5.50932 19.40764,-5.43198 31.14231,-7.56247c9.62627,-1.7477 13.86355,-3.34008 22.46462,-7.64731c5.02351,-2.51566 1.97533,-7.98076 3.11429,-12.53661c1.6363,-6.54521 3.59713,-13.43943 10.15625,-17.1875c4.33302,-2.47601 9.53197,-3.07677 14.45313,-3.90625c1.14068,-0.19226 2.19363,0.93118 3.35012,0.90543c1.13997,-0.02538 0.71551,-2.20815 1.39647,-3.12274c2.58713,-3.47469 6.43325,-5.83863 9.98606,-8.31739c2.7151,-1.89429 9.82683,-2.42257 11.56537,-2.82425c0.70946,-0.16392 4.21679,-4.70718 4.24886,-4.7348c1.75884,-1.51504 4.89783,-3.64521 6.81381,-5.06985c4.40166,-3.27289 9.71466,-4.6798 14.82012,-6.40102c0.58159,-0.19608 2.20239,-3.49434 2.55484,-3.93489c1.79611,-2.24514 3.99309,-4.71454 6.28894,-6.46364c3.09445,-2.35753 6.37291,-2.77547 9.62984,-4.55822c0.57065,-0.31235 2.58437,-2.9895 3.03614,-3.37966c1.92937,-1.66627 3.81878,-3.38144 5.80944,-4.97397c1.07896,-0.86317 3.4237,-0.98591 4.34948,-1.52377c0.75722,-0.43993 0.94828,-1.60353 1.74733,-1.96191c3.80082,-1.70469 7.9207,-2.94735 12.07817,-3.20754c1.1384,-0.07125 2.13242,0.83284 3.24379,1.08952c3.06689,0.70833 10.87228,2.1131 13.53436,4.38495c1.73589,1.48143 2.22319,4.98339 4.49836,5.16103c1.74453,0.13621 4.52416,-0.36368 6.44606,-0.22305c1.86953,0.1368 4.87347,1.65612 6.56981,1.54116c4.15776,-0.28178 7.84234,-1.64433 12.21168,-1.2074c9.9432,0.99432 19.7832,4.03539 29.78576,1.82552c2.02513,-0.44742 1.57117,-5.87 2.94146,-7.45664c1.85047,-2.14265 4.2207,-3.79997 6.05198,-5.95904c1.58912,-1.87356 5.06538,-12.55393 5.56761,-15.76882c0.09585,-0.6136 -0.37247,-1.29829 -0.1076,-1.86002c1.4447,-3.06396 3.64662,-6.14862 5.08036,-9.44745c5.286,-1.6316 6.27419,-6.89771 6.45893,-8.80965c0.5378,-0.93469 1.0756,-1.86937 1.6134,-2.80406c0.14303,-1.96595 0.33414,-3.92898 0.42908,-5.89784c0.04816,-0.99884 0.23327,-2.02759 0,-3c-0.0607,-0.25304 -0.91097,0.03964 -0.76121,-0.17317c0.22164,-0.31495 0.9219,0.01435 1.10962,-0.32192c0.72082,-1.29128 0.567,-2.99396 1.41693,-4.20416c1.03602,-1.47519 3.29373,-1.94649 4.0514,-3.58217c0.73784,-1.59287 0.94628,-3.36624 1.0526,-5.1491c1.3187,-0.63998 2.50422,-1.52892 3.24308,-2.72237c2.30569,-3.7243 2.29147,-12.5275 1.12637,-16.67393c-0.11642,-0.41432 -0.45642,-0.69092 -0.83128,-0.94962c0.6361,-0.5147 1.2629,-1.05027 1.93238,-1.49012c0.17777,-0.23774 0.40873,-0.44855 0.60012,-0.67939c1.18665,0.51217 2.72419,-0.05402 4.06,-0.05402c2.53431,0 5.06851,-0.05804 7.60182,-0.12913l4.56045,-1.38405c0,0 6.3422,-2.11406 6.92686,-8.07073c2.55852,1.56695 4.80896,3.55797 7.00462,6.13078c1.17137,1.37257 6.12922,14.9676 6.66447,16.94133c0.72382,2.66907 0.21253,5.78409 1.68845,8.12278c0.30392,0.48157 2.24242,-1.15923 2.64763,-1.32807c1.44541,-0.60225 2.84859,-1.52294 4.41184,-1.61338c1.77197,-0.10251 3.44851,0.9304 5.21897,1.05622c1.76499,0.12543 3.56509,-0.65476 5.29978,-0.31076c0.01875,0.03804 0.03773,0.07595 0.05695,0.11371c-0.41389,1.23452 -0.81788,2.47007 -0.93373,3.75656c-0.47802,5.30831 -1.65513,10.86409 -0.18896,15.98824c0.81365,2.84366 4.24838,4.12179 6.49384,6.04698c3.68547,3.15978 7.26532,6.52448 11.20712,9.41292c0.16939,0.12412 0.33384,0.25779 0.49487,0.39801c-0.63446,1.91989 -1.11504,3.88732 -1.10631,5.8832c0.00784,1.79452 -0.05606,3.78913 0.20572,5.64664c-0.37295,3.09215 -0.53547,6.2183 -0.25438,9.41291c0.02251,0.25579 0.46971,-0.21091 0.71523,-0.2861c1.48162,-0.45373 3.65934,-1.16277 5.37852,-1.39745c0.31783,-0.04339 0.63752,-0.0751 0.95857,-0.09737c2.43865,0.90873 5.14944,1.34719 7.67021,1.70289c3.02991,0.42754 6.10798,-0.40776 9.10589,-1.16527c-0.00915,1.13745 0.06222,2.27413 0.24649,3.39094c0.4352,2.63748 1.05092,5.30271 2.22307,7.70515c0.45468,0.93192 2.11458,0.9233 2.46321,1.89985c0.56035,1.56965 -0.75972,3.51656 0,5c1.36238,2.66023 3.73244,4.71124 5.98149,6.67967c0.05273,0.04615 0.11492,0.08958 0.18387,0.12929c-0.10773,0.97606 0.02898,2.00826 0.20257,2.96603c0.93874,5.17945 3.98728,10.67098 8.3394,13.72902c0.6319,0.44401 1.31439,0.79579 2.02944,1.08353c-0.21123,1.13572 -0.45804,2.17752 -0.73974,3.09743c-1.1386,3.71815 -2.84326,6.13644 -4.41001,9.69348c-1.75388,3.9819 5.48194,6.75872 8.17351,10.17736c3.11892,3.96142 5.96135,8.24672 8.42567,12.64607c1.41746,2.53047 1.98672,5.72557 4.16662,7.6388c2.65367,2.32905 6.04129,3.59724 9.27528,5.09256c0.16808,0.68691 0.41964,1.34451 0.79397,1.95853c1.95151,3.20114 5.69458,4.93937 8.9189,6.85234c0.17684,0.10492 0.36865,0.11312 0.56901,0.07427c-2.54556,4.16077 -1.67117,5.38096 -1.67117,13.35481c0,2.30372 -0.12,4.66051 0.42908,6.89784c0.28645,1.16721 1.55728,1.88266 2,3c0.14147,0.35705 -0.43709,0.70769 -0.38041,1.08754c0.39478,2.64614 0.5946,5.4108 1.71254,7.84146c1.22551,2.66454 3.44591,4.74682 5.16886,7.12023c5.26827,2.29377 8.95099,5.08458 14.8481,5.97801c0.26097,0.03954 0.16895,-0.82254 0.395,-0.68628c0.39675,0.23917 0.1785,1.01929 0.56952,1.26771c0.59812,0.37999 1.27326,0.65977 1.97061,0.83007c-0.3492,0.98368 0.2867,2.52002 0.2867,3.66342c0,6.8148 1.49131,12.55808 5.18876,17.74926c0.1199,0.66084 0.31597,1.45541 0.63657,2.28695c-1.09073,1.49321 -2.80105,3.48251 -2.75342,4.34239c0.10711,1.9339 4.13545,5.7304 4.50986,7.5804c0.35208,1.73966 -0.43335,3.54543 -0.30753,5.31589c0.12582,1.77046 1.15873,3.44701 1.05622,5.21898c-0.28521,4.92998 -5.17184,10.74332 -7.95628,13.97353c-0.76117,0.88303 -1.03246,2.17455 -1.93337,2.91448c-8.84533,7.26477 -27.77281,6.77478 -37.75265,2.73025c-4.03667,-1.63594 -7.49842,-4.13273 -11.48188,-5.89427c-0.95068,-0.42041 -5.0461,0.7749 -6.20628,0.78216c-15.83557,0.09902 -31.7163,-0.34566 -47.46553,-2c-2.81187,-0.29537 -3.60839,1.64453 -5.89515,3.16359c-3.21501,2.13568 -7.16854,2.76634 -10.27729,4.59051c-1.15881,0.67997 -2.69153,2.51547 -3.86203,3.1209c-6.34359,3.28117 -24.77699,6.0627 -31.5,6.125c-7.99966,0.07413 -16.00079,0.11197 -24,0c-3.50064,-0.049 -6.72231,-1.85143 -10.05694,-2c-7.20711,-0.32112 -25.20199,0.65186 -32.57219,-1.6932c-2.31889,-0.73782 -8.4774,-5.2735 -10.42781,-5.3068c-8.97971,-0.15329 -17.96224,0.05908 -26.94306,0c-6.50052,-0.04276 -13.16014,-3.39074 -19.59563,-2c-8.48818,1.83434 -16.01321,6.78116 -24.90062,7.66989c-6.31158,0.63116 -13.19367,1.45341 -19.41,-0.06052c-2.55307,-0.62178 -4.99334,-3.13928 -7.512,-2.39018c-31.71326,9.43217 -62.42385,22.34508 -93.90558,32.52338c-11.40763,3.68818 -29.52398,12.86049 -44.34623,12.95139c-7.29885,0.04476 -13.5495,-0.25351 -19.38101,-4.78913c-2.30111,-1.78975 -3.8042,-5.7845 -5.46072,-7.89864c-2.32771,-2.97075 -6.43546,-4.64905 -9.16587,-7.32851c-9.74816,-9.56629 -12.16087,-12.22045 -18.24361,-21.61854c-0.5229,-0.80791 -1.28169,-1.493 -2.15023,-2.1257c2.47995,-0.28731 9.07151,-1.81459 9.07151,-9.93343c0,-9.16944 -8.40785,-9.93101 -9.80451,-9.99427c-0.39299,-0.51218 -0.78787,-1.02145 -1.36866,-1.24453c-0.17564,-0.06747 -0.40853,-0.11964 -0.65542,-0.14697c-0.78486,-1.68018 -1.80695,-3.26458 -3.12025,-4.53411c0.42224,-2.25162 -0.42921,-4.07441 -1.88114,-5.56878c0.38143,-1.43162 0.68871,-2.92343 1.76423,-3.85229c-1.2459,-2.97168 -1.93427,-6.23497 -1.93427,-9.65904c0,-3.13655 0.57762,-6.13819 1.63228,-8.90436c0.44467,-1.99788 1.0954,-3.89822 2.27397,-5.54877z" fill="url(#color-1)" stroke-width="0.5"/><path d="M508.0317,334.16185c1.76777,1.76777 0,3.53553 0,3.53553l-2.76777,1.73223c-2.01543,0 -4.21367,-1.03554 -6.04329,-0.1903c-1.16874,0.53993 -1.55517,2.12741 -2.64238,2.81693c-2.95407,1.87349 -6.3526,1.14668 -9.52376,2.24508c0,0 -2.37171,0.79057 -3.16228,-1.58114c-0.79057,-2.37171 1.58114,-3.16228 1.58114,-3.16228c1.13004,-0.36534 2.21958,-0.89524 3.39011,-1.09601c1.88432,-0.32319 3.39181,0.53687 5.08613,-0.65891c1.26,-0.88926 1.92856,-2.60326 3.35762,-3.18307c0.56359,-0.22867 6.56454,-0.1903 7.95671,-0.1903l-0.76777,-0.26777c0,0 1.76777,-1.76777 3.53553,0z" fill="#2f2f2f" stroke-width="0.5"/><path d="M523.47173,334.12905l-2.79261,1.86174c-0.06303,0.04336 -0.12815,0.08391 -0.19518,0.12145c-0.30088,0.64663 -0.92507,1.31738 -2.22001,1.31738c-2.5,0 -2.5,-2.5 -2.5,-2.5l0.73223,-2.76777c0.35721,-0.34324 0.70113,-0.65522 1.0346,-0.93841l0.36146,-1.08439l0.52671,0.17557l0.14638,-1.21931c1.1024,-0.29752 2.36789,-0.2694 3.40508,-0.69712c-0.92165,-0.0802 -1.88058,-0.43743 -2.74974,-0.15887c-0.77745,0.24917 -0.94442,1.39341 -1.64238,1.81693c-1.4984,0.90921 -3.34453,1.3656 -4.54656,2.64114c0,0 -1.76777,1.76777 -3.53553,0c-1.76777,-1.76777 0,-3.53553 0,-3.53553c0.81781,-0.78629 1.48747,-1.76391 2.45344,-2.35886c0.89751,-0.55279 2.09378,-0.4616 3,-1c0.92079,-0.54706 1.34479,-1.83478 2.35762,-2.18307c1.33433,-0.45885 2.87223,0.29291 4.23225,-0.08303c0.97611,-0.26982 1.59428,-1.26029 2.46964,-1.76955c1.33329,-0.77565 2.75786,-1.38253 4.13678,-2.07379l-1.38197,0.23607c0,0 0,-2.5 2.5,-2.5c2.5,0 2.5,2.5 2.5,2.5l-1.38197,4.23607c-0.58003,0.2892 -1.14013,0.62231 -1.69164,0.97361c0.2805,0.9667 -0.19033,1.90836 -0.19033,1.90836c-0.06922,0.12519 -0.13545,0.25278 -0.19938,0.38223c1.3638,0.01962 2.46331,1.13127 2.46331,2.49974c0,1.1246 -0.74256,2.07576 -1.76412,2.38994l-2.94531,0.98177c-0.85987,0.27918 -1.72092,0.5547 -2.58277,0.82772z" fill="#2f2f2f" stroke-width="0.5"/><path d="M534.76393,317.92961c0,-1.38071 1.11929,-2.5 2.5,-2.5c1.38071,0 2.5,1.11929 2.5,2.5c0,1.38071 -1.11929,2.5 -2.5,2.5c-1.38071,0 -2.5,-1.11929 -2.5,-2.5z" fill="#2f2f2f" stroke-width="0.5"/><path d="M576.22144,303.2019c-1.0289,-0.47204 -1.37816,-1.19623 -1.45232,-1.84744c-1.94416,0.68257 -3.86009,1.32801 -5.71463,1.94687c0,0 -2.37171,0.79057 -3.16228,-1.58114c-0.03831,-0.11493 -0.06919,-0.22614 -0.09328,-0.33373c-1.15852,-0.21792 -2.03501,-1.23502 -2.03501,-2.45684c0,-1.38071 1.11929,-2.5 2.5,-2.5c0.57782,0 1.10986,0.19603 1.53323,0.52522c0.01817,-2.32597 0.19718,-3.86429 3.51006,-5.33491c1.38896,-0.61658 3.03709,-0.11905 4.55625,-0.15802c0.31131,-0.00799 0.74642,0.19037 1.05264,0.18664c0.08737,-0.03232 0.17519,-0.06409 0.26326,-0.09562c0.02204,-0.02324 0.041,-0.05137 0.05646,-0.08508c0.41667,-0.90906 -0.60365,-2.20275 0,-3c0.70671,-0.93336 2.4273,-0.4834 3.26034,-1.30599c0.62285,-0.61504 0.14515,-1.8253 0.64114,-2.54656c0.82374,-1.19786 1.85364,-2.37827 3.16992,-2.99537c1.07438,-0.50369 2.38453,0.02921 3.55625,-0.15802c2.10179,-0.33584 3.65581,-2.25485 5.676,-2.92501c1.05191,-0.34896 2.23139,0.11074 3.324,-0.07499c3.32265,-0.5648 5.93237,-1.03228 9.40046,-1.03228l2.76777,1.73223c0,0 1.76777,1.76777 0,3.53553c-1.76777,1.76777 -3.53553,0 -3.53553,0l0.76777,-0.26777c-1.86655,0 -3.76026,-0.35015 -5.59954,-0.03228c-1.0387,0.17951 -1.95963,0.83045 -3,1c-0.88073,0.14353 -1.82995,-0.35871 -2.676,-0.07499c-0.41983,0.14079 -0.8243,0.32385 -1.2198,0.53087c0.51801,-0.14124 1.01887,-0.28178 1.49534,-0.4236l0.51686,0.31261c0.07802,-0.02294 0.15612,-0.04503 0.2343,-0.06609l0.03941,-0.11823l0.1834,0.06113c0.56682,-0.13743 1.13874,-0.21395 1.72057,-0.1707c0.10239,0.00761 0.20419,0.01795 0.30546,0.03082v-0.04955h3c1.38071,0 2.5,1.11929 2.5,2.5c0,1.1246 -0.74256,2.07576 -1.76412,2.38994l-2.63684,0.87895c-5.25229,4.14035 -11.87431,7.31173 -18.56281,9.92889l-1.26396,2.84471c0,0 -1.04249,2.27227 -3.31476,1.22979z" fill="#2f2f2f" stroke-width="0.5"/><path d="M662.76393,287.92961c0,2.5 -2.5,2.5 -2.5,2.5h-2c-2.96435,0 -6.48352,0.45238 -9.40046,-0.03228c-2.07967,-0.34555 -3.91229,-1.70692 -6,-2c-2.9959,-0.42058 -6.55688,0.03228 -9.59954,0.03228c0,0 -2.5,0 -2.5,-2.5c0,-2.5 2.5,-2.5 2.5,-2.5c3.30742,0 7.15374,-0.43793 10.40046,0.03228c2.08642,0.30217 3.92072,1.65207 6,2c2.6507,0.44355 5.90833,-0.03228 8.59954,-0.03228h2c0,0 2.5,0 2.5,2.5z" fill="#2f2f2f" stroke-width="0.5"/><path d="M712.03168,237.16186c1.76777,1.76777 0,3.53553 0,3.53553l-1.45807,1.18894c0,1.33333 0.55064,2.78568 0,4c-1.16807,2.57597 -4.66413,3.50692 -6,6c-0.32308,0.60294 0.16494,1.35972 0.1903,2.04329c0.08742,2.35609 0.85936,4.66784 0.82163,7.02525c-0.06632,4.14324 -0.79533,6.68211 -3.48718,9.67323c-2.61435,2.90499 -7.46293,6.30114 -11.43399,6.76924c-0.98365,0.11595 -2.06399,-0.90429 -2.93868,-0.43961c-0.63186,0.33567 0.09014,1.50126 -0.24733,2.13216c-0.84907,1.58737 -2.14297,2.89316 -3.21445,4.33973c0,0 -1.5,2 -3.5,0.5c-2,-1.5 -0.5,-3.5 -0.5,-3.5c0.92852,-1.22009 1.99398,-2.34719 2.78555,-3.66027c0.73078,-1.21224 0.55621,-3.1115 1.75267,-3.86784c1.43143,-0.90488 3.39055,-0.16332 5.06132,-0.43961c3.21764,-0.5321 8.92347,-4.14455 10.07563,-7.45163c1.33611,-3.83506 -0.27088,-7.20424 -0.17518,-11.08065c0.03259,-1.32003 -0.38155,-2.76653 0.1903,-3.95671c1.22494,-2.54942 4.95596,-3.37131 6,-6c0.49216,-1.23917 0,-2.66667 0,-4l2.54193,-2.81106c0,0 1.76777,-1.76777 3.53553,0z" fill="#2f2f2f" stroke-width="0.5"/><path d="M731.03168,197.16186c1.76777,1.76777 0,3.53553 0,3.53553l-0.5317,0.35027c-0.82277,1.54991 -1.23629,3.40021 -2.4683,4.64973c-0.92583,0.93899 -2.80165,0.52964 -3.64114,1.54656c-0.56208,0.68087 0.50485,1.8202 0.18307,2.64238c-0.34362,0.87796 -1.64423,1.12689 -2,2c-0.42296,1.03801 0.51632,2.48172 -0.18307,3.35762c-2.54419,3.18627 -8.07712,2.84866 -7.62663,7.68567c0,0 0,2.5 -2.5,2.5c-2.5,0 -2.5,-2.5 -2.5,-2.5c0.19487,-4.0516 1.38096,-6.7288 5.03822,-9.02811c1.00873,-0.63419 2.58948,-0.35686 3.33515,-1.28622c0.55253,-0.68865 -0.50485,-1.8202 -0.18307,-2.64238c0.34362,-0.87796 1.64423,-1.12689 2,-2c0.42296,-1.03801 -0.50718,-2.4745 0.18307,-3.35762c1.02675,-1.31365 3.17118,-1.28327 4.35886,-2.45344c0.8747,-0.86181 1.02113,-2.23351 1.5317,-3.35027l1.4683,-1.64973c0,0 1.76777,-1.76777 3.53553,0z" fill="#2f2f2f" stroke-width="0.5"/><path d="M444.47336,384.30133c-2.37171,-0.79057 -1.58114,-3.16228 -1.58114,-3.16228l1.24508,-3.52376c1.84892,-1.91258 4.40432,-3.09656 6.09852,-5.14745c0.69204,-0.83775 0.37878,-2.23696 1.06177,-3.0821c4.27,-5.28367 13.15325,-3.95613 18.96633,-3.95613c0,0 2.5,0 2.5,2.5c0,2.5 -2.5,2.5 -2.5,2.5c-4.93236,0 -9.00955,-0.44113 -13.67512,1.34139c-0.47623,0.18195 -1.08545,0.27199 -1.35855,0.70248c-0.54731,0.86272 -0.28118,2.13552 -0.93823,2.9179c-1.63784,1.95027 -4.04889,3.10499 -5.90148,4.85255l-0.75492,2.47624c0,0 -0.79057,2.37171 -3.16228,1.58114z" fill="#2f2f2f" stroke-width="0.5"/><path d="M780.26393,254.42961c-2.5,0 -2.5,-2.5 -2.5,-2.5v-1c0,-3.65442 -0.1583,-7.35025 0,-11c0.04096,-0.94439 0.72708,-1.97919 0.29581,-2.82036c-0.40867,-0.7971 -1.67932,-0.68923 -2.38079,-1.24629c-0.97703,-0.7759 -2.00399,-1.60043 -2.59053,-2.70161c-0.60954,-1.14436 -0.14958,-2.71231 -0.86804,-3.79163c-0.71774,-1.07822 -2.49781,-1.14766 -3.16065,-2.26048c-0.55006,-0.92348 0.28949,-2.22326 -0.10551,-3.22294c-0.30002,-0.75928 -1.40066,-0.94007 -1.81693,-1.64238c-0.63518,-1.07166 -0.83005,-2.34917 -1.24508,-3.52376c0,0 -0.79057,-2.37171 1.58114,-3.16228c2.37171,-0.79057 3.16228,1.58114 3.16228,1.58114c0.25164,0.82541 0.30673,1.73884 0.75492,2.47624c0.55628,0.91525 1.78135,1.36477 2.18307,2.35762c0.34745,0.85873 -0.5852,1.98458 -0.10551,2.77706c0.57475,0.94955 2.22301,0.81642 2.83935,1.73952c0.80664,1.20811 0.52325,2.88941 1.13196,4.20837c0.90206,1.95459 4.07604,2.12166 5.02869,4.0521c0.76531,1.55081 0.24011,3.45118 0.29581,5.17964c0.11786,3.65731 0,7.34011 0,11v1c0,0 0,2.5 -2.5,2.5z" fill="#2f2f2f" stroke-width="0.5"/><path d="M806.38196,290.16568c-2.23607,1.11803 -3.3541,-1.11803 -3.3541,-1.11803l-0.5317,-1.35027c-3.74678,-3.89701 -4.59238,-8.79327 -3.69995,-14.16822c0.12416,-0.74781 1.25557,-1.30004 1.0346,-2.02516c-0.58905,-1.93292 -3.26827,-2.37948 -4.95363,-3.49426c0,0 -2.08013,-1.38675 -0.69338,-3.46688c1.38675,-2.08013 3.46688,-0.69338 3.46688,-0.69338c2.34237,1.57229 6.06961,3.68199 7.04637,6.50574c0.44572,1.28855 -0.79869,2.6216 -0.9654,3.97484c-0.45769,3.71518 -0.45966,7.23111 2.30005,9.83178l1.4683,2.64973c0,0 1.11803,2.23607 -1.11803,3.3541z" fill="#2f2f2f" stroke-width="0.5"/><path d="M405.63267,429.54258c2.59267,-3.19057 5.47391,-5.01319 8.54133,-6.10019c3.15316,-1.4639 6.74717,-2.29274 10.56148,-2.29274c1.27132,0 2.51817,0.09208 3.73239,0.26906c2.9768,-0.25127 5.98193,-0.6463 8.94622,-1.61225c1.42188,-0.46334 -0.65983,-3.18172 -0.47437,-3.86181c2.25723,-8.27778 3.10922,-9.60004 10.02578,-15.55972c1.19749,-1.03182 5.4132,-2.36288 7.35588,-3.23571c9.75788,-4.38417 17.57584,-4.32263 28.20293,-6.01802c8.71769,-1.39077 12.55503,-2.65795 20.34428,-6.08553c4.54936,-2.0019 1.78889,-6.35088 2.82035,-9.9763c1.48186,-5.2085 3.25761,-10.69475 9.19765,-13.67736c3.92405,-1.97035 8.6323,-2.44841 13.08896,-3.10849c1.03302,-0.153 1.98658,0.74101 3.03391,0.72052c1.03237,-0.0202 0.64797,-1.75719 1.26466,-2.48499c2.34294,-2.76507 5.82604,-4.64623 9.04353,-6.61877c2.45883,-1.50743 8.89932,-1.92781 10.47377,-2.24746c0.6425,-0.13044 3.81879,-3.74585 3.84782,-3.76783c1.59283,-1.20563 4.43555,-2.90076 6.17068,-4.03445c3.98621,-2.60448 8.79774,-3.72406 13.42132,-5.09376c0.5267,-0.15603 1.99452,-2.7807 2.3137,-3.13129c1.62658,-1.78662 3.6162,-3.7517 5.69536,-5.14359c2.80238,-1.87606 5.7714,-2.20865 8.72093,-3.62732c0.51678,-0.24856 2.34045,-2.37897 2.74957,-2.68945c1.74726,-1.32597 3.45834,-2.69087 5.26111,-3.95816c0.97712,-0.68688 3.10055,-0.78456 3.93895,-1.21258c0.68575,-0.35008 0.85878,-1.27605 1.58241,-1.56124c3.44208,-1.35655 7.1731,-2.34542 10.93817,-2.55247c1.03095,-0.05669 1.93115,0.66275 2.93762,0.86701c2.77742,0.56367 9.8461,1.68155 12.25691,3.48943c1.57205,1.17888 2.01335,3.96565 4.07378,4.10702c1.57988,0.10839 4.09715,-0.2894 5.83765,-0.1775c1.69308,0.10886 4.41349,1.3179 5.94972,1.22641c3.76533,-0.22423 7.10214,-1.30851 11.05908,-0.96081c9.0047,0.79125 17.91595,3.21126 26.97442,1.45271c1.83399,-0.35604 1.42288,-4.67119 2.66383,-5.9338c1.67581,-1.70506 3.82233,-3.02392 5.48076,-4.74205c1.43913,-1.49093 4.58728,-9.99009 5.0421,-12.54842c0.08681,-0.48829 -0.33731,-1.03315 -0.09745,-1.48016c1.30834,-2.43822 3.30243,-4.89291 4.60085,-7.51803c4.78707,-1.29838 5.682,-5.48902 5.8493,-7.01049c0.48704,-0.7438 0.97408,-1.4876 1.46112,-2.23139c0.12953,-1.56445 0.3026,-3.12658 0.38858,-4.69335c0.04362,-0.79485 0.21125,-1.6135 0,-2.38732c-0.05497,-0.20136 -0.82498,0.03154 -0.68936,-0.1378c0.20072,-0.25063 0.83489,0.01142 1.00488,-0.25618c0.65278,-1.02756 0.51349,-2.38252 1.28319,-3.34556c0.93824,-1.17392 2.98285,-1.54896 3.66901,-2.8506c0.66819,-1.26756 0.85696,-2.67877 0.95325,-4.09752c1.19423,-0.50928 2.26785,-1.21667 2.93698,-2.16639c2.08807,-2.9637 2.07518,-9.96906 1.02006,-13.26868c-0.10543,-0.3297 -0.41335,-0.54981 -0.75282,-0.75569c0.57607,-0.40958 1.1437,-0.83578 1.74999,-1.1858c0.16099,-0.18918 0.37015,-0.35695 0.54347,-0.54064c1.07465,0.40757 2.46707,-0.04299 3.67679,-0.04299c2.2951,0 4.59012,-0.04619 6.88432,-0.10275l4.13001,-1.10139c0,0 5.74359,-1.68232 6.27307,-6.42248c2.31703,1.24694 4.35506,2.83134 6.34348,4.87871c1.06081,1.09226 5.55071,11.91083 6.03544,13.48147c0.6555,2.12397 0.19247,4.60282 1.52909,6.46389c0.27523,0.38322 2.03077,-0.92249 2.39773,-1.05684c1.30898,-0.47926 2.57972,-1.21192 3.99543,-1.28388c1.60472,-0.08157 3.12302,0.74038 4.72638,0.84051c1.59841,0.09982 3.22859,-0.52104 4.79956,-0.24729c0.01698,0.03027 0.03417,0.06044 0.05157,0.09049c-0.37482,0.98239 -0.74069,1.96562 -0.8456,2.98938c-0.4329,4.22421 -1.49891,8.64535 -0.17112,12.72303c0.73685,2.26291 3.84739,3.28002 5.88092,4.81202c3.33761,2.51447 6.57958,5.19201 10.14933,7.49056c0.1534,0.09878 0.30233,0.20514 0.44816,0.31673c-0.57458,1.5278 -1.00979,3.09342 -1.00189,4.68169c0.0071,1.42804 -0.05077,3.01529 0.1863,4.49345c-0.33775,2.46065 -0.48493,4.94836 -0.23037,7.49055c0.02038,0.20355 0.42538,-0.16783 0.64772,-0.22767c1.34178,-0.36107 3.31395,-0.92531 4.87087,-1.11206c0.28784,-0.03452 0.57734,-0.05976 0.8681,-0.07748c2.20848,0.72314 4.66341,1.07206 6.94626,1.35512c2.74394,0.34023 5.53148,-0.32448 8.24643,-0.92729c-0.00829,0.90515 0.05634,1.80969 0.22323,2.69843c0.39412,2.09884 0.95173,4.21975 2.01325,6.13156c0.41176,0.74159 1.91499,0.73473 2.23071,1.51185c0.50747,1.24908 -0.68801,2.79838 0,3.97887c1.23379,2.11694 3.38016,3.74908 5.41692,5.31551c0.04775,0.03673 0.10408,0.07129 0.16652,0.10288c-0.09756,0.77672 0.02624,1.59812 0.18345,2.36029c0.85014,4.12167 3.61094,8.49169 7.55229,10.92519c0.57226,0.35333 1.19033,0.63327 1.83789,0.86224c-0.19129,0.90377 -0.41481,1.73281 -0.66992,2.46485c-1.03114,2.95881 -2.5749,4.88322 -3.99376,7.71381c-1.58834,3.16869 4.96452,5.37841 7.40205,8.09888c2.82453,3.1524 5.39869,6.56252 7.63041,10.06341c1.28367,2.01368 1.79921,4.55625 3.77335,6.07876c2.4032,1.8534 5.47108,2.86259 8.39982,4.05252c0.15222,0.54662 0.38004,1.06992 0.71903,1.55854c1.76732,2.54738 5.15709,3.93063 8.07709,5.45291c0.16015,0.08349 0.33385,0.09002 0.5153,0.0591c-2.30529,3.31103 -1.51344,4.28203 -1.51344,10.62741c0,1.83324 -0.10867,3.70871 0.38858,5.48912c0.25941,0.92884 1.4103,1.49817 1.81123,2.38732c0.12812,0.28413 -0.39583,0.56316 -0.34451,0.86543c0.35752,2.10573 0.53847,4.30577 1.5509,6.24003c1.10984,2.12037 3.12066,3.7774 4.68099,5.66609c4.77102,1.82533 8.10614,4.04618 13.44666,4.75714c0.23633,0.03146 0.153,-0.65456 0.35772,-0.54612c0.3593,0.19032 0.16166,0.81113 0.51577,1.00881c0.54167,0.30239 1.15309,0.52503 1.78461,0.66055c-0.31624,0.78279 0.25964,2.00537 0.25964,2.91526c0,5.42304 1.35055,9.99339 4.69901,14.1244c0.10858,0.52588 0.28614,1.15818 0.57649,1.81989c-0.98779,1.18826 -2.53667,2.77129 -2.49354,3.45556c0.097,1.53895 3.74512,4.5601 4.08419,6.03228c0.31884,1.38438 -0.39245,2.82136 -0.2785,4.23025c0.11395,1.40889 1.04936,2.74304 0.95653,4.15312c-0.25829,3.92315 -4.68369,8.54925 -7.20532,11.11977c-0.68933,0.70269 -0.93501,1.73045 -1.75089,2.31927c-8.01046,5.78112 -25.15146,5.39119 -34.18935,2.17266c-3.65567,-1.30184 -6.79067,-3.28872 -10.39816,-4.69051c-0.86095,-0.33455 -4.56982,0.61665 -5.6205,0.62242c-14.34093,0.0788 -28.72274,-0.27507 -42.98548,-1.59155c-2.54647,-0.23504 -3.26781,1.30867 -5.33873,2.5175c-2.91156,1.69952 -6.49193,2.20138 -9.30726,3.653c-1.04944,0.5411 -2.43749,2.00175 -3.49752,2.48353c-5.74485,2.61107 -22.43841,4.82454 -28.52686,4.87411c-7.2446,0.05899 -14.49054,0.0891 -21.73475,0c-3.17023,-0.03899 -6.08783,-1.47332 -9.10771,-1.59155c-6.52686,-0.25553 -22.82329,0.51873 -29.49785,-1.34741c-2.10002,-0.58714 -7.67726,-4.19651 -9.44358,-4.22301c-8.13216,-0.12198 -16.26686,0.04701 -24.40003,0c-5.88697,-0.03403 -11.91801,-2.69826 -17.74608,-1.59155c-7.68702,1.45972 -14.50179,5.39627 -22.55036,6.1035c-5.71586,0.50226 -11.94838,1.15659 -17.57798,-0.04816c-2.3121,-0.49479 -4.52204,-2.49816 -6.80298,-1.90205c-28.71999,7.50587 -56.53195,17.78163 -85.04226,25.88126c-10.33092,2.93496 -26.73734,10.23404 -40.16059,10.30637c-6.60994,0.03562 -12.27063,-0.20174 -17.55173,-3.81107c-2.08392,-1.42424 -3.44514,-4.60315 -4.94531,-6.28553c-2.10801,-2.36405 -5.82805,-3.69959 -8.30075,-5.83184c-8.82808,-7.6126 -11.01306,-9.72471 -16.52168,-17.20346c-0.47355,-0.64291 -1.16072,-1.18809 -1.94728,-1.69158c2.24588,-0.22863 8.2153,-1.444 8.2153,-7.90476c0,-7.2968 -7.61428,-7.90284 -8.87911,-7.95318c-0.3559,-0.40758 -0.71351,-0.81284 -1.23947,-0.99036c-0.15906,-0.05369 -0.36998,-0.0952 -0.59356,-0.11696c-0.71078,-1.33704 -1.6364,-2.59787 -2.82574,-3.60813c0.38239,-1.79178 -0.3887,-3.24231 -1.70359,-4.43149c0.34543,-1.13924 0.62371,-2.32639 1.59772,-3.06555c-1.12831,-2.36478 -1.7517,-4.96163 -1.7517,-7.68641c0,-2.49598 0.5231,-4.88462 1.47822,-7.08585c0.4027,-1.58986 0.99201,-3.1021 2.05934,-4.41557z" fill="url(#color-2)" stroke-width="0.5"/><path d="M254.43079,435.99606c1.17857,1.65055 1.8293,3.55089 2.27397,5.54877c1.05466,2.76617 1.63228,5.76781 1.63228,8.90436c0,3.42407 -0.68837,6.68736 -1.93427,9.65904c1.07552,0.92886 1.3828,2.42067 1.76423,3.85229c-1.45193,1.49437 -2.30338,3.31716 -1.88114,5.56878c-1.3133,1.26953 -2.33539,2.85393 -3.12025,4.53411c-0.24689,0.02733 -0.47978,0.0795 -0.65542,0.14697c-0.58079,0.22308 -0.97567,0.73235 -1.36866,1.24453c-1.39666,0.06326 -9.80451,0.82483 -9.80451,9.99427c0,8.11884 6.59156,9.64612 9.07151,9.93343c-0.86854,0.6327 -1.62733,1.31779 -2.15023,2.1257c-6.08274,9.39809 -8.49545,12.05225 -18.24361,21.61854c-2.73041,2.67946 -6.83816,4.35776 -9.16587,7.32851c-1.65652,2.11414 -3.15961,6.10889 -5.46072,7.89864c-5.83151,4.53562 -12.08216,4.83389 -19.38101,4.78913c-14.82225,-0.0909 -32.9386,-9.26321 -44.34623,-12.95139c-31.48173,-10.1783 -62.19232,-23.09121 -93.90558,-32.52338c-2.51866,-0.7491 -4.95893,1.7684 -7.512,2.39018c-6.21633,1.51393 -13.09842,0.69168 -19.41,0.06052c-8.88741,-0.88873 -16.41244,-5.83555 -24.90062,-7.66989c-6.43549,-1.39074 -13.09511,1.95724 -19.59563,2c-8.98082,0.05908 -17.96335,-0.15329 -26.94306,0c-1.95041,0.0333 -8.10892,4.56898 -10.42781,5.3068c-7.3702,2.34506 -25.36508,1.37208 -32.57219,1.6932c-3.33463,0.14857 -6.5563,1.951 -10.05694,2c-7.99921,0.11197 -16.00034,0.07413 -24,0c-6.72301,-0.0623 -25.15641,-2.84383 -31.5,-6.125c-1.1705,-0.60543 -2.70322,-2.44093 -3.86203,-3.1209c-3.10875,-1.82417 -7.06228,-2.45483 -10.27729,-4.59051c-2.28676,-1.51906 -3.08328,-3.45896 -5.89515,-3.16359c-15.74923,1.65434 -31.62996,2.09902 -47.46553,2c-1.16018,-0.00726 -5.2556,-1.20257 -6.20628,-0.78216c-3.98346,1.76154 -7.44521,4.25833 -11.48188,5.89427c-9.97984,4.04453 -28.90732,4.53452 -37.75265,-2.73025c-0.90091,-0.73993 -1.1722,-2.03145 -1.93337,-2.91448c-2.78444,-3.23021 -7.67107,-9.04355 -7.95628,-13.97353c-0.10251,-1.77197 0.9304,-3.44852 1.05622,-5.21898c0.12582,-1.77046 -0.65961,-3.57623 -0.30753,-5.31589c0.37441,-1.85 4.40275,-5.6465 4.50986,-7.5804c0.04763,-0.85988 -1.66269,-2.84918 -2.75342,-4.34239c0.3206,-0.83154 0.51667,-1.62611 0.63657,-2.28695c3.69745,-5.19118 5.18876,-10.93446 5.18876,-17.74926c0,-1.1434 0.6359,-2.67974 0.2867,-3.66342c0.69735,-0.1703 1.37249,-0.45008 1.97061,-0.83007c0.39102,-0.24842 0.17277,-1.02854 0.56952,-1.26771c0.22605,-0.13626 0.13403,0.72582 0.395,0.68628c5.89711,-0.89343 9.57983,-3.68424 14.8481,-5.97801c1.72295,-2.37341 3.94335,-4.45569 5.16886,-7.12023c1.11794,-2.43066 1.31776,-5.19532 1.71254,-7.84146c0.05668,-0.37985 -0.52188,-0.73049 -0.38041,-1.08754c0.44272,-1.11734 1.71355,-1.83279 2,-3c0.54908,-2.23733 0.42908,-4.59412 0.42908,-6.89784c0,-7.97385 0.87439,-9.19404 -1.67117,-13.35481c0.20036,0.03885 0.39217,0.03065 0.56901,-0.07427c3.22432,-1.91297 6.96739,-3.6512 8.9189,-6.85234c0.37433,-0.61402 0.62589,-1.27162 0.79397,-1.95853c3.23399,-1.49532 6.62161,-2.76351 9.27528,-5.09256c2.1799,-1.91323 2.74916,-5.10833 4.16662,-7.6388c2.46432,-4.39935 5.30675,-8.68465 8.42567,-12.64607c2.69157,-3.41864 9.92739,-6.19546 8.17351,-10.17736c-1.56675,-3.55704 -3.27141,-5.97533 -4.41001,-9.69348c-0.2817,-0.91991 -0.52851,-1.96171 -0.73974,-3.09743c0.71505,-0.28774 1.39754,-0.63952 2.02944,-1.08353c4.35212,-3.05804 7.40066,-8.54957 8.3394,-13.72902c0.17359,-0.95777 0.3103,-1.98997 0.20257,-2.96603c0.06895,-0.03971 0.13114,-0.08314 0.18387,-0.12929c2.24905,-1.96843 4.61911,-4.01944 5.98149,-6.67967c0.75972,-1.48344 -0.56035,-3.43035 0,-5c0.34863,-0.97655 2.00853,-0.96793 2.46321,-1.89985c1.17215,-2.40244 1.78787,-5.06767 2.22307,-7.70515c0.18427,-1.11681 0.25564,-2.25349 0.24649,-3.39094c2.99791,0.75751 6.07598,1.59281 9.10589,1.16527c2.52077,-0.3557 5.23156,-0.79416 7.67021,-1.70289c0.32105,0.02227 0.64074,0.05398 0.95857,0.09737c1.71918,0.23468 3.8969,0.94372 5.37852,1.39745c0.24552,0.07519 0.69272,0.54189 0.71523,0.2861c0.28109,-3.19461 0.11857,-6.32076 -0.25438,-9.41291c0.26178,-1.85751 0.19788,-3.85212 0.20572,-5.64664c0.00873,-1.99588 -0.47185,-3.96331 -1.10631,-5.8832c0.16103,-0.14022 0.32548,-0.27389 0.49487,-0.39801c3.9418,-2.88844 7.52165,-6.25314 11.20712,-9.41292c2.24546,-1.92519 5.68019,-3.20332 6.49384,-6.04698c1.46617,-5.12415 0.28906,-10.67993 -0.18896,-15.98824c-0.11585,-1.28649 -0.51984,-2.52204 -0.93373,-3.75656c0.01922,-0.03776 0.0382,-0.07567 0.05695,-0.11371c1.73469,-0.344 3.53479,0.43619 5.29978,0.31076c1.77046,-0.12582 3.447,-1.15873 5.21897,-1.05622c1.56325,0.09044 2.96643,1.01113 4.41184,1.61338c0.40521,0.16884 2.34371,1.80964 2.64763,1.32807c1.47592,-2.33869 0.96463,-5.45371 1.68845,-8.12278c0.53525,-1.97373 5.4931,-15.56876 6.66447,-16.94133c2.19566,-2.57281 4.4461,-4.56383 7.00462,-6.13078c0.58466,5.95667 6.92686,8.07073 6.92686,8.07073l4.56045,1.38405c2.53331,0.07109 5.06751,0.12913 7.60182,0.12913c1.33581,0 2.87335,0.56619 4.06,0.05402c0.19139,0.23084 0.42235,0.44165 0.60012,0.67939c0.66948,0.43985 1.29628,0.97542 1.93238,1.49012c-0.37486,0.2587 -0.71486,0.5353 -0.83128,0.94962c-1.1651,4.14643 -1.17932,12.94963 1.12637,16.67393c0.73886,1.19345 1.92438,2.08239 3.24308,2.72237c0.10632,1.78286 0.31476,3.55623 1.0526,5.1491c0.75767,1.63568 3.01538,2.10698 4.0514,3.58217c0.84993,1.2102 0.69611,2.91288 1.41693,4.20416c0.18772,0.33627 0.88798,0.00697 1.10962,0.32192c0.14976,0.21281 -0.70051,-0.07987 -0.76121,0.17317c-0.23327,0.97241 -0.04816,2.00116 0,3c0.09494,1.96886 0.28605,3.93189 0.42908,5.89784c0.5378,0.93469 1.0756,1.86937 1.6134,2.80406c0.18474,1.91194 1.17293,7.17805 6.45893,8.80965c1.43374,3.29883 3.63566,6.38349 5.08036,9.44745c0.26487,0.56173 -0.20345,1.24642 -0.1076,1.86002c0.50223,3.21489 3.97849,13.89526 5.56761,15.76882c1.83128,2.15907 4.20151,3.81639 6.05198,5.95904c1.37029,1.58664 0.91633,7.00922 2.94146,7.45664c10.00256,2.20987 19.84256,-0.8312 29.78576,-1.82552c4.36934,-0.43693 8.05392,0.92562 12.21168,1.2074c1.69634,0.11496 4.70028,-1.40436 6.56981,-1.54116c1.9219,-0.14063 4.70153,0.35926 6.44606,0.22305c2.27517,-0.17764 2.76247,-3.6796 4.49836,-5.16103c2.66208,-2.27185 10.46747,-3.67662 13.53436,-4.38495c1.11137,-0.25668 2.10539,-1.16077 3.24379,-1.08952c4.15747,0.26019 8.27735,1.50285 12.07817,3.20754c0.79905,0.35838 0.99011,1.52198 1.74733,1.96191c0.92578,0.53786 3.27052,0.6606 4.34948,1.52377c1.99066,1.59253 3.88007,3.3077 5.80944,4.97397c0.45177,0.39016 2.46549,3.06731 3.03614,3.37966c3.25693,1.78275 6.53539,2.20069 9.62984,4.55822c2.29585,1.7491 4.49283,4.2185 6.28894,6.46364c0.35245,0.44055 1.97325,3.73881 2.55484,3.93489c5.10546,1.72122 10.41846,3.12813 14.82012,6.40102c1.91598,1.42464 5.05497,3.55481 6.81381,5.06985c0.03207,0.02762 3.5394,4.57088 4.24886,4.7348c1.73854,0.40168 8.85027,0.92996 11.56537,2.82425c3.55281,2.47876 7.39893,4.8427 9.98606,8.31739c0.68096,0.91459 0.2565,3.09736 1.39647,3.12274c1.15649,0.02575 2.20944,-1.09769 3.35012,-0.90543c4.92116,0.82948 10.12011,1.43024 14.45313,3.90625c6.55912,3.74807 8.51995,10.64229 10.15625,17.1875c1.13896,4.55585 -1.90922,10.02095 3.11429,12.53661c8.60107,4.30723 12.83835,5.89961 22.46462,7.64731c11.73467,2.13049 20.36744,2.05315 31.14231,7.56247c2.14515,1.09684 6.80024,2.7695 8.12253,4.06612c7.63742,7.48916 8.57821,9.15077 11.07069,19.55294c0.20478,0.85463 -2.09389,4.27065 -0.52381,4.8529c3.27323,1.21385 6.59156,1.71027 9.87861,2.02602c1.34076,-0.2224 2.71756,-0.33811 4.12139,-0.33811c4.21185,0 8.18042,1.04155 11.66222,2.88114c3.38711,1.36596 6.56864,3.65634 9.43153,7.66573z" fill="url(#color-3)" stroke-width="0.5"/><path d="M113.95043,353.68136c1.76776,-1.76777 3.53553,0 3.53553,0l-0.76777,0.26777c1.39217,0 7.39312,-0.03837 7.95671,0.1903c1.42906,0.57981 2.09762,2.29381 3.35762,3.18307c1.69432,1.19578 3.20181,0.33572 5.08613,0.65891c1.17053,0.20077 2.26007,0.73067 3.39011,1.09601c0,0 2.37171,0.79057 1.58114,3.16228c-0.79057,2.37171 -3.16228,1.58114 -3.16228,1.58114c-3.17116,-1.0984 -6.56969,-0.37159 -9.52376,-2.24508c-1.08721,-0.68952 -1.47364,-2.277 -2.64238,-2.81693c-1.82962,-0.84524 -4.02786,0.1903 -6.04329,0.1903l-2.76777,-1.73223c0,0 -1.76777,-1.76776 0,-3.53553z" fill="#2f2f2f" stroke-width="0.5"/><path d="M98.5104,353.64859c-0.86185,-0.27302 -1.7229,-0.54854 -2.58277,-0.82772l-2.94531,-0.98177c-1.02156,-0.31418 -1.76412,-1.26534 -1.76412,-2.38994c0,-1.36847 1.09951,-2.48012 2.46331,-2.49974c-0.06393,-0.12945 -0.13016,-0.25704 -0.19938,-0.38223c0,0 -0.47083,-0.94166 -0.19033,-1.90836c-0.55151,-0.3513 -1.11161,-0.68441 -1.69164,-0.97361l-1.38197,-4.23607c0,0 0,-2.5 2.5,-2.5c2.5,0 2.5,2.5 2.5,2.5l-1.38197,-0.23607c1.37892,0.69126 2.80349,1.29814 4.13678,2.07379c0.87536,0.50926 1.49353,1.49973 2.46964,1.76955c1.36002,0.37594 2.89792,-0.37582 4.23225,0.08303c1.01283,0.34829 1.43683,1.63601 2.35762,2.18307c0.90622,0.5384 2.10249,0.44721 3,1c0.96597,0.59495 1.63563,1.57257 2.45344,2.35886c0,0 1.76777,1.76776 0,3.53553c-1.76776,1.76777 -3.53553,0 -3.53553,0c-1.20203,-1.27554 -3.04816,-1.73193 -4.54656,-2.64114c-0.69796,-0.42352 -0.86493,-1.56776 -1.64238,-1.81693c-0.86916,-0.27856 -1.82809,0.07867 -2.74974,0.15887c1.03719,0.42772 2.30268,0.3996 3.40508,0.69712l0.14638,1.21931l0.52671,-0.17557l0.36146,1.08439c0.33347,0.28319 0.67739,0.59517 1.0346,0.93841l0.73223,2.76777c0,0 0,2.5 -2.5,2.5c-1.29494,0 -1.91913,-0.67075 -2.22001,-1.31738c-0.06703,-0.03754 -0.13215,-0.07809 -0.19518,-0.12145l-2.79261,-1.86174z" fill="#2f2f2f" stroke-width="0.5"/><path d="M84.71818,339.94913c-1.38071,0 -2.5,-1.11929 -2.5,-2.5c0,-1.38071 1.11929,-2.5 2.5,-2.5c1.38071,0 2.5,1.11929 2.5,2.5c0,1.38071 -1.11929,2.5 -2.5,2.5z" fill="#2f2f2f" stroke-width="0.5"/><path d="M45.76067,322.72141c-2.27227,1.04248 -3.31476,-1.22979 -3.31476,-1.22979l-1.26396,-2.84471c-6.6885,-2.61716 -13.31052,-5.78854 -18.56281,-9.92889l-2.63684,-0.87895c-1.02156,-0.31418 -1.76412,-1.26534 -1.76412,-2.38994c0,-1.38071 1.11929,-2.5 2.5,-2.5h3v0.04955c0.10127,-0.01287 0.20307,-0.02321 0.30546,-0.03082c0.58183,-0.04325 1.15375,0.03327 1.72057,0.1707l0.1834,-0.06113l0.03941,0.11823c0.07818,0.02106 0.15628,0.04315 0.2343,0.06609l0.51686,-0.31261c0.47647,0.14182 0.97733,0.28236 1.49534,0.4236c-0.3955,-0.20702 -0.79997,-0.39008 -1.2198,-0.53087c-0.84605,-0.28372 -1.79527,0.21852 -2.676,0.07499c-1.04037,-0.16955 -1.9613,-0.82049 -3,-1c-1.83928,-0.31787 -3.73299,0.03228 -5.59954,0.03228l0.76777,0.26777c0,0 -1.76776,1.76777 -3.53553,0c-1.76777,-1.76776 0,-3.53553 0,-3.53553l2.76777,-1.73223c3.46809,0 6.07781,0.46748 9.40046,1.03228c1.09261,0.18573 2.27209,-0.27397 3.324,0.07499c2.02019,0.67016 3.57421,2.58917 5.676,2.92501c1.17172,0.18723 2.48187,-0.34567 3.55625,0.15802c1.31628,0.6171 2.34618,1.79751 3.16992,2.99537c0.49599,0.72126 0.01829,1.93152 0.64114,2.54656c0.83304,0.82259 2.55363,0.37263 3.26034,1.30599c0.60365,0.79725 -0.41667,2.09094 0,3c0.01546,0.03371 0.03442,0.06184 0.05646,0.08508c0.08807,0.03153 0.17589,0.0633 0.26326,0.09562c0.30622,0.00373 0.74133,-0.19463 1.05264,-0.18664c1.51916,0.03897 3.16729,-0.45856 4.55625,0.15802c3.31288,1.47062 3.49189,3.00894 3.51006,5.33491c0.42337,-0.32919 0.95541,-0.52522 1.53323,-0.52522c1.38071,0 2.5,1.11929 2.5,2.5c0,1.22182 -0.87649,2.23892 -2.03501,2.45684c-0.02409,0.10759 -0.05497,0.2188 -0.09328,0.33373c-0.79057,2.37171 -3.16228,1.58114 -3.16228,1.58114c-1.85454,-0.61886 -3.77047,-1.2643 -5.71463,-1.94687c-0.07416,0.65121 -0.42342,1.3754 -1.45232,1.84744z" fill="#2f2f2f" stroke-width="0.5"/><path d="M-38.28181,304.94913h2c2.69121,0 5.94884,0.47583 8.59954,0.03228c2.07928,-0.34793 3.91358,-1.69783 6,-2c3.24672,-0.47021 7.09304,-0.03228 10.40046,-0.03228c0,0 2.5,0 2.5,2.5c0,2.5 -2.5,2.5 -2.5,2.5c-3.04266,0 -6.60364,-0.45286 -9.59954,-0.03228c-2.08771,0.29308 -3.92033,1.65445 -6,2c-2.91694,0.48466 -6.43611,0.03228 -9.40046,0.03228h-2c0,0 -2.5,0 -2.5,-2.5c0,-2.5 2.5,-2.5 2.5,-2.5z" fill="#2f2f2f" stroke-width="0.5"/><path d="M-90.04956,256.68137c1.76776,-1.76777 3.53553,0 3.53553,0l2.54193,2.81106c0,1.33333 -0.49216,2.76083 0,4c1.04404,2.62869 4.77506,3.45058 6,6c0.57185,1.19018 0.15771,2.63668 0.1903,3.95671c0.0957,3.87641 -1.51129,7.24559 -0.17518,11.08065c1.15216,3.30708 6.85799,6.91953 10.07563,7.45163c1.67077,0.27629 3.62989,-0.46527 5.06132,0.43961c1.19646,0.75634 1.02189,2.6556 1.75267,3.86784c0.79157,1.31308 1.85703,2.44018 2.78555,3.66027c0,0 1.5,2 -0.5,3.5c-2,1.5 -3.5,-0.5 -3.5,-0.5c-1.07148,-1.44657 -2.36538,-2.75236 -3.21445,-4.33973c-0.33747,-0.6309 0.38453,-1.79649 -0.24733,-2.13216c-0.87469,-0.46468 -1.95503,0.55556 -2.93868,0.43961c-3.97106,-0.4681 -8.81964,-3.86425 -11.43399,-6.76924c-2.69185,-2.99112 -3.42086,-5.52999 -3.48718,-9.67323c-0.03773,-2.35741 0.73421,-4.66916 0.82163,-7.02525c0.02536,-0.68357 0.51338,-1.44035 0.1903,-2.04329c-1.33587,-2.49308 -4.83193,-3.42403 -6,-6c-0.55064,-1.21432 0,-2.66667 0,-4l-1.45807,-1.18894c0,0 -1.76777,-1.76776 0,-3.53553z" fill="#2f2f2f" stroke-width="0.5"/><path d="M-109.04957,216.68137c1.76776,-1.76777 3.53553,0 3.53553,0l1.4683,1.64973c0.51057,1.11676 0.657,2.48846 1.5317,3.35027c1.18768,1.17017 3.33211,1.13979 4.35886,2.45344c0.69025,0.88312 -0.23989,2.31961 0.18307,3.35762c0.35577,0.87311 1.65638,1.12204 2,2c0.32178,0.82218 -0.7356,1.95373 -0.18307,2.64238c0.74567,0.92936 2.32642,0.65203 3.33515,1.28622c3.65726,2.29931 4.84335,4.97651 5.03822,9.02811c0,0 0,2.5 -2.5,2.5c-2.5,0 -2.5,-2.5 -2.5,-2.5c0.45049,-4.83701 -5.08244,-4.4994 -7.62663,-7.68567c-0.69939,-0.8759 0.23989,-2.31961 -0.18307,-3.35762c-0.35577,-0.87311 -1.65638,-1.12204 -2,-2c-0.32178,-0.82218 0.74515,-1.96151 0.18307,-2.64238c-0.83949,-1.01692 -2.71531,-0.60757 -3.64114,-1.54656c-1.23201,-1.24952 -1.64553,-3.09982 -2.4683,-4.64973l-0.5317,-0.35027c0,0 -1.76777,-1.76776 0,-3.53553z" fill="#2f2f2f" stroke-width="0.5"/><path d="M-223.6948,372.28932c-2.37171,-0.79057 -1.58114,-3.16228 -1.58114,-3.16228l1.24508,-3.52376c1.84892,-1.91258 4.40432,-3.09656 6.09852,-5.14745c0.69204,-0.83775 0.37878,-2.23696 1.06177,-3.0821c4.27,-5.28367 13.15325,-3.95613 18.96633,-3.95613c0,0 2.5,0 2.5,2.5c0,2.5 -2.5,2.5 -2.5,2.5c-4.93236,0 -9.00955,-0.44113 -13.67512,1.34139c-0.47623,0.18195 -1.08545,0.27199 -1.35855,0.70248c-0.54731,0.86272 -0.28118,2.13552 -0.93823,2.9179c-1.63784,1.95027 -4.04889,3.10499 -5.90148,4.85255l-0.75492,2.47624c0,0 -0.79057,2.37171 -3.16228,1.58114z" fill="#2f2f2f" stroke-width="0.5"/><path d="M-158.2818,273.94909c-2.5,0 -2.5,-2.5 -2.5,-2.5v-1c0,-3.65989 -0.11786,-7.34269 0,-11c0.0557,-1.72846 -0.4695,-3.62883 0.29581,-5.17964c0.95265,-1.93044 4.12663,-2.09751 5.02869,-4.0521c0.60871,-1.31896 0.32532,-3.00026 1.13196,-4.20837c0.61634,-0.9231 2.2646,-0.78997 2.83935,-1.73952c0.47969,-0.79248 -0.45296,-1.91833 -0.10551,-2.77706c0.40172,-0.99285 1.62679,-1.44237 2.18307,-2.35762c0.44819,-0.7374 0.50328,-1.65083 0.75492,-2.47624c0,0 0.79057,-2.37171 3.16228,-1.58114c2.37171,0.79057 1.58114,3.16228 1.58114,3.16228c-0.41503,1.17459 -0.6099,2.4521 -1.24508,3.52376c-0.41627,0.70231 -1.51691,0.8831 -1.81693,1.64238c-0.395,0.99968 0.44455,2.29946 -0.10551,3.22294c-0.66284,1.11282 -2.44291,1.18226 -3.16065,2.26048c-0.71846,1.07932 -0.2585,2.64727 -0.86804,3.79163c-0.58654,1.10118 -1.6135,1.92571 -2.59053,2.70161c-0.70147,0.55706 -1.97212,0.44919 -2.38079,1.24629c-0.43127,0.84117 0.25485,1.87597 0.29581,2.82036c0.1583,3.64975 0,7.34558 0,11v1c0,0 0,2.5 -2.5,2.5z" fill="#2f2f2f" stroke-width="0.5"/><path d="M-184.39986,309.68519c-2.23606,-1.11803 -1.11803,-3.3541 -1.11803,-3.3541l1.4683,-2.64973c2.75971,-2.60067 2.75774,-6.1166 2.30005,-9.83178c-0.16671,-1.35324 -1.41112,-2.68629 -0.9654,-3.97484c0.97676,-2.82375 4.704,-4.93345 7.04637,-6.50574c0,0 2.08013,-1.38675 3.46688,0.69338c1.38675,2.08013 -0.69338,3.46688 -0.69338,3.46688c-1.68536,1.11478 -4.36458,1.56134 -4.95363,3.49426c-0.22097,0.72512 0.91044,1.27735 1.0346,2.02516c0.89243,5.37495 0.04683,10.27121 -3.69995,14.16822l-0.5317,1.35027c0,0 -1.11803,2.23606 -3.3541,1.11803z" fill="#2f2f2f" stroke-width="0.5"/><path d="M216.34938,449.06208c1.06733,1.31347 1.65664,2.82571 2.05934,4.41557c0.95512,2.20123 1.47822,4.58987 1.47822,7.08585c0,2.72478 -0.62339,5.32163 -1.7517,7.68641c0.97401,0.73916 1.25229,1.92631 1.59772,3.06555c-1.31489,1.18918 -2.08598,2.63971 -1.70359,4.43149c-1.18934,1.01026 -2.11496,2.27109 -2.82574,3.60813c-0.22358,0.02176 -0.4345,0.06327 -0.59356,0.11696c-0.52596,0.17752 -0.88357,0.58278 -1.23947,0.99036c-1.26483,0.05034 -8.87911,0.65638 -8.87911,7.95318c0,6.46076 5.96942,7.67613 8.2153,7.90476c-0.78656,0.50349 -1.47373,1.04867 -1.94728,1.69158c-5.50862,7.47875 -7.6936,9.59086 -16.52168,17.20346c-2.4727,2.13225 -6.19274,3.46779 -8.30075,5.83184c-1.50017,1.68238 -2.86139,4.86129 -4.94531,6.28553c-5.2811,3.60933 -10.94179,3.84669 -17.55173,3.81107c-13.42325,-0.07233 -29.82967,-7.37141 -40.16059,-10.30637c-28.51031,-8.09963 -56.32227,-18.37539 -85.04226,-25.88126c-2.28094,-0.59611 -4.49088,1.40726 -6.80298,1.90205c-5.6296,1.20475 -11.86212,0.55042 -17.57798,0.04816c-8.04857,-0.70723 -14.86334,-4.64378 -22.55036,-6.1035c-5.82807,-1.10671 -11.85911,1.55752 -17.74608,1.59155c-8.13317,0.04701 -16.26787,-0.12198 -24.40003,0c-1.76632,0.0265 -7.34356,3.63587 -9.44358,4.22301c-6.67456,1.86614 -22.97099,1.09188 -29.49785,1.34741c-3.01988,0.11823 -5.93748,1.55256 -9.10771,1.59155c-7.24421,0.0891 -14.49015,0.05899 -21.73475,0c-6.08845,-0.04957 -22.78201,-2.26304 -28.52686,-4.87411c-1.06003,-0.48178 -2.44808,-1.94243 -3.49752,-2.48353c-2.81533,-1.45162 -6.3957,-1.95348 -9.30726,-3.653c-2.07092,-1.20883 -2.79226,-2.75254 -5.33873,-2.5175c-14.26274,1.31648 -28.64455,1.67035 -42.98548,1.59155c-1.05068,-0.00577 -4.75955,-0.95697 -5.6205,-0.62242c-3.60749,1.40179 -6.74249,3.38867 -10.39816,4.69051c-9.03789,3.21853 -26.17889,3.60846 -34.18935,-2.17266c-0.81588,-0.58882 -1.06156,-1.61658 -1.75089,-2.31927c-2.52163,-2.57052 -6.94703,-7.19662 -7.20532,-11.11977c-0.09283,-1.41008 0.84258,-2.74423 0.95653,-4.15312c0.11395,-1.40889 -0.59734,-2.84587 -0.2785,-4.23025c0.33907,-1.47218 3.98719,-4.49333 4.08419,-6.03228c0.04313,-0.68427 -1.50575,-2.2673 -2.49354,-3.45556c0.29035,-0.66171 0.46791,-1.29401 0.57649,-1.81989c3.34846,-4.13101 4.69901,-8.70136 4.69901,-14.1244c0,-0.90989 0.57588,-2.13247 0.25964,-2.91526c0.63152,-0.13552 1.24294,-0.35816 1.78461,-0.66055c0.35411,-0.19768 0.15647,-0.81849 0.51577,-1.00881c0.20472,-0.10844 0.12139,0.57758 0.35772,0.54612c5.34052,-0.71096 8.67564,-2.93181 13.44666,-4.75714c1.56033,-1.88869 3.57115,-3.54572 4.68099,-5.66609c1.01243,-1.93426 1.19338,-4.1343 1.5509,-6.24003c0.05132,-0.30227 -0.47263,-0.5813 -0.34451,-0.86543c0.40093,-0.88915 1.55182,-1.45848 1.81123,-2.38732c0.49725,-1.78041 0.38858,-3.65588 0.38858,-5.48912c0,-6.34538 0.79185,-7.31638 -1.51344,-10.62741c0.18145,0.03092 0.35515,0.02439 0.5153,-0.0591c2.92,-1.52228 6.30977,-2.90553 8.07709,-5.45291c0.33899,-0.48862 0.56681,-1.01192 0.71903,-1.55854c2.92874,-1.18993 5.99662,-2.19912 8.39982,-4.05252c1.97414,-1.52251 2.48968,-4.06508 3.77335,-6.07876c2.23172,-3.50089 4.80588,-6.91101 7.63041,-10.06341c2.43753,-2.72047 8.99039,-4.93019 7.40205,-8.09888c-1.41886,-2.83059 -2.96262,-4.755 -3.99376,-7.71381c-0.25511,-0.73204 -0.47863,-1.56108 -0.66992,-2.46485c0.64756,-0.22897 1.26563,-0.50891 1.83789,-0.86224c3.94135,-2.4335 6.70215,-6.80352 7.55229,-10.92519c0.15721,-0.76217 0.28101,-1.58357 0.18345,-2.36029c0.06244,-0.03159 0.11877,-0.06615 0.16652,-0.10288c2.03676,-1.56643 4.18313,-3.19857 5.41692,-5.31551c0.68801,-1.18049 -0.50747,-2.72979 0,-3.97887c0.31572,-0.77712 1.81895,-0.77026 2.23071,-1.51185c1.06152,-1.91181 1.61913,-4.03272 2.01325,-6.13156c0.16689,-0.88874 0.23152,-1.79328 0.22323,-2.69843c2.71495,0.60281 5.50249,1.26752 8.24643,0.92729c2.28285,-0.28306 4.73778,-0.63198 6.94626,-1.35512c0.29076,0.01772 0.58026,0.04296 0.8681,0.07748c1.55692,0.18675 3.52909,0.75099 4.87087,1.11206c0.22234,0.05984 0.62734,0.43122 0.64772,0.22767c0.25456,-2.54219 0.10738,-5.0299 -0.23037,-7.49055c0.23707,-1.47816 0.1792,-3.06541 0.1863,-4.49345c0.0079,-1.58827 -0.42731,-3.15389 -1.00189,-4.68169c0.14583,-0.11159 0.29476,-0.21795 0.44816,-0.31673c3.56975,-2.29855 6.81172,-4.97609 10.14933,-7.49056c2.03353,-1.532 5.14407,-2.54911 5.88092,-4.81202c1.32779,-4.07768 0.26178,-8.49882 -0.17112,-12.72303c-0.10491,-1.02376 -0.47078,-2.00699 -0.8456,-2.98938c0.0174,-0.03005 0.03459,-0.06022 0.05157,-0.09049c1.57097,-0.27375 3.20115,0.34711 4.79956,0.24729c1.60336,-0.10013 3.12166,-0.92208 4.72638,-0.84051c1.41571,0.07196 2.68645,0.80462 3.99543,1.28388c0.36696,0.13435 2.1225,1.44006 2.39773,1.05684c1.33662,-1.86107 0.87359,-4.33992 1.52909,-6.46389c0.48473,-1.57064 4.97463,-12.38921 6.03544,-13.48147c1.98842,-2.04737 4.02645,-3.63177 6.34348,-4.87871c0.52948,4.74016 6.27307,6.42248 6.27307,6.42248l4.13001,1.10139c2.2942,0.05656 4.58922,0.10275 6.88432,0.10275c1.20972,0 2.60214,0.45056 3.67679,0.04299c0.17332,0.18369 0.38248,0.35146 0.54347,0.54064c0.60629,0.35002 1.17392,0.77622 1.74999,1.1858c-0.33947,0.20588 -0.64739,0.42599 -0.75282,0.75569c-1.05512,3.29962 -1.06801,10.30498 1.02006,13.26868c0.66913,0.94972 1.74275,1.65711 2.93698,2.16639c0.09629,1.41875 0.28506,2.82996 0.95325,4.09752c0.68616,1.30164 2.73077,1.67668 3.66901,2.8506c0.7697,0.96304 0.63041,2.318 1.28319,3.34556c0.16999,0.2676 0.80416,0.00555 1.00488,0.25618c0.13562,0.16934 -0.63439,-0.06356 -0.68936,0.1378c-0.21125,0.77382 -0.04362,1.59247 0,2.38732c0.08598,1.56677 0.25905,3.1289 0.38858,4.69335c0.48704,0.74379 0.97408,1.48759 1.46112,2.23139c0.1673,1.52147 1.06223,5.71211 5.8493,7.01049c1.29842,2.62512 3.29251,5.07981 4.60085,7.51803c0.23986,0.44701 -0.18426,0.99187 -0.09745,1.48016c0.45482,2.55833 3.60297,11.05749 5.0421,12.54842c1.65843,1.71813 3.80495,3.03699 5.48076,4.74205c1.24095,1.26261 0.82984,5.57776 2.66383,5.9338c9.05847,1.75855 17.96972,-0.66146 26.97442,-1.45271c3.95694,-0.3477 7.29375,0.73658 11.05908,0.96081c1.53623,0.09149 4.25664,-1.11755 5.94972,-1.22641c1.7405,-0.1119 4.25777,0.28589 5.83765,0.1775c2.06043,-0.14137 2.50173,-2.92814 4.07378,-4.10702c2.41081,-1.80788 9.47949,-2.92576 12.25691,-3.48943c1.00647,-0.20426 1.90667,-0.9237 2.93762,-0.86701c3.76507,0.20705 7.49609,1.19592 10.93817,2.55247c0.72363,0.28519 0.89666,1.21116 1.58241,1.56124c0.8384,0.42802 2.96183,0.5257 3.93895,1.21258c1.80277,1.26729 3.51385,2.63219 5.26111,3.95816c0.40912,0.31048 2.23279,2.44089 2.74957,2.68945c2.94953,1.41867 5.91855,1.75126 8.72093,3.62732c2.07916,1.39189 4.06878,3.35697 5.69536,5.14359c0.31918,0.35059 1.787,2.97526 2.3137,3.13129c4.62358,1.3697 9.43511,2.48928 13.42132,5.09376c1.73513,1.13369 4.57785,2.82882 6.17068,4.03445c0.02903,0.02198 3.20532,3.63739 3.84782,3.76783c1.57445,0.31965 8.01494,0.74003 10.47377,2.24746c3.21749,1.97254 6.70059,3.8537 9.04353,6.61877c0.61669,0.7278 0.23229,2.46479 1.26466,2.48499c1.04733,0.02049 2.00089,-0.87352 3.03391,-0.72052c4.45666,0.66008 9.16491,1.13814 13.08896,3.10849c5.94004,2.98261 7.71579,8.46886 9.19765,13.67736c1.03146,3.62542 -1.72901,7.9744 2.82035,9.9763c7.78925,3.42758 11.62659,4.69476 20.34428,6.08553c10.62709,1.69539 18.44505,1.63385 28.20293,6.01802c1.94268,0.87283 6.15839,2.20389 7.35588,3.23571c6.91656,5.95968 7.76855,7.28194 10.02578,15.55972c0.18546,0.68009 -1.89625,3.39847 -0.47437,3.86181c2.96429,0.96595 5.96942,1.36098 8.94622,1.61225c1.21422,-0.17698 2.46107,-0.26906 3.73239,-0.26906c3.81431,0 7.40832,0.82884 10.56148,2.29274c3.06742,1.087 5.94866,2.90962 8.54133,6.10019z" fill="url(#color-4)" stroke-width="0.5"/></g></g></svg>