<svg version="1.1" xmlns="http://www.w3.org/2000/svg" xmlns:xlink="http://www.w3.org/1999/xlink" width="41.97818" height="41.97818" viewBox="0,0,41.97818,41.97818"><defs><radialGradient cx="373.5" cy="180" r="19.98909" gradientUnits="userSpaceOnUse" id="color-1"><stop offset="0" stop-color="#ff0000"/><stop offset="1" stop-color="#ff7c00"/></radialGradient><radialGradient cx="370.26393" cy="177.31249" r="13.22967" gradientUnits="userSpaceOnUse" id="color-2"><stop offset="0" stop-color="#29ff00"/><stop offset="1" stop-color="#ffa300"/></radialGradient></defs><g transform="translate(-352.51091,-159.01091)"><g stroke-miterlimit="10"><path d="M353.51091,199.98909v-39.97818h39.97818v39.97818z" fill="url(#color-1)" stroke="#313131" stroke-width="2"/><path d="M372.48188,172.89575l0.40471,-0.9511c0.31448,-1.8819 0.76274,-2.49064 1.7769,-4.01188c1.58871,-2.45588 5.09174,-4.32624 6.64209,-0.433c0.98143,2.46456 0.25581,7.37539 -0.47372,9.88035c-1.10142,3.78191 -3.80253,7.91855 -6.09133,11.08104c-0.87644,1.21099 -2.18234,2.11626 -2.30834,3.25868c-3.17878,-2.82329 -6.27828,-5.67089 -9.3966,-8.49808c-3.11227,-2.9758 -10.05774,-12.00528 -4.62289,-16.66374c3.40199,-2.916 9.14221,3.90877 10.48023,6.05331c0,0 0.56589,0.87171 1.45773,0.56346c0.10063,0.10221 0.2377,0.1996 0.40415,0.28283c1.13982,0.56991 1.72708,-0.56188 1.72708,-0.56188z" fill="url(#color-2)" stroke="none" stroke-width="0.5"/><path d="M380.42129,180.00077c-0.12931,-0.06465 -0.23029,-0.13875 -0.30846,-0.21815c-0.69283,0.23947 -1.11497,-0.43597 -1.11497,-0.43597c-1.03945,-1.666 -5.45692,-6.98466 -8.09978,-4.71935c-4.22211,3.61896 1.18146,10.54369 3.59925,12.85546c2.42249,2.19633 4.76224,4.38523 7.2317,6.57852c0.09789,-0.88749 1.09603,-1.58419 1.77689,-2.52496c1.77807,-2.4568 3.84328,-5.60681 4.69892,-8.54481c0.56674,-1.946 1.14706,-5.72306 0.38463,-7.63767c-1.2044,-3.02449 -3.90751,-1.55726 -5.14172,0.35061c-0.78786,1.18179 -1.07205,1.53929 -1.31636,3.00126l-0.38188,0.85231c0,0 -0.44274,0.88548 -1.32822,0.44274zM380.31159,177.75034c0.30274,-1.27749 0.68612,-1.94031 1.48871,-3.14419c2.22386,-3.25899 6.74807,-4.46124 8.64489,0.05728c0.59793,1.42435 0.27054,3.89137 0.20779,5.37671c-0.26129,6.18466 -5.02119,10.02857 -7.18562,15.23028v0.85812l-0.32785,0c-0.10417,0.29979 -0.19901,0.60445 -0.28329,0.91464l-0.85245,-0.44104l-0.22644,0.22644l-0.7164,-0.7164c-2.71405,-2.38413 -5.25899,-4.81128 -7.91013,-7.17779c-3.29929,-3.15348 -8.89692,-11.48906 -3.44072,-15.89108c3.62327,-2.92324 8.59317,1.86361 10.60151,4.70703z" fill="#ff0000" stroke="#11ff00" stroke-width="0.5"/></g></g></svg>