<svg version="1.1" xmlns="http://www.w3.org/2000/svg" xmlns:xlink="http://www.w3.org/1999/xlink" width="793.34555" height="418.32958" viewBox="0,0,793.34555,418.32958"><defs><linearGradient x1="408.61726" y1="20.03089" x2="408.61726" y2="29.69756" gradientUnits="userSpaceOnUse" id="color-1"><stop offset="0" stop-color="#ab1800"/><stop offset="1" stop-color="#a74300"/></linearGradient><linearGradient x1="408.61726" y1="-4.46911" x2="408.61726" y2="5.19756" gradientUnits="userSpaceOnUse" id="color-2"><stop offset="0" stop-color="#ab1800"/><stop offset="1" stop-color="#a74300"/></linearGradient><linearGradient x1="361.40717" y1="7.03089" x2="361.40717" y2="16.69756" gradientUnits="userSpaceOnUse" id="color-3"><stop offset="0" stop-color="#ab1800"/><stop offset="1" stop-color="#a74300"/></linearGradient><linearGradient x1="451.90718" y1="7.03089" x2="451.90718" y2="16.69756" gradientUnits="userSpaceOnUse" id="color-4"><stop offset="0" stop-color="#ab1800"/><stop offset="1" stop-color="#a74300"/></linearGradient></defs><g transform="translate(17.23903,36.2264)"><g stroke-miterlimit="10"><path d="" fill="#cecece" stroke="#000000" stroke-width="2"/><path d="M337.50001,29.69756v-9.66667h142.23451v9.66667z" fill="url(#color-1)" stroke="#770000" stroke-width="1.5"/><path d="M337.50001,5.19756v-9.66667h142.23451v9.66667z" fill="url(#color-2)" stroke="#770000" stroke-width="1.5"/><path d="M348.51557,16.69756v-9.66667h25.7832v9.66667z" fill="url(#color-3)" stroke="#770000" stroke-width="1.5"/><path d="M439.01558,16.69756v-9.66667h25.7832v9.66667z" fill="url(#color-4)" stroke="#770000" stroke-width="1.5"/><path d="M316.36675,17.25937c-2.38266,3.33685 -5.57022,5.792 -9.26881,7.57899c-2.15575,1.15945 -4.50123,2.01175 -6.97787,2.49834c-15.65364,4.01505 -36.01788,0.47853 -45.84708,0.46955c-12.05003,-0.01101 -24.46772,0.42025 -36.48137,-1.24359c-21.06801,-2.91781 -42.04517,-6.54947 -63.18559,-8.88547c-17.36129,-1.91841 -34.81569,-2.93769 -52.25769,-3.87094c-6.68653,-0.35777 -13.46186,-0.96339 -20.0883,0c-10.21554,1.4852 -20.05573,4.90144 -30.09704,7.29625c-3.87485,0.92414 -9.02642,1.4045 -12.32842,1.87734c-0.91899,0.1316 -2.48482,0.10538 -2.58847,1.02794c-0.72997,6.49723 3.69424,11.77971 4.72096,17.89941c2.45882,14.65564 3.56206,30.48634 7.68765,44.79443c6.13937,21.29212 10.39548,38.14249 4.87184,62.16803c-2.07312,9.0172 -4.42133,14.69414 -8.17664,23.55199c-0.8316,1.96154 -2.0538,3.60856 -2.07692,5.8601c-0.17214,16.76096 1.4781,33.603 -0.15291,50.2853c-0.78835,8.06346 -1.79604,14.9015 -3.1378,23.04064c-1.22542,7.43344 -4.16369,14.66739 -4.70929,22.26763c-0.30042,4.18487 -0.17827,7.7909 -1.28292,11.83663c-0.43107,1.57877 -1.54277,2.97239 -1.71708,4.59965c-0.44924,4.19391 2.36654,8.29271 2,12.49466c-0.02002,0.22956 -0.04125,0.4595 -0.06376,0.68971c0.62793,0.32905 1.22067,0.71784 1.76577,1.18529c2.87323,2.46391 5.9437,4.71937 8.59375,7.42188c0.8468,0.86357 0.77582,2.31114 1.39809,3.34826l0.18466,0.05875c1.49222,0.23407 2.9197,1.7154 4.3561,1.2482c10.18633,-3.31321 19.95418,-7.79907 29.99291,-11.53573c5.98921,-2.22934 14.32741,-2.37579 20.08331,-2.16661c4.25468,0.15463 10.88897,1.29045 14.39117,3.62525c1.17181,0.78121 5.40526,5.73869 6.99487,6.04102c6.46689,1.22995 11.72786,-0.21224 18.16182,2.46858c2.72042,1.13351 5.71677,2.35289 7.89061,4.36665c0.59164,0.54807 0.68022,1.86393 1.4854,1.9098c14.47206,0.82443 30.83357,-4.44876 44.94051,0.50651c2.62582,0.92236 11.88366,-0.94006 15.76024,-0.55241c4.19908,0.41991 8.03698,2.8249 11.77972,4.13485c5.54526,1.94084 31.53893,1.06623 32.4092,1c7.48675,-0.56974 19.02833,-4.23466 25.60554,-7.88324c2.40313,-1.33309 5.28742,-11.58769 7.33452,-14.0753c2.28232,-2.77346 13.38434,-7.9518 13.55221,-7.99427c2.34959,-0.59435 4.80344,0.68133 7.22148,0.84544c2.41804,0.16411 5.02175,-0.76833 7.26949,0.13803c3.51037,1.41549 6.32497,4.17762 9.28457,6.53709c3.02684,2.41308 2.832,7.19321 6.73443,8.43225c1.59621,0.50681 7.46733,-1.09346 9.88275,-0.91672c2.88564,0.21114 6.32185,-0.02023 8.92635,1.28437c1.2753,0.6388 2.28395,1.83033 3.6542,2.2264c2.01692,0.58299 4.04072,-1.21373 6.12451,-1.46998c3.15025,-0.38739 6.32236,-0.57738 9.47469,-0.94747c6.73779,-0.79103 12.06371,-0.68061 18.90576,-1.1766c3.07019,-0.22256 5.62534,-2.59031 8.61329,-3.33046c0.7422,-0.18385 1.48707,0.38301 2.2483,0.45501c3.1278,0.29583 6.17168,0.04976 9.30895,0.62188c6.94884,1.26722 10.92446,4.13128 18.32124,4.25356c18.38407,0.30393 36.78293,1.03737 55.15833,0.39631c6.12895,-0.21382 12.20375,-2.34031 18.45704,-2.39631c5.24446,-0.04696 10.51479,-0.65672 15.73344,-0.13485c3.71091,0.37109 11.84041,4.7563 13.55851,4.89225c0.62626,0.04955 2.83445,-1.14595 3.80236,-1.47448c3.99264,-1.35521 7.98571,-2.71033 12,-4c15.53155,-4.98983 24.31025,-3.0915 39.4831,-5.0935c6.13008,-0.80884 12.98291,-3.38528 19.32884,-1.7988c3.59515,0.89879 7.74224,1.09344 10.54688,3.51563c4.26365,3.68224 4.74413,7.01913 11.10332,7.09375c14.28894,0.16767 47.76789,-6.02069 62.39545,7.24996c2.22799,-0.65089 4.58476,-0.99996 7.02306,-0.99996c0.47282,0 0.94258,0.01313 1.40892,0.03903c0.8991,-0.03241 1.84088,-0.01451 2.85447,0.06364c3.0299,0.2336 6.18233,0.41416 9.10748,-0.40947c1.04177,-0.29333 2.93873,0.68997 3.22759,-0.35305c2.41092,-8.70554 2.07957,-18.10444 4.04176,-26.96164c1.49779,-6.76096 5.05975,-16.59704 5.35978,-23.854c0.49014,-11.85541 -2.0999,-23.054 -0.85773,-35.18784c0.91062,-8.89511 2.55826,-17.73555 2.85773,-26.67214c0.65428,-19.52491 0.52593,-39.07881 0,-58.60759c-0.11959,-4.44073 -4.72702,-14.8999 -5.60938,-20.15069c-0.41391,-2.46317 0.51822,-7.64358 -0.1937,-9.87552c-0.35239,-1.10477 -1.45304,-1.87678 -1.77869,-2.98972c-0.66028,-2.25652 -0.36051,-4.69058 -0.41823,-7.04101c-0.0982,-3.99879 -0.04186,-8.00022 0,-12c0.0608,-5.80956 2.56271,-11.31901 3,-17.06906c0.31275,-4.11249 0.04899,-7.86178 1.28292,-11.83663c0.2466,-0.79437 8.83301,-19.74629 4.00503,-23.61672c-1.86469,-1.49486 -4.23845,-2.24917 -6.15545,-3.67633c-2.12671,-1.58329 -3.89951,-3.7942 -6.10363,-5.21253c-2.87114,-1.84755 -12.56799,-3.38766 -16.8969,-4.55063c-23.68503,-6.36303 -47.36313,-1.77687 -70.59144,3.34022c-16.60549,3.65812 -34.01047,0.13541 -51.00716,0.62168c-2.64925,0.07579 -5.83895,2.25837 -8.62711,2.60938c-10.7461,1.35283 -22.08423,1.58102 -32.63969,0.52548c-18.62617,-1.86262 -37.62263,-19.32442 -27.62724,-39.31519c2.23185,-4.4637 5.80509,-8.41207 9.95749,-11.18034c11.85261,-7.90174 16.13658,0.06209 25.5622,0.36068c5.43315,0.17211 10.88509,0.38061 16.30762,0c4.2388,-0.29752 8.04481,-2.96569 12.53336,-3c15.73116,-0.12025 31.49727,1.03415 47.19486,0c2.54512,-0.16767 25.49947,-5.26971 32.31755,-5.87593c26.66469,-2.37085 47.08558,-0.01543 71.54453,6.87593c1.48899,0.41953 3.39934,-0.24847 4.8474,0.10981c8.47036,2.09573 16.81094,8.01931 23.26491,13.75156c2.57402,2.28618 7.31907,2.65078 10.01305,5.03234c5.54206,4.89934 7.46507,9.99807 10.50692,16.58306c2.27581,4.92666 5.0028,9.15794 5.92015,14.61699c2.96979,17.67293 -0.84284,27.70015 -5.60937,43.96319c-0.50778,1.73252 -0.08275,4.22553 -0.34015,6.05303c-0.61357,4.35622 -1.76763,8.22536 -2.4176,12.54423c-0.24304,1.61496 1.84435,2.74852 2.33952,4.30479c1.71491,5.38973 -1.12731,14.13102 -0.03329,19.26483c1.60508,7.53208 5.40657,14.96038 5.45153,22.77618c0.12272,21.33298 0.04338,42.66671 0,64c-0.0189,9.29646 -2.70924,25.39951 -3,29.33546c-0.77552,10.49796 1.14665,23.22367 1,33.66454c-0.19746,14.05779 -6.96281,27.68444 -8,41.65277c-0.35913,4.83655 -1.69987,9.63666 -2,14.41629c-0.36853,5.86901 -0.24432,10.67155 -2,16.43306c-0.67534,2.21621 0.25264,5.43043 -0.41823,7.53888c-3.78016,11.88052 -15.64375,18.2827 -27.58177,18.95899c-2.05487,0.11641 -8.09981,-1.0343 -9.59738,-0.61053c-8.6404,2.445 -16.55018,1.36159 -25.53665,0.61053c-0.04179,-0.00349 -0.08378,-0.00707 -0.12596,-0.01074c-0.2458,0.00715 -0.49249,0.01074 -0.74002,0.01074c-4.31489,0 -8.37446,-1.09314 -11.91688,-3.01758c-2.24568,0.66221 -4.6229,1.01758 -7.08312,1.01758c-4.32964,0 -8.40222,-1.10063 -11.95321,-3.03735c-13.15204,1.12601 -26.74465,-1.16945 -40.02175,-1.21265c-4.25601,-0.01385 -8.75258,-1.89683 -12.83289,-1.56636c-3.27924,0.26559 -9.01716,5.61639 -12.66711,7.44136c-10.46778,5.23389 -29.64892,5.07829 -40,0c-2.40377,-1.1793 -4.25065,-4.68103 -6.87553,-4.15295c-3.07625,0.61889 -4.39298,4.60852 -7.12447,6.15295c-4.23684,2.39558 -10.18775,3.28076 -15.10246,3.28076c-8.03303,0 -14.40053,-4.52294 -22.08127,-5.4422c-8.34047,-0.99822 -16.25025,-0.89653 -24.72137,-0.71357c-4.27708,0.09238 -8.58471,0.00491 -12.81971,0.61046c-3.8334,0.54813 -7.36082,2.66837 -11.27143,3.05943c-6.70376,0.67038 -13.47534,0.10862 -20.20889,0.3301c-12.05107,0.3964 -24.07795,2.93572 -36.29487,3c-9.67885,0.05092 -19.25612,1.11154 -28.40319,-2.63932c-0.71939,-0.295 -0.97628,-1.21862 -1.55137,-1.74189c-2.3257,-2.11616 -4.93619,-3.92204 -7.13919,-6.16566c-0.36891,-0.37571 0.11324,-1.48995 -0.41215,-1.52494c-1.92186,-0.128 -9.97879,3.82082 -11.86498,4.37861c-12.8642,3.8043 -23.6651,4.869 -37.06967,5.64452c-4.6522,0.26915 -9.86855,0.80735 -14.46571,-0.34194c-2.91634,-0.72908 -5.86643,-1.47012 -8.59375,-2.73437c-1.24774,-0.57839 -1.75061,-2.79268 -3.12254,-2.69674c-10.93542,0.76473 -21.14351,7.73795 -32.37746,7.82174c-18.21947,0.1359 -20.92024,-0.22658 -35.24689,-1c-5.09486,-0.27505 -10.57837,0.818 -15.65936,-0.39062c-2.68346,-0.63832 -5.14778,-2.8459 -7.88546,-2.50901c-3.84168,0.47275 -7.16572,1.22981 -11.14935,0.60493c-2.30374,-0.36137 -4.69954,-2.64333 -6.96064,-2.70529c-11.23658,-0.30791 -23.19297,-0.46589 -34.28276,1.17171c-1.87044,0.2762 -7.31546,4.21375 -9.23018,4.7811c-0.758,0.2246 -1.5651,-0.28246 -2.35565,-0.27578c-4.33083,0.03659 -8.68941,0.6443 -13.03115,0.03226c-4.47979,-0.6315 -8.89607,-2.43665 -13.40799,-2.10519c-6.8383,0.50237 -20.96705,3.71563 -28.61189,1.64946c-2.34464,-0.63369 -8.31024,-3.00052 -10.13723,-5.11599c-1.35714,-1.57142 -2.04126,-5.3191 -4.36367,-5.99751c-1.26052,-0.36822 -2.52018,0.79275 -3.67701,1.41423c-3.06112,1.64451 -5.966,3.56466 -8.93908,5.36345c-2.07918,1.25796 -3.65534,4.78381 -5.60857,6.17601c-3.18294,2.26869 -14.3034,4.46659 -15.54687,4.45313c-2.35079,-0.02546 -4.32059,-1.86956 -6.55088,-2.61299c-3.5328,-1.1776 -6.12279,-2.14361 -8.54922,-3.3076c-3.85549,-1.33694 -7.28239,-3.59099 -10.01968,-6.50113c-0.37113,-0.39456 -0.72958,-0.80119 -1.0747,-1.21922c-0.19234,-0.16461 -0.40124,-0.30511 -0.63649,-0.40787c-1.41142,-0.61656 -3.05799,-0.54198 -4.47847,-1.13739c-8.25075,-3.45841 -13.45513,-17.85718 -13.75258,-25.75822c-0.23142,-6.1471 1.44056,-12.98159 4.41098,-19.20194c-10.60485,-10.65842 -8.48698,-22.30892 -8.45723,-38.15052c0.00804,-4.28059 2.23131,-7.98843 3.01563,-12.15625c1.51325,-8.04131 1.97482,-16.34853 3.6844,-24.35658c1.6224,-7.59966 4.18695,-14.89111 4.29998,-22.8718c0.07487,-5.28609 -2.07234,-36.9679 0.48548,-53.51827c0.75504,-4.8855 1.3984,-10.11487 3.63952,-14.5971c2.55649,-5.11298 6.72357,-10.68974 6.875,-16.57764c0.23871,-9.28136 0.08845,-18.56929 0,-27.8533c-0.05,-5.24872 -3.90604,-10.22022 -4.74874,-15.53353c-2.2664,-14.28995 -4.42164,-29.34157 -7.45879,-43.55498c-0.55634,-2.60358 -2.25079,-5.20537 -2.95081,-7.87686c-1.42118,-5.42367 -1.78922,-10.55059 -2.77815,-16.40658c-0.49823,-2.9503 -2.9239,-6.62578 -3.67289,-9.79087c-1.35789,-5.73817 -1.70177,-22.86107 2.73438,-28.40625c6.46272,-8.0784 15.29214,-15.54991 26.14156,-16.63485c11.95216,-1.19522 15.01277,1.54913 29.00981,-1.44416c3.86839,-0.82726 25.96456,-8.33964 37.72363,-8.42099c27.58541,-0.19085 53.60126,0.35931 81.48137,4.24359c20.88517,2.90974 41.67031,6.63005 62.64428,8.80935c21.28417,2.21153 51.36482,-0.16287 71.87434,0.94706c4.38339,0 8.50329,1.12812 12.08521,3.10986c4.47436,2.05769 8.38758,5.13946 9.50707,9.28157c2.16617,3.70159 3.40772,8.01009 3.40772,12.60856c0,3.13655 -0.57762,6.13819 -1.63228,8.90435c-0.44467,1.99787 -1.0954,3.89822 -2.27397,5.54877z" fill="#909090" stroke="none" stroke-width="0.5"/></g></g></svg>