<svg version="1.1" xmlns="http://www.w3.org/2000/svg" xmlns:xlink="http://www.w3.org/1999/xlink" width="41.97818" height="41.97818" viewBox="0,0,41.97818,41.97818"><defs><linearGradient x1="373.5" y1="160.01091" x2="373.5" y2="199.98909" gradientUnits="userSpaceOnUse" id="color-1"><stop offset="0" stop-color="#ff0000"/><stop offset="1" stop-color="#ff7c00"/></linearGradient></defs><g transform="translate(-352.51091,-159.01091)"><g stroke-miterlimit="10"><path d="M353.51091,199.98909v-39.97818h39.97818v39.97818z" fill="url(#color-1)" stroke="#313131" stroke-width="2"/><path d="M357.1475,172.70562v-7.6h9.3v7.6z" fill="#ffffff" stroke="none" stroke-width="0"/><path d="M371.1475,174.50562v-2.8h4.3v2.8z" fill="#ffffff" stroke="none" stroke-width="0"/><path d="M363.4475,189.20562v-8.8h13.3v8.8z" fill="#ffffff" stroke="none" stroke-width="0"/><path d="M359.8475,194.80562v-1.6h2.3v1.6z" fill="#ffffff" stroke="none" stroke-width="0"/><path d="M375.2475,196.00562v-4.6h9.5v4.6z" fill="#ffffff" stroke="none" stroke-width="0"/><path d="M384.7475,189.00562v-2.3h3.4v2.3z" fill="#ffffff" stroke="none" stroke-width="0"/><path d="M383.8475,177.40562v-7.4h6.5v7.4z" fill="#ffffff" stroke="none" stroke-width="0"/><path d="M374.5475,166.90562v-2.5h11.1v2.5z" fill="#ffffff" stroke="none" stroke-width="0"/><path d="M388.6475,164.50562v-1.3h1.8v1.3z" fill="#ffffff" stroke="none" stroke-width="0"/><path d="M380.5475,184.20562v-1.7h1.6v1.7z" fill="#ffffff" stroke="none" stroke-width="0"/><path d="M356.9475,189.20562v-2.1h2.8v2.1z" fill="#ffffff" stroke="none" stroke-width="0"/><path d="M388.4475,196.70562v-3h1.8v3z" fill="#ffffff" stroke="none" stroke-width="0"/></g></g></svg>