<svg version="1.1" xmlns="http://www.w3.org/2000/svg" xmlns:xlink="http://www.w3.org/1999/xlink" width="41.97818" height="41.97818" viewBox="0,0,41.97818,41.97818"><defs><radialGradient cx="356.24751" cy="163.20562" r="19.98909" gradientUnits="userSpaceOnUse" id="color-1"><stop offset="0" stop-color="#ff4040"/><stop offset="1" stop-color="#a50000"/></radialGradient><radialGradient cx="381.94751" cy="170.60562" r="16.85" gradientUnits="userSpaceOnUse" id="color-2"><stop offset="0" stop-color="#ff4040"/><stop offset="1" stop-color="#ff0000"/></radialGradient><radialGradient cx="386.1475" cy="177.60562" r="2.4" gradientUnits="userSpaceOnUse" id="color-3"><stop offset="0" stop-color="#ff4040"/><stop offset="1" stop-color="#a50000"/></radialGradient><radialGradient cx="366.2475" cy="184.60562" r="10.75" gradientUnits="userSpaceOnUse" id="color-4"><stop offset="0" stop-color="#ff4040"/><stop offset="1" stop-color="#a50000"/></radialGradient></defs><g transform="translate(-352.51102,-159.01095)"><g stroke-miterlimit="10"><path d="M353.51102,199.98913v-39.97818h39.97818v39.97818z" fill="url(#color-1)" stroke="#000000" stroke-width="2"/><path d="M356.65006,180c0,-9.306 7.544,-16.85 16.85,-16.85c9.306,0 16.85,7.544 16.85,16.85c0,9.306 -7.544,16.85 -16.85,16.85c-9.306,0 -16.85,-7.544 -16.85,-16.85z" fill="url(#color-2)" stroke="none" stroke-width="0"/><path d="M384.34752,178.70562c0,-1.32548 1.07452,-2.4 2.4,-2.4c1.32548,0 2.4,1.07452 2.4,2.4c0,1.32548 -1.07452,2.4 -2.4,2.4c-1.32548,0 -2.4,-1.07452 -2.4,-2.4z" fill="url(#color-3)" stroke="none" stroke-width="0"/><path d="M362.7501,180.00004c0,-5.93706 4.81294,-10.75 10.75,-10.75c5.93706,0 10.75,4.81294 10.75,10.75c0,5.93706 -4.81294,10.75 -10.75,10.75c-5.93706,0 -10.75,-4.81294 -10.75,-10.75z" fill="url(#color-4)" stroke="none" stroke-width="0"/></g></g></svg>