<svg version="1.1" xmlns="http://www.w3.org/2000/svg" xmlns:xlink="http://www.w3.org/1999/xlink" width="41.97818" height="41.97818" viewBox="0,0,41.97818,41.97818"><g transform="translate(-352.51102,-159.01095)"><g stroke-miterlimit="10"><path d="M353.51102,199.98913v-39.97818h39.97818v39.97818z" fill="#ffffff" stroke="#000000" stroke-width="2"/><path d="M356.65005,180c0,-9.306 7.544,-16.85 16.85,-16.85c9.306,0 16.85,7.544 16.85,16.85c0,9.306 -7.544,16.85 -16.85,16.85c-9.306,0 -16.85,-7.544 -16.85,-16.85z" fill="#ff0000" stroke="none" stroke-width="0"/><path d="M362.7501,180.00004c0,-5.93706 4.81294,-10.75 10.75,-10.75c5.93706,0 10.75,4.81294 10.75,10.75c0,5.93706 -4.81294,10.75 -10.75,10.75c-5.93706,0 -10.75,-4.81294 -10.75,-10.75z" fill="#ffffff" stroke="none" stroke-width="0"/></g></g></svg>