<svg version="1.1" xmlns="http://www.w3.org/2000/svg" xmlns:xlink="http://www.w3.org/1999/xlink" width="41.97818" height="41.97818" viewBox="0,0,41.97818,41.97818"><defs><radialGradient cx="356.24754" cy="163.20562" r="19.98909" gradientUnits="userSpaceOnUse" id="color-1"><stop offset="0" stop-color="#ff4040"/><stop offset="1" stop-color="#a50000"/></radialGradient><radialGradient cx="373.64751" cy="193.40562" r="16.8" gradientUnits="userSpaceOnUse" id="color-2"><stop offset="0" stop-color="#ff4040"/><stop offset="1" stop-color="#a50000"/></radialGradient><radialGradient cx="373.64751" cy="175.80562" r="12.45" gradientUnits="userSpaceOnUse" id="color-3"><stop offset="0" stop-color="#ff4040"/><stop offset="1" stop-color="#a50000"/></radialGradient><radialGradient cx="383.74751" cy="184.90562" r="6.6" gradientUnits="userSpaceOnUse" id="color-4"><stop offset="0" stop-color="#ff4040"/><stop offset="1" stop-color="#a50000"/></radialGradient><radialGradient cx="369.7475" cy="170.40562" r="5" gradientUnits="userSpaceOnUse" id="color-5"><stop offset="0" stop-color="#ff4040"/><stop offset="1" stop-color="#a50000"/></radialGradient><linearGradient x1="367.3475" y1="179.30562" x2="367.3475" y2="189.70562" gradientUnits="userSpaceOnUse" id="color-6"><stop offset="0" stop-color="#ff4040"/><stop offset="1" stop-color="#a50000"/></linearGradient></defs><g transform="translate(-352.51102,-159.01095)"><g stroke-miterlimit="10"><path d="M353.51102,199.98913v-39.97818h39.97818v39.97818z" fill="url(#color-1)" stroke="#000000" stroke-width="2"/><path d="M356.84751,196.50562v-6.2h33.6v6.2z" fill="url(#color-2)" stroke="none" stroke-width="0"/><path d="M361.19751,178.90562v-6.2h24.9v6.2z" fill="url(#color-3)" stroke="none" stroke-width="0"/><path d="M385.74751,191.50562l-4,0l0,-13.2l4,0z" fill="url(#color-4)" stroke="none" stroke-width="0"/><path d="M374.7475,172.40562h-10l0,-4h10z" fill="url(#color-5)" stroke="none" stroke-width="0"/><path d="M362.14751,184.50562c0,-2.87188 2.32812,-5.2 5.2,-5.2c2.87188,0 5.2,2.32812 5.2,5.2c0,2.87188 -2.32812,5.2 -5.2,5.2c-2.87188,0 -5.2,-2.32812 -5.2,-5.2z" fill="url(#color-6)" stroke="none" stroke-width="0"/></g></g></svg>