<svg version="1.1" xmlns="http://www.w3.org/2000/svg" xmlns:xlink="http://www.w3.org/1999/xlink" width="890.44945" height="721.40915" viewBox="0,0,890.44945,721.40915"><defs><radialGradient cx="21.18929" cy="133.1561" r="247.94004" gradientUnits="userSpaceOnUse" id="color-1"><stop offset="0" stop-color="#ffffff" stop-opacity="0.36078"/><stop offset="1" stop-color="#ffffff" stop-opacity="0"/></radialGradient><radialGradient cx="-38.94263" cy="24.51337" r="81.8719" gradientUnits="userSpaceOnUse" id="color-2"><stop offset="0" stop-color="#ffffff" stop-opacity="0.36078"/><stop offset="1" stop-color="#ffffff" stop-opacity="0"/></radialGradient><radialGradient cx="74.39446" cy="287.71763" r="180.40728" gradientUnits="userSpaceOnUse" id="color-3"><stop offset="0" stop-color="#ffffff" stop-opacity="0.36078"/><stop offset="1" stop-color="#ffffff" stop-opacity="0"/></radialGradient><radialGradient cx="190.74942" cy="95.08713" r="120.99205" gradientUnits="userSpaceOnUse" id="color-4"><stop offset="0" stop-color="#ffffff" stop-opacity="0.36078"/><stop offset="1" stop-color="#ffffff" stop-opacity="0"/></radialGradient><radialGradient cx="489.30463" cy="304.83214" r="174.39409" gradientUnits="userSpaceOnUse" id="color-5"><stop offset="0" stop-color="#ffffff" stop-opacity="0.36078"/><stop offset="1" stop-color="#ffffff" stop-opacity="0"/></radialGradient><radialGradient cx="266.14557" cy="133.1561" r="81.8719" gradientUnits="userSpaceOnUse" id="color-6"><stop offset="0" stop-color="#ffffff" stop-opacity="0.36078"/><stop offset="1" stop-color="#ffffff" stop-opacity="0"/></radialGradient><radialGradient cx="290.39522" cy="259.9645" r="247.94004" gradientUnits="userSpaceOnUse" id="color-7"><stop offset="0" stop-color="#ffffff" stop-opacity="0.36078"/><stop offset="1" stop-color="#ffffff" stop-opacity="0"/></radialGradient><radialGradient cx="405.31684" cy="75.14011" r="247.94004" gradientUnits="userSpaceOnUse" id="color-8"><stop offset="0" stop-color="#ffffff" stop-opacity="0.36078"/><stop offset="1" stop-color="#ffffff" stop-opacity="0"/></radialGradient><radialGradient cx="300.77979" cy="34.43543" r="247.94004" gradientUnits="userSpaceOnUse" id="color-9"><stop offset="0" stop-color="#ffffff" stop-opacity="0.36078"/><stop offset="1" stop-color="#ffffff" stop-opacity="0"/></radialGradient><linearGradient x1="244.37963" y1="-1.52138" x2="244.37963" y2="57.52145" gradientUnits="userSpaceOnUse" id="color-10"><stop offset="0" stop-color="#000000"/><stop offset="1" stop-color="#000000" stop-opacity="0.41961"/></linearGradient><linearGradient x1="50.0995" y1="301.03056" x2="50.0995" y2="358.08762" gradientUnits="userSpaceOnUse" id="color-11"><stop offset="0" stop-color="#000000"/><stop offset="1" stop-color="#8e8e8e"/></linearGradient></defs><g transform="translate(226.75075,213.50461)"><g stroke="none" stroke-miterlimit="10"><g stroke-width="0"><path d="M-226.75075,133.1561c0,-136.9335 111.00653,-247.94004 247.94004,-247.94004c136.9335,0 247.94004,111.00654 247.94004,247.94004c0,136.93351 -111.00653,247.94004 -247.94004,247.94004c-136.9335,0 -247.94004,-111.00653 -247.94004,-247.94004z" fill="url(#color-1)"/><path d="M-120.81452,24.5134c0,-45.2166 36.6553,-81.8719 81.8719,-81.8719c45.2166,0 81.8719,36.6553 81.8719,81.8719c0,45.2166 -36.6553,81.8719 -81.8719,81.8719c-45.2166,0 -81.8719,-36.6553 -81.8719,-81.8719z" fill="url(#color-2)"/><path d="M-106.01282,287.71765c0,-99.63619 80.77109,-180.40729 180.40729,-180.40729c99.63619,0 180.40727,80.77109 180.40727,180.40729c0,99.63619 -80.77108,180.40727 -180.40727,180.40727c-99.63619,0 -180.40729,-80.77108 -180.40729,-180.40727z" fill="url(#color-3)"/><path d="M69.75737,95.08716c0,-66.82206 54.16998,-120.99205 120.99205,-120.99205c66.82206,0 120.99204,54.16998 120.99204,120.99205c0,66.82206 -54.16998,120.99204 -120.99204,120.99204c-66.82206,0 -120.99205,-54.16998 -120.99205,-120.99204z" fill="url(#color-4)"/><path d="M314.91053,304.83214c0,-96.3152 78.07889,-174.39409 174.39409,-174.39409c96.3152,0 174.39409,78.07889 174.39409,174.39409c0,96.3152 -78.07889,174.39409 -174.39409,174.39409c-96.3152,0 -174.39409,-78.07889 -174.39409,-174.39409z" fill="url(#color-5)"/><path d="M184.27368,133.1561c0,-45.21661 36.6553,-81.87191 81.8719,-81.87191c45.21661,0 81.8719,36.6553 81.8719,81.87191c0,45.21661 -36.6553,81.8719 -81.8719,81.8719c-45.21661,0 -81.8719,-36.6553 -81.8719,-81.8719z" fill="url(#color-6)"/><path d="M42.45518,259.9645c0,-136.93351 111.00652,-247.94004 247.94003,-247.94004c136.93351,0 247.94004,111.00653 247.94004,247.94004c0,136.93351 -111.00653,247.94004 -247.94004,247.94004c-136.93351,0 -247.94003,-111.00653 -247.94003,-247.94004z" fill="url(#color-7)"/><path d="M157.3768,75.14011c0,-136.9335 111.00653,-247.94004 247.94003,-247.94004c136.9335,0 247.94003,111.00654 247.94003,247.94004c0,136.9335 -111.00653,247.94004 -247.94003,247.94004c-136.9335,0 -247.94003,-111.00653 -247.94003,-247.94004z" fill="url(#color-8)"/><path d="M52.83979,34.43543c0,-136.9335 111.00653,-247.94004 247.94004,-247.94004c136.9335,0 247.94003,111.00654 247.94003,247.94004c0,136.9335 -111.00653,247.94004 -247.94003,247.94004c-136.9335,0 -247.94003,-111.00654 -247.94003,-247.94004z" fill="url(#color-9)"/><path d="M-81.93694,362.24598v-364.49186h643.87395v364.49186z" fill-opacity="0.10588" fill="#ffffff"/></g><path d="M-40.1549,57.52145v-59.04283h569.06907v59.04283z" fill="url(#color-10)" stroke-width="0"/><path d="M-1.06377,353.08762c0,0 -3,-2.86607 -3,-11.93449c0,-8.53802 0,-18.14187 0,-23.25c0,-6.82556 4,-12.37257 4,-12.37257c0,0 5.42407,-4.5 13.55127,-4.5c12.62412,0 50.35086,0 73,0c10.51139,0 12.77528,4 12.77528,4c0,0 5,5.3439 5,11.87257c0,5.59622 0,16.89887 0,26.25c0,8.2215 -5.5,11.9345 -5.5,11.9345c0,0 -3.75285,3 -11.77528,3c-13.51429,0 -56.21894,0 -78,0c-7.90292,0 -10.05127,-5 -10.05127,-5z" fill="url(#color-11)" stroke-width="0"/><text transform="translate(12.74025,116.97276) scale(0.35093,0.35093)" font-size="40" xml:space="preserve" fill="#ffffff" stroke-width="1" font-family="&quot;OpenSans_Condensed-Bold&quot;, Sans Serif" font-weight="normal" text-anchor="start"><tspan x="0" dy="0">Current name</tspan></text><path d="M221.22641,58.37282v-59.04283h59.72846v59.04283z" fill="#7b0000" stroke-width="0"/><text transform="translate(228.48664,34.11151) scale(0.43481,0.43835)" font-size="40" xml:space="preserve" fill="#ffffff" stroke-width="1" font-family="&quot;OpenSans_Condensed-Bold&quot;, Sans Serif" font-weight="normal" text-anchor="start"><tspan x="0" dy="0">Profile</tspan></text><g stroke-width="0"><path d="M-145.67771,418.44783v-460.96096h148.64865c0,0 -17.05238,54.69971 -26.3694,114.68271c-6.79469,43.74421 -12.66964,91.09689 -12.66964,124.05603c0,33.3204 4.94922,71.8718 12.14943,114.57988c9.09333,53.93709 26.88961,107.64234 26.88961,107.64234z" fill="#000000"/><path d="M478.94693,416.94632c0,0 17.79627,-53.70525 26.8896,-107.64234c7.20021,-42.70808 12.14944,-81.25948 12.14944,-114.57988c0,-32.95914 -5.87495,-80.31181 -12.66964,-124.05602c-9.31702,-59.983 -26.3694,-114.68271 -26.3694,-114.68271h148.64865v460.96096z" fill="#000000"/><path d="M-123.15519,430.45983v-490.99099h15.01502v490.99099z" fill="#500000"/><path d="M-96.12817,428.95834v-490.99099h15.01502v490.99099z" fill="#4f1f1f"/><path d="M-64.59664,428.95834v-490.99099h15.01502v490.99099z" fill="#4f3d3d"/><path d="M588.55653,436.46584v-490.99099h15.01502v490.99099z" fill="#500000"/><path d="M561.52951,434.96433v-490.99099h15.01501v490.99099z" fill="#4f1f1f"/><path d="M529.99798,434.96433v-490.99099h15.01501v490.99099z" fill="#4f3d3d"/></g></g></g></svg>