<svg version="1.1" xmlns="http://www.w3.org/2000/svg" xmlns:xlink="http://www.w3.org/1999/xlink" width="797.97815" height="753.4719" viewBox="0,0,797.97815,753.4719"><defs><linearGradient x1="387.0662" y1="116.81025" x2="304.66324" y2="197.90725" gradientUnits="userSpaceOnUse" id="color-1"><stop offset="0" stop-color="#ffffff" stop-opacity="0"/><stop offset="1" stop-color="#ffffff" stop-opacity="0.26667"/></linearGradient><linearGradient x1="223.56697" y1="280.64099" x2="305.96993" y2="199.54405" gradientUnits="userSpaceOnUse" id="color-2"><stop offset="0" stop-color="#ffffff" stop-opacity="0"/><stop offset="1" stop-color="#ffffff" stop-opacity="0.26667"/></linearGradient></defs><g transform="translate(25.51667,219.73607)"><g stroke="none" stroke-miterlimit="10"><path d="M0,369.50001v-379h772.46148v379z" fill="#000000" stroke-width="NaN"/><path d="M55.57958,-55.18756l82.40296,-81.097l498.16726,506.18961l-82.40296,81.097z" fill="url(#color-1)" stroke-width="0"/><path d="M11.84752,387.56607l157.14121,-431.47247l64.04669,23.32565l-157.14121,431.47248z" fill-opacity="0.09804" fill="#ffffff" stroke-width="0"/><path d="M97.62966,406.53617l152.99592,-432.94718l23.74484,8.87214l-152.99592,432.94719z" fill-opacity="0.09804" fill="#ffffff" stroke-width="0"/><path d="M347.17787,460.59188l247.77376,-680.32795l100.98617,36.77891l-247.77376,680.32797z" fill-opacity="0.03529" fill="#ffffff" stroke-width="0"/><path d="M482.43559,490.50317l241.23765,-682.65321l37.43988,13.98922l-241.23764,682.65323z" fill-opacity="0.03529" fill="#ffffff" stroke-width="0"/><path d="M509.45532,267.30629v-9h21v9z" fill-opacity="0.78039" fill="#ffffff" stroke-width="0"/><path d="M442.45532,316.30629v-9h11v9z" fill-opacity="0.78039" fill="#ffffff" stroke-width="0"/><path d="M399.45532,248.3063v-7h11v7z" fill-opacity="0.78039" fill="#ffffff" stroke-width="0"/><path d="M442.45532,214.97295v-7h11v7z" fill-opacity="0.78039" fill="#ffffff" stroke-width="0"/><path d="M333.45527,233.63964v-7h11v7z" fill-opacity="0.78039" fill="#ffffff" stroke-width="0"/><path d="M358.45527,301.30629v-6h18v6z" fill-opacity="0.78039" fill="#ffffff" stroke-width="0"/><path d="M349.45527,351.30631v-5h18v5z" fill-opacity="0.78039" fill="#ffffff" stroke-width="0"/><path d="M461.45532,350.30631v-6h6v6z" fill-opacity="0.78039" fill="#ffffff" stroke-width="0"/><path d="M397.45532,328.30629v-7h7v7z" fill-opacity="0.78039" fill="#ffffff" stroke-width="0"/><path d="M446.45532,261.30629v-7h7v7z" fill-opacity="0.78039" fill="#ffffff" stroke-width="0"/><path d="M359.45527,205.3063v-11h16v11z" fill-opacity="0.78039" fill="#ffffff" stroke-width="0"/><path d="M281.45532,172.3063v-8h14v8z" fill-opacity="0.78039" fill="#ffffff" stroke-width="0"/><path d="M275.45532,208.30629v-9h9v9z" fill-opacity="0.78039" fill="#ffffff" stroke-width="0"/><path d="M316.45527,186.30629v-5h9v5z" fill-opacity="0.78039" fill="#ffffff" stroke-width="0"/><path d="M321.45527,127.30628v-6h11v6z" fill-opacity="0.78039" fill="#ffffff" stroke-width="0"/><path d="M255.45532,123.30628v-9h16v9z" fill-opacity="0.78039" fill="#ffffff" stroke-width="0"/><path d="M197.45531,135.30623v-6h9v6z" fill-opacity="0.78039" fill="#ffffff" stroke-width="0"/><path d="M236.45532,159.30623v-8h8v8z" fill-opacity="0.78039" fill="#ffffff" stroke-width="0"/><path d="M225.45532,87.30628v-7h8v7z" fill-opacity="0.78039" fill="#ffffff" stroke-width="0"/><path d="M169.45531,22.30629v-7h9v7z" fill-opacity="0.78039" fill="#ffffff" stroke-width="0"/><path d="M171.45531,92.30628v-5h13v5z" fill-opacity="0.78039" fill="#ffffff" stroke-width="0"/><path d="M171.45531,45.30628v-3h13v3z" fill-opacity="0.78039" fill="#ffffff" stroke-width="0"/><path d="M200.45531,67.30625v-19h5v19z" fill-opacity="0.78039" fill="#ffffff" stroke-width="0"/><path d="M555.05355,452.63884l-82.40296,81.09699l-498.16726,-506.18961l82.40296,-81.097z" fill="url(#color-2)" stroke-width="0"/></g></g></svg>