<svg version="1.1" xmlns="http://www.w3.org/2000/svg" xmlns:xlink="http://www.w3.org/1999/xlink" width="41.97818" height="41.97818" viewBox="0,0,41.97818,41.97818"><defs><linearGradient x1="373.5" y1="160.01092" x2="373.5" y2="199.9891" gradientUnits="userSpaceOnUse" id="color-1"><stop offset="0" stop-color="#383838"/><stop offset="1" stop-color="#000000"/></linearGradient><linearGradient x1="360.22603" y1="182.41407" x2="382.55174" y2="170.91926" gradientUnits="userSpaceOnUse" id="color-2"><stop offset="0" stop-color="#4eff00"/><stop offset="1" stop-color="#00ff7d"/></linearGradient><linearGradient x1="360.89685" y1="178.90903" x2="360.89685" y2="185.57569" gradientUnits="userSpaceOnUse" id="color-3"><stop offset="0" stop-color="#4eff00"/><stop offset="1" stop-color="#00ff7d"/></linearGradient><linearGradient x1="385.32537" y1="178.90903" x2="385.32537" y2="185.5757" gradientUnits="userSpaceOnUse" id="color-4"><stop offset="0" stop-color="#4eff00"/><stop offset="1" stop-color="#00ff7d"/></linearGradient></defs><g transform="translate(-352.51091,-159.01092)"><g stroke-miterlimit="10"><path d="M353.51091,199.9891v-39.97818h39.97818v39.97818z" fill="url(#color-1)" stroke="#000000" stroke-width="2"/><path d="M383.20023,172.17879l-22.32571,11.49481l-1.29698,-2.51905l22.32571,-11.49481z" fill="url(#color-2)" stroke="none" stroke-width="0"/><path d="M357.56351,182.24236c0,-1.84095 1.49238,-3.33333 3.33333,-3.33333c1.84095,0 3.33333,1.49238 3.33333,3.33333c0,1.84095 -1.49238,3.33333 -3.33333,3.33333c-1.84095,0 -3.33333,-1.49238 -3.33333,-3.33333z" fill="url(#color-3)" stroke="none" stroke-width="0"/><path d="M381.99204,182.24236c0,-1.84095 1.49238,-3.33333 3.33333,-3.33333c1.84095,0 3.33334,1.49238 3.33334,3.33333c0,1.84095 -1.49239,3.33334 -3.33334,3.33334c-1.84095,0 -3.33333,-1.49239 -3.33333,-3.33334z" fill="url(#color-4)" stroke="none" stroke-width="0"/></g></g></svg>