<svg version="1.1" xmlns="http://www.w3.org/2000/svg" xmlns:xlink="http://www.w3.org/1999/xlink" width="92.48316" height="43.04445" viewBox="0,0,92.48316,43.04445"><defs><radialGradient cx="293.2462" cy="180" r="14.57574" gradientUnits="userSpaceOnUse" id="color-1"><stop offset="0" stop-color="#313131"/><stop offset="1" stop-color="#313131" stop-opacity="0"/></radialGradient></defs><g transform="translate(-273.75842,-158.47779)"><g stroke-miterlimit="10"><path d="M274.75842,200.52224v-41.04445h90.48316v41.04445z" fill="#000000" stroke="#ffffff" stroke-width="2"/><path d="M278.67046,193.52274v-27.04548h29.15148v27.04548z" fill="url(#color-1)" stroke="none" stroke-width="0"/><g stroke="none" stroke-width="0"><path d="M282.91602,189.72058l-3.82456,-8.80103l24.48491,-10.64012l3.82456,8.80103z" fill-opacity="0.37255" fill="#0090ff"/><path d="M280.80509,183.39918l-0.88421,-2.03473l1.84976,-0.80383l0.88421,2.03473z" fill-opacity="0.37255" fill="#ffffff"/><path d="M282.90298,182.48752l-0.88421,-2.03473l1.84976,-0.80383l0.88421,2.03473z" fill-opacity="0.37255" fill="#ffffff"/><path d="M284.99937,181.57652l-0.88421,-2.03473l1.84976,-0.80383l0.88421,2.03473z" fill-opacity="0.37255" fill="#ffffff"/><path d="M287.09725,180.66486l-0.88421,-2.03473l1.84976,-0.80383l0.88421,2.03473z" fill-opacity="0.37255" fill="#ffffff"/><path d="M289.13049,179.78131l-0.88421,-2.03473l1.84976,-0.80383l0.88421,2.03473z" fill-opacity="0.37255" fill="#ffffff"/><path d="M291.22837,178.86965l-0.88421,-2.03473l1.84976,-0.80383l0.88421,2.03473z" fill-opacity="0.37255" fill="#ffffff"/><path d="M293.32476,177.95865l-0.88421,-2.03473l1.84976,-0.80383l0.88421,2.03473z" fill-opacity="0.37255" fill="#ffffff"/><path d="M295.42265,177.04699l-0.88421,-2.03473l1.84976,-0.80383l0.88421,2.03473z" fill-opacity="0.37255" fill="#ffffff"/><path d="M297.51754,176.13664l-0.88421,-2.03473l1.84976,-0.80383l0.88421,2.03473z" fill-opacity="0.37255" fill="#ffffff"/><path d="M299.61543,175.22499l-0.88421,-2.03473l1.84976,-0.80383l0.88421,2.03473z" fill-opacity="0.37255" fill="#ffffff"/><path d="M301.71182,174.31398l-0.88421,-2.03473l1.84976,-0.80383l0.88421,2.03473z" fill-opacity="0.37255" fill="#ffffff"/><path d="M282.61616,185.65419l-0.88421,-2.03473l1.84976,-0.80383l0.88421,2.03473z" fill-opacity="0.37255" fill="#ffffff"/><path d="M284.71406,184.74254l-0.88421,-2.03473l1.84976,-0.80383l0.88421,2.03473z" fill-opacity="0.37255" fill="#ffffff"/><path d="M286.81045,183.83154l-0.88421,-2.03473l1.84976,-0.80383l0.88421,2.03473z" fill-opacity="0.37255" fill="#ffffff"/><path d="M288.90833,182.91988l-0.88421,-2.03473l1.84976,-0.80383l0.88421,2.03473z" fill-opacity="0.37255" fill="#ffffff"/><path d="M290.94157,182.03633l-0.88421,-2.03473l1.84976,-0.80383l0.88421,2.03473z" fill-opacity="0.37255" fill="#ffffff"/><path d="M293.03945,181.12467l-0.88421,-2.03473l1.84976,-0.80383l0.88421,2.03473z" fill-opacity="0.37255" fill="#ffffff"/><path d="M295.13584,180.21367l-0.88421,-2.03473l1.84976,-0.80383l0.88421,2.03473z" fill-opacity="0.37255" fill="#ffffff"/><path d="M297.23373,179.30201l-0.88421,-2.03473l1.84976,-0.80383l0.88421,2.03473z" fill-opacity="0.37255" fill="#ffffff"/><path d="M299.32862,178.39165l-0.88421,-2.03473l1.84976,-0.80383l0.88421,2.03473z" fill-opacity="0.37255" fill="#ffffff"/><path d="M301.42651,177.48l-0.88421,-2.03473l1.84976,-0.80383l0.88421,2.03473z" fill-opacity="0.37255" fill="#ffffff"/><path d="M303.52289,176.569l-0.88421,-2.03473l1.84976,-0.80383l0.88421,2.03473z" fill-opacity="0.37255" fill="#ffffff"/><path d="M283.15388,188.5743l-0.88421,-2.03473l1.84976,-0.80383l0.88421,2.03473z" fill-opacity="0.37255" fill="#ffffff"/><path d="M285.25177,187.66264l-0.88421,-2.03473l1.84976,-0.80383l0.88421,2.03473z" fill-opacity="0.37255" fill="#ffffff"/><path d="M287.34816,186.75164l-0.88421,-2.03473l1.84976,-0.80383l0.88421,2.03473z" fill-opacity="0.37255" fill="#ffffff"/><path d="M289.44604,185.83999l-0.88421,-2.03473l1.84976,-0.80383l0.88421,2.03473z" fill-opacity="0.37255" fill="#ffffff"/><path d="M291.47928,184.95643l-0.88421,-2.03473l1.84976,-0.80383l0.88421,2.03473z" fill-opacity="0.37255" fill="#ffffff"/><path d="M293.57716,184.04477l-0.88421,-2.03473l1.84976,-0.80383l0.88421,2.03473z" fill-opacity="0.37255" fill="#ffffff"/><path d="M295.67355,183.13377l-0.88421,-2.03473l1.84976,-0.80383l0.88421,2.03473z" fill-opacity="0.37255" fill="#ffffff"/><path d="M297.77144,182.22212l-0.88421,-2.03473l1.84976,-0.80383l0.88421,2.03473z" fill-opacity="0.37255" fill="#ffffff"/><path d="M299.86633,181.31176l-0.88421,-2.03473l1.84976,-0.80383l0.88421,2.03473z" fill-opacity="0.37255" fill="#ffffff"/><path d="M301.96422,180.40011l-0.88421,-2.03473l1.84976,-0.80383l0.88421,2.03473z" fill-opacity="0.37255" fill="#ffffff"/><path d="M304.06061,179.4891l-0.88421,-2.03473l1.84976,-0.80383l0.88421,2.03473z" fill-opacity="0.37255" fill="#ffffff"/></g><text transform="translate(310.62189,184.12729) scale(0.34394,0.34394)" font-size="40" xml:space="preserve" fill="#ffffff" stroke="#ffffff" stroke-width="0" font-family="&quot;OpenSans_Condensed-Bold&quot;, Sans Serif" font-weight="normal" text-anchor="start"><tspan x="0" dy="0">Keyboard</tspan></text></g></g></svg>