<svg version="1.1" xmlns="http://www.w3.org/2000/svg" xmlns:xlink="http://www.w3.org/1999/xlink" width="54.03828" height="77.56886" viewBox="0,0,54.03828,77.56886"><defs><linearGradient x1="321.20009" y1="169.95924" x2="321.20009" y2="220.66836" gradientUnits="userSpaceOnUse" id="color-1"><stop offset="0" stop-color="#000000"/><stop offset="1" stop-color="#00b5ff"/></linearGradient><linearGradient x1="320.97021" y1="179.46917" x2="320.97021" y2="210.49317" gradientUnits="userSpaceOnUse" id="color-2"><stop offset="0" stop-color="#000000"/><stop offset="1" stop-color="#00b5ff"/></linearGradient><linearGradient x1="321.33206" y1="186.10286" x2="321.33206" y2="209.88268" gradientUnits="userSpaceOnUse" id="color-3"><stop offset="0" stop-color="#003f58"/><stop offset="1" stop-color="#00ffe4"/></linearGradient></defs><g transform="translate(-294.1809,-168.45924)"><g stroke-miterlimit="10"><path d="M294.1809,246.0281v-16.67138h54.03828v16.67138z" fill="#ff6f00" stroke="none" stroke-width="0"/><text transform="translate(309.22767,241.72631) scale(0.33616,0.33616)" font-size="40" xml:space="preserve" fill="#ffffff" stroke="none" stroke-width="1" font-family="&quot;OpenSans-Bold&quot;, Sans Serif" font-weight="normal" text-anchor="start"><tspan x="0" dy="0">50C</tspan></text><path d="M295.84554,195.3138c0,-14.00294 11.35163,-25.35456 25.35456,-25.35456c14.00293,0 25.35456,11.35162 25.35456,25.35456c0,14.00294 -11.35162,25.35456 -25.35456,25.35456c-14.00293,0 -25.35456,-11.35162 -25.35456,-25.35456z" fill="url(#color-1)" stroke="#000000" stroke-width="3"/><path d="M310.8126,210.49317c-4.90245,-6.23085 -4.09454,-31.02399 -4.09454,-31.02399c0,0 10.75627,3.62209 14.01592,3.62209c3.49558,0 14.01591,-3.62209 14.01591,-3.62209c0,0 3.82433,21.37304 -3.62209,31.02399c-7.44642,9.65095 -15.41276,6.23085 -20.3152,0z" fill="url(#color-2)" stroke="#000000" stroke-width="3"/><path d="M315.65769,209.88268l-2.28734,-23.77981c0,0 5.74487,0 7.56582,0c1.95275,0 8.09367,0 8.09367,0l-2.02342,23.77981z" fill="url(#color-3)" stroke="#000000" stroke-width="3"/></g></g></svg>