<svg version="1.1" xmlns="http://www.w3.org/2000/svg" xmlns:xlink="http://www.w3.org/1999/xlink" width="759.70043" height="512.73498" viewBox="0,0,759.70043,512.73498"><defs><radialGradient cx="731.20342" cy="-3.93392" r="377.06681" gradientUnits="userSpaceOnUse" id="color-1"><stop offset="0" stop-color="#720000"/><stop offset="1" stop-color="#000000"/></radialGradient><linearGradient x1="196.91875" y1="-60.51871" x2="196.91875" y2="393.4813" gradientUnits="userSpaceOnUse" id="color-2"><stop offset="0" stop-color="#ba0000" stop-opacity="0.74902"/><stop offset="1" stop-color="#ba0000" stop-opacity="0"/></linearGradient><linearGradient x1="253.91875" y1="-115.51871" x2="253.91875" y2="338.4813" gradientUnits="userSpaceOnUse" id="color-3"><stop offset="0" stop-color="#bb0000" stop-opacity="0.33725"/><stop offset="1" stop-color="#bb0000" stop-opacity="0"/></linearGradient><linearGradient x1="322.45939" y1="-60.51872" x2="322.45939" y2="194.48129" gradientUnits="userSpaceOnUse" id="color-4"><stop offset="0" stop-color="#bb0000" stop-opacity="0.33725"/><stop offset="1" stop-color="#bb0000" stop-opacity="0"/></linearGradient><linearGradient x1="139.91876" y1="-69.51871" x2="139.91876" y2="278.4813" gradientUnits="userSpaceOnUse" id="color-5"><stop offset="0" stop-color="#bb0000" stop-opacity="0.33725"/><stop offset="1" stop-color="#bb0000" stop-opacity="0"/></linearGradient><linearGradient x1="338.41876" y1="-74.51871" x2="338.41876" y2="379.4813" gradientUnits="userSpaceOnUse" id="color-6"><stop offset="0" stop-color="#bb0000" stop-opacity="0.33725"/><stop offset="1" stop-color="#bb0000" stop-opacity="0"/></linearGradient></defs><g transform="translate(8.13361,115.5187)"><g stroke-miterlimit="10"><path d="M-7.13361,396.21628v-432.43243h754.13363v432.43243z" fill="url(#color-1)" stroke="#000000" stroke-width="2"/><path d="M139.91876,393.4813v-454h114v454z" fill="url(#color-2)" stroke="none" stroke-width="0"/><path d="M221.41875,338.4813v-454h65v454z" fill="url(#color-3)" stroke="none" stroke-width="0"/><path d="M271.41875,194.48129v-255h102.08127v255z" fill="url(#color-4)" stroke="none" stroke-width="0"/><path d="M114.91876,278.4813v-348h50v348z" fill="url(#color-5)" stroke="none" stroke-width="0"/><path d="M326.41875,379.4813v-454h24v454z" fill="url(#color-6)" stroke="none" stroke-width="0"/><path d="M-3.56682,396.21622v-432.43243h754.13363v432.43243z" fill-opacity="0.58039" fill="#000000" stroke="#000000" stroke-width="2"/></g></g></svg>