<svg version="1.1" xmlns="http://www.w3.org/2000/svg" xmlns:xlink="http://www.w3.org/1999/xlink" width="41.97818" height="41.97818" viewBox="0,0,41.97818,41.97818"><defs><radialGradient cx="373.5" cy="166.85347" r="17.05556" gradientUnits="userSpaceOnUse" id="color-1"><stop offset="0" stop-color="#000000"/><stop offset="1" stop-color="#ffffff"/></radialGradient></defs><g transform="translate(-352.51091,-159.01091)"><g stroke-miterlimit="10"><path d="M353.51091,199.98909v-39.97818h39.97818v39.97818z" fill="#000000" stroke="#313131" stroke-width="2"/><path d="M356.44445,169.68681v-5.66666h34.11111v5.66666z" fill="url(#color-1)" stroke="#313131" stroke-width="2"/><path d="M382.70251,173.46214c0.18084,0.91124 -0.73039,1.09207 -0.73039,1.09207l-0.75894,0.14904c-5.14169,0.65953 -9.44352,4.39302 -14.97418,4.41055c0,0 -0.92901,0 -0.92901,-0.92901c0,-0.92901 0.92901,-0.92901 0.92901,-0.92901c5.40886,0.01996 9.65068,-3.64386 14.71843,-4.39286l0.653,-0.13118c0,0 0.91124,-0.18084 1.09208,0.7304z" fill="#ff0000" stroke="none" stroke-width="0.5"/><path d="M369.83504,182.25157c-0.90127,0.22532 -1.12658,-0.67595 -1.12658,-0.67595l0.00767,-0.23586c-0.22938,-0.32114 -0.45877,-0.64228 -0.68815,-0.96342c0,0 -0.53998,-0.75596 0.21599,-1.29593c0.75596,-0.53998 1.29594,0.21599 1.29594,0.21599c0.22938,0.32114 0.45877,0.64227 0.68815,0.96341l0.28294,0.86518c0,0 0.22531,0.90127 -0.67596,1.12658z" fill="#ff0000" stroke="none" stroke-width="0.5"/><path d="M374.28918,182.55457c-0.92901,0 -0.92901,-0.92901 -0.92901,-0.92901c0,-0.41289 0,-1.92682 0,-2.33972c0,0 0,-0.92901 0.92901,-0.92901c0.92901,0 0.92901,0.92901 0.92901,0.92901c0,0.41289 0,0.82578 0,1.23868v1.10104c0,0 0,0.92901 -0.92901,0.92901z" fill="#ff0000" stroke="none" stroke-width="0.5"/><path d="M378.19278,182.11394c-0.90127,-0.22532 -0.67595,-1.12659 -0.67595,-1.12659l0.26592,-0.84052c0.31355,-0.43931 0.48723,-0.98952 0.5393,-1.52674c0,0 0.11523,-0.92184 1.03706,-0.80661c0.92184,0.11523 0.8066,1.03706 0.8066,1.03706c-0.11758,0.81587 -0.394,1.6318 -0.837,2.32692l-0.00934,0.26052c0,0 -0.22532,0.90127 -1.12659,0.67595z" fill="#ff0000" stroke="none" stroke-width="0.5"/><path d="M381.44597,187.09639c-0.92901,0 -0.92901,-0.92901 -0.92901,-0.92901l0.00461,-0.7806c0.407,-2.11349 -2.26947,-0.74878 -3.89268,-0.76775c-2.33243,-0.02726 -4.85564,1.42878 -7.33069,1.64602c-0.75111,0.06593 -1.36735,-0.03291 -1.96224,-0.17748c0.10532,0.19172 0.21486,0.3849 0.32775,0.5823l0.12556,0.07928c0,0 0.65691,0.65691 0,1.31381c-0.65691,0.65691 -1.31381,0 -1.31381,0l-0.42496,-0.47125c-0.39206,-0.6866 -0.74328,-1.33837 -1.03519,-2.03092c-0.21739,-0.05108 -0.82655,-0.26301 -0.73161,-1.02258c0.03473,-0.27779 0.14269,-0.4614 0.27661,-0.58238c0.0298,-0.27177 0.17348,-0.60567 0.66527,-0.74618c0.89327,-0.25522 1.14848,0.63804 1.14848,0.63804c0.003,0.01066 0.00601,0.02129 0.00904,0.03191c2.27446,0.32764 4.17672,0.61806 6.6671,-0.11336c1.66345,-0.48856 6.17951,-2.1956 8.00139,-1.37044c1.87676,0.85002 1.39668,1.60227 1.31878,3.17586l0.00461,0.59572c0,0 0,0.92901 -0.92901,0.92901z" fill="#ff0000" stroke="none" stroke-width="0.5"/><path d="M377.78499,197.45998c-0.5574,0.74321 -1.30061,0.1858 -1.30061,0.1858l-0.19465,-0.24921c-0.6865,-0.15792 -1.27393,-0.36933 -1.80266,-0.63954c-0.12622,0.07975 -0.24335,0.15158 -0.34811,0.2148l-0.769,0.64443c0,0 -0.71368,0.59474 -1.30842,-0.11895c-0.59474,-0.71368 0.11895,-1.30842 0.11895,-1.30842l0.69019,-0.57235c-0.40557,-0.37049 -0.80014,-0.79414 -1.2137,-1.27489c0,0 -0.12186,-0.14217 -0.19233,-0.35356c-0.2638,1.07178 -0.70939,2.09435 -1.61092,3.02086l-0.79454,0.2721c0,0 -0.92901,0 -0.92901,-0.92901c0,-0.57101 0.35096,-0.79105 0.62146,-0.87584c1.05257,-1.17067 1.27161,-2.7438 1.44384,-4.33654c-0.36915,0.05336 -0.74721,0.08411 -1.13629,0.08564c0,0 -0.92901,0 -0.92901,-0.92901c0,-0.92901 0.92901,-0.92901 0.92901,-0.92901c0.47446,0.00215 0.92886,-0.03779 1.3683,-0.10863c0.08636,-0.51634 0.20224,-1.01796 0.37683,-1.49065c0,0 0.3262,-0.86986 1.19605,-0.54366c0.86985,0.3262 0.54366,1.19605 0.54366,1.19605c-0.03936,0.10309 -0.07632,0.20643 -0.11109,0.30999c1.96215,-0.68334 3.76344,-1.67525 5.98514,-1.70282l0.32521,-0.10989c0,0 0.90127,-0.22532 1.12659,0.67595c0.22532,0.90127 -0.67595,1.12659 -0.67595,1.12659l-0.77584,0.16537c-2.28647,-0.03606 -4.25509,1.12934 -6.43975,1.82868c-0.12556,0.81939 -0.20378,1.63723 -0.34111,2.43533c0.03508,-0.03957 0.07508,-0.07893 0.12052,-0.11788c0.07849,-0.06727 0.15573,-0.11833 0.23102,-0.15594c-0.11308,-0.85778 0.7579,-1.01614 0.7579,-1.01614c0.77105,-0.13991 3.94902,-1.00625 4.57445,-0.11844c0.9425,1.3379 0.0484,2.68991 -1.09671,3.72456c0.14883,0.04325 0.30462,0.08224 0.46838,0.11705l0.9064,0.57657c0,0 0.74321,0.5574 0.1858,1.30061zM375.67106,193.1664c-0.34862,0.10126 -0.85693,0.21294 -1.10979,0.25122c-0.35992,0.05449 -0.71725,0.12458 -1.07479,0.19331c0.26404,0.29199 0.52027,0.55318 0.78591,0.78453c0.51876,-0.4664 1.0768,-0.96629 1.39867,-1.22906z" fill="#ff0000" stroke="none" stroke-width="0.5"/></g></g></svg>