<svg version="1.1" xmlns="http://www.w3.org/2000/svg" xmlns:xlink="http://www.w3.org/1999/xlink" width="79.58139" height="34.38899" viewBox="0,0,79.58139,34.38899"><defs><linearGradient x1="320" y1="164.55552" x2="320" y2="195.4445" gradientUnits="userSpaceOnUse" id="color-1"><stop offset="0" stop-color="#000000"/><stop offset="1" stop-color="#292929"/></linearGradient></defs><g transform="translate(-280.2093,-162.80551)"><g stroke-miterlimit="10"><path d="M281.9593,195.4445c0,0 0,-14.39324 0,-20.05727c0,-4.16235 4.00059,-8.09447 4.00059,-8.09447c0,0 3.08688,-2.73725 9.07611,-2.73725c13.14646,0 63.00469,0 63.00469,0c0,0 0,14.43028 0,20.09624c0,4.15224 -4.4217,8.0555 -4.4217,8.0555c0,0 -2.94767,2.73725 -9.10201,2.73725c-13.23652,0 -62.55769,0 -62.55769,0z" fill="url(#color-1)" stroke-opacity="0.40392" stroke="#ffffff" stroke-width="3.5" stroke-linecap="butt"/><path d="M332.31393,180.20429c0,-6.11343 4.95591,-11.06934 11.06934,-11.06934c6.11343,0 11.06934,4.95592 11.06934,11.06934c0,6.11343 -4.95591,11.06934 -11.06934,11.06934c-6.11343,0 -11.06934,-4.95591 -11.06934,-11.06934z" fill="#00e6ff" stroke="#000000" stroke-width="0" stroke-linecap="butt"/><path d="M347.76474,175.70166l-1.59811,2.58673l-4.03023,6.41851l-3.13462,-4.03023" fill="none" stroke="#000000" stroke-width="3.5" stroke-linecap="round"/><text transform="translate(286.39086,186.83302) scale(0.47526,0.47526)" font-size="40" xml:space="preserve" fill="#ffffff" stroke="none" stroke-width="1" stroke-linecap="butt" font-family="&quot;OpenSans-Medium&quot;, Sans Serif" font-weight="normal" text-anchor="start"><tspan x="0" dy="0">next</tspan></text></g></g></svg>