<svg version="1.1" xmlns="http://www.w3.org/2000/svg" xmlns:xlink="http://www.w3.org/1999/xlink" width="540.3376" height="443.21169" viewBox="0,0,540.3376,443.21169"><defs><linearGradient x1="408.61726" y1="20.03088" x2="408.61726" y2="29.69755" gradientUnits="userSpaceOnUse" id="color-1"><stop offset="0" stop-color="#ab1800"/><stop offset="1" stop-color="#a74300"/></linearGradient><linearGradient x1="408.61726" y1="-4.46912" x2="408.61726" y2="5.19755" gradientUnits="userSpaceOnUse" id="color-2"><stop offset="0" stop-color="#ab1800"/><stop offset="1" stop-color="#a74300"/></linearGradient><linearGradient x1="361.40717" y1="7.03088" x2="361.40717" y2="16.69755" gradientUnits="userSpaceOnUse" id="color-3"><stop offset="0" stop-color="#ab1800"/><stop offset="1" stop-color="#a74300"/></linearGradient><linearGradient x1="451.90718" y1="7.03088" x2="451.90718" y2="16.69755" gradientUnits="userSpaceOnUse" id="color-4"><stop offset="0" stop-color="#ab1800"/><stop offset="1" stop-color="#a74300"/></linearGradient><radialGradient cx="407.95011" cy="205.29494" r="270.1688" gradientUnits="userSpaceOnUse" id="color-5"><stop offset="0" stop-color="#121212"/><stop offset="1" stop-color="#000000"/></radialGradient><linearGradient x1="386.45011" y1="154.43079" x2="386.45011" y2="429.99256" gradientUnits="userSpaceOnUse" id="color-6"><stop offset="0" stop-color="#696969" stop-opacity="0.12157"/><stop offset="1" stop-color="#333333" stop-opacity="0.04706"/></linearGradient></defs><g transform="translate(-103.3312,5.21913)"><g stroke-miterlimit="10"><path d="" fill="#cecece" stroke="#000000" stroke-width="2"/><path d="M337.50001,29.69755v-9.66667h142.23451v9.66667z" fill="url(#color-1)" stroke="#770000" stroke-width="1.5"/><path d="M337.50001,5.19755v-9.66667h142.23451v9.66667z" fill="url(#color-2)" stroke="#770000" stroke-width="1.5"/><path d="M348.51557,16.69755v-9.66667h25.7832v9.66667z" fill="url(#color-3)" stroke="#770000" stroke-width="1.5"/><path d="M439.01558,16.69755v-9.66667h25.7832v9.66667z" fill="url(#color-4)" stroke="#770000" stroke-width="1.5"/><path d="M107.23745,334.84182c2.86289,-4.00939 6.04442,-6.29977 9.43153,-7.66573c3.4818,-1.83959 7.45037,-2.88114 11.66222,-2.88114c1.40383,0 2.78063,0.11571 4.12139,0.33811c3.28705,-0.31575 6.60538,-0.81217 9.87861,-2.02602c1.57008,-0.58225 -0.72859,-3.99827 -0.52381,-4.8529c2.49248,-10.40217 3.43327,-12.06378 11.07069,-19.55294c1.32229,-1.29662 5.97738,-2.96928 8.12253,-4.06612c10.77487,-5.50932 19.40764,-5.43198 31.14231,-7.56247c9.62627,-1.7477 13.86355,-3.34008 22.46462,-7.64731c5.02351,-2.51566 1.97533,-7.98076 3.11429,-12.53661c1.6363,-6.54521 3.59713,-13.43943 10.15625,-17.1875c4.33302,-2.47601 9.53197,-3.07677 14.45313,-3.90625c1.14068,-0.19226 2.19363,0.93118 3.35012,0.90543c1.13997,-0.02538 0.71551,-2.20815 1.39647,-3.12274c2.58713,-3.47469 6.43325,-5.83863 9.98606,-8.31739c2.7151,-1.89429 9.82683,-2.42257 11.56537,-2.82425c0.70946,-0.16392 4.21679,-4.70718 4.24886,-4.7348c1.75884,-1.51504 4.89783,-3.64521 6.81381,-5.06985c4.40166,-3.27289 9.71466,-4.6798 14.82012,-6.40102c0.58159,-0.19608 2.20239,-3.49434 2.55484,-3.93489c1.79611,-2.24514 3.99309,-4.71454 6.28894,-6.46364c3.09445,-2.35753 6.37291,-2.77547 9.62984,-4.55822c0.57065,-0.31235 2.58437,-2.9895 3.03614,-3.37966c1.92937,-1.66627 3.81878,-3.38144 5.80944,-4.97397c1.07896,-0.86317 3.4237,-0.98591 4.34948,-1.52377c0.75722,-0.43993 0.94828,-1.60353 1.74733,-1.96191c3.80082,-1.70469 7.9207,-2.94735 12.07817,-3.20754c1.1384,-0.07125 2.13242,0.83284 3.24379,1.08952c3.06689,0.70833 10.87228,2.1131 13.53436,4.38495c1.73589,1.48143 2.22319,4.98339 4.49836,5.16103c1.74453,0.13621 4.52416,-0.36368 6.44606,-0.22305c1.86953,0.1368 4.87347,1.65612 6.56981,1.54116c4.15776,-0.28178 7.84234,-1.64433 12.21168,-1.2074c9.9432,0.99432 19.7832,4.03539 29.78576,1.82552c2.02513,-0.44742 1.57117,-5.87 2.94146,-7.45664c1.85047,-2.14265 4.2207,-3.79997 6.05198,-5.95904c1.58912,-1.87356 5.06538,-12.55393 5.56761,-15.76882c0.09585,-0.6136 -0.37247,-1.29829 -0.1076,-1.86002c1.4447,-3.06396 3.64662,-6.14862 5.08036,-9.44745c5.286,-1.6316 6.27419,-6.89771 6.45893,-8.80965c0.5378,-0.93469 1.0756,-1.86937 1.6134,-2.80406c0.14303,-1.96595 0.33414,-3.92898 0.42908,-5.89784c0.04816,-0.99884 0.23327,-2.02759 0,-3c-0.0607,-0.25304 -0.91097,0.03964 -0.76121,-0.17317c0.22164,-0.31495 0.9219,0.01435 1.10962,-0.32192c0.72082,-1.29128 0.567,-2.99396 1.41693,-4.20416c1.03602,-1.47519 3.29373,-1.94649 4.0514,-3.58217c0.73784,-1.59287 0.94628,-3.36624 1.0526,-5.1491c1.3187,-0.63998 2.50422,-1.52892 3.24308,-2.72237c2.30569,-3.7243 2.29147,-12.5275 1.12637,-16.67393c-0.11642,-0.41432 -0.45642,-0.69092 -0.83128,-0.94962c0.6361,-0.5147 1.2629,-1.05027 1.93238,-1.49012c0.17777,-0.23774 0.40873,-0.44855 0.60012,-0.67939c1.18665,0.51217 2.72419,-0.05402 4.06,-0.05402c2.53431,0 5.06851,-0.05804 7.60182,-0.12913l4.56045,-1.38405c0,0 6.3422,-2.11406 6.92686,-8.07073c2.55852,1.56695 4.80896,3.55797 7.00462,6.13078c1.17137,1.37257 6.12922,14.9676 6.66447,16.94133c0.72382,2.66907 0.21253,5.78409 1.68845,8.12278c0.30392,0.48157 2.24242,-1.15923 2.64763,-1.32807c1.44541,-0.60225 2.84859,-1.52294 4.41184,-1.61338c1.77197,-0.10251 3.44851,0.9304 5.21897,1.05622c1.76499,0.12543 3.56509,-0.65476 5.29978,-0.31076c0.01875,0.03804 0.03773,0.07595 0.05695,0.11371c-0.41389,1.23452 -0.81788,2.47007 -0.93373,3.75656c-0.47802,5.30831 -1.65513,10.86409 -0.18896,15.98824c0.81365,2.84366 4.24838,4.12179 6.49384,6.04698c3.68547,3.15978 7.26532,6.52448 11.20712,9.41292c0.16939,0.12412 0.33384,0.25779 0.49487,0.39801c-0.63446,1.91989 -1.11504,3.88732 -1.10631,5.8832c0.00784,1.79452 -0.05606,3.78913 0.20572,5.64664c-0.37295,3.09215 -0.53547,6.2183 -0.25438,9.41291c0.02251,0.25579 0.46971,-0.21091 0.71523,-0.2861c1.48162,-0.45373 3.65934,-1.16277 5.37852,-1.39745c0.31783,-0.04339 0.63752,-0.0751 0.95857,-0.09737c2.43865,0.90873 5.14944,1.34719 7.67021,1.70289c3.02991,0.42754 6.10798,-0.40776 9.10589,-1.16527c-0.00915,1.13745 0.06222,2.27413 0.24649,3.39094c0.4352,2.63748 1.05092,5.30271 2.22307,7.70515c0.45468,0.93192 2.11458,0.9233 2.46321,1.89985c0.56035,1.56965 -0.75972,3.51656 0,5c1.36238,2.66023 3.73244,4.71124 5.98149,6.67967c0.05273,0.04615 0.11492,0.08958 0.18387,0.12929c-0.10773,0.97606 0.02898,2.00826 0.20257,2.96603c0.93874,5.17945 3.98728,10.67098 8.3394,13.72902c0.6319,0.44401 1.31439,0.79579 2.02944,1.08353c-0.21123,1.13572 -0.45804,2.17752 -0.73974,3.09743c-1.1386,3.71815 -2.84326,6.13644 -4.41001,9.69348c-1.75388,3.9819 5.48194,6.75872 8.17351,10.17736c3.11892,3.96142 5.96135,8.24672 8.42567,12.64607c1.41746,2.53047 1.98672,5.72557 4.16662,7.6388c2.65367,2.32905 6.04129,3.59724 9.27528,5.09256c0.16808,0.68691 0.41964,1.34451 0.79397,1.95853c1.95151,3.20114 5.69458,4.93937 8.9189,6.85234c0.17684,0.10492 0.36865,0.11312 0.56901,0.07427c-2.54556,4.16077 -1.67117,5.38096 -1.67117,13.35481c0,2.30372 -0.12,4.66051 0.42908,6.89784c0.28645,1.16721 1.55728,1.88266 2,3c0.14147,0.35705 -0.43709,0.70769 -0.38041,1.08754c0.39478,2.64614 0.5946,5.4108 1.71254,7.84146c1.22551,2.66454 3.44591,4.74682 5.16886,7.12023c5.26827,2.29377 8.95099,5.08458 14.8481,5.97801c0.26097,0.03954 0.16895,-0.82254 0.395,-0.68628c0.39675,0.23917 0.1785,1.01929 0.56952,1.26771c0.59812,0.37999 1.27326,0.65977 1.97061,0.83007c-0.3492,0.98368 0.2867,2.52002 0.2867,3.66342c0,6.8148 1.49131,12.55808 5.18876,17.74926c0.1199,0.66084 0.31597,1.45541 0.63657,2.28695c-1.09073,1.49321 -2.80105,3.48251 -2.75342,4.34239c0.10711,1.9339 4.13545,5.7304 4.50986,7.5804c0.35208,1.73966 -0.43335,3.54543 -0.30753,5.31589c0.12582,1.77046 1.15873,3.44701 1.05622,5.21898c-0.28521,4.92998 -5.17184,10.74332 -7.95628,13.97353c-0.76117,0.88303 -1.03246,2.17455 -1.93337,2.91448c-8.84533,7.26477 -27.77281,6.77478 -37.75265,2.73025c-4.03667,-1.63594 -7.49842,-4.13273 -11.48188,-5.89427c-0.95068,-0.42041 -5.0461,0.7749 -6.20628,0.78216c-15.83557,0.09902 -31.7163,-0.34566 -47.46553,-2c-2.81187,-0.29537 -3.60839,1.64453 -5.89515,3.16359c-3.21501,2.13568 -7.16854,2.76634 -10.27729,4.59051c-1.15881,0.67997 -2.69153,2.51547 -3.86203,3.1209c-6.34359,3.28117 -24.77699,6.0627 -31.5,6.125c-7.99966,0.07413 -16.00079,0.11197 -24,0c-3.50064,-0.049 -6.72231,-1.85143 -10.05694,-2c-7.20711,-0.32112 -25.20199,0.65186 -32.57219,-1.6932c-2.31889,-0.73782 -8.4774,-5.2735 -10.42781,-5.3068c-8.97971,-0.15329 -17.96224,0.05908 -26.94306,0c-6.50052,-0.04276 -13.16014,-3.39074 -19.59563,-2c-8.48818,1.83434 -16.01321,6.78116 -24.90062,7.66989c-6.31158,0.63116 -13.19367,1.45341 -19.41,-0.06052c-2.55307,-0.62178 -4.99334,-3.13928 -7.512,-2.39018c-31.71326,9.43217 -62.42385,22.34508 -93.90558,32.52338c-11.40763,3.68818 -29.52398,12.86049 -44.34623,12.95139c-7.29885,0.04476 -13.5495,-0.25351 -19.38101,-4.78913c-2.30111,-1.78975 -3.8042,-5.7845 -5.46072,-7.89864c-2.32771,-2.97075 -6.43546,-4.64905 -9.16587,-7.32851c-9.74816,-9.56629 -12.16087,-12.22045 -18.24361,-21.61854c-0.5229,-0.80791 -1.28169,-1.493 -2.15023,-2.1257c2.47995,-0.28731 9.07151,-1.81459 9.07151,-9.93343c0,-9.16944 -8.40785,-9.93101 -9.80451,-9.99427c-0.39299,-0.51218 -0.78787,-1.02145 -1.36866,-1.24453c-0.17564,-0.06747 -0.40853,-0.11964 -0.65542,-0.14697c-0.78486,-1.68018 -1.80695,-3.26458 -3.12025,-4.53411c0.42224,-2.25162 -0.42921,-4.07441 -1.88114,-5.56878c0.38143,-1.43162 0.68871,-2.92343 1.76423,-3.85229c-1.2459,-2.97168 -1.93427,-6.23497 -1.93427,-9.65904c0,-3.13655 0.57762,-6.13819 1.63228,-8.90436c0.44467,-1.99788 1.0954,-3.89822 2.27397,-5.54877z" fill="url(#color-5)" stroke="none" stroke-width="0.5"/><path d="M247.71788,252.52718c1.76777,1.76777 0,3.53553 0,3.53553l-2.76777,1.73223c-2.01543,0 -4.21367,-1.03554 -6.04329,-0.1903c-1.16874,0.53993 -1.55517,2.12741 -2.64238,2.81693c-2.95407,1.87349 -6.3526,1.14668 -9.52376,2.24508c0,0 -2.37171,0.79057 -3.16228,-1.58114c-0.79057,-2.37171 1.58114,-3.16228 1.58114,-3.16228c1.13004,-0.36534 2.21958,-0.89524 3.39011,-1.09601c1.88432,-0.32319 3.39181,0.53687 5.08613,-0.65891c1.26,-0.88926 1.92856,-2.60326 3.35762,-3.18307c0.56359,-0.22867 6.56454,-0.1903 7.95671,-0.1903l-0.76777,-0.26777c0,0 1.76777,-1.76777 3.53553,0z" fill="#2f2f2f" stroke="none" stroke-width="0.5"/><path d="M263.15791,252.49437l-2.79261,1.86174c-0.06303,0.04336 -0.12815,0.08391 -0.19518,0.12145c-0.30088,0.64663 -0.92507,1.31738 -2.22001,1.31738c-2.5,0 -2.5,-2.5 -2.5,-2.5l0.73223,-2.76777c0.35721,-0.34324 0.70113,-0.65522 1.0346,-0.93841l0.36146,-1.08439l0.52671,0.17557l0.14638,-1.21931c1.1024,-0.29752 2.36789,-0.2694 3.40508,-0.69712c-0.92165,-0.0802 -1.88058,-0.43743 -2.74974,-0.15887c-0.77745,0.24917 -0.94442,1.39341 -1.64238,1.81693c-1.4984,0.90921 -3.34453,1.3656 -4.54656,2.64114c0,0 -1.76777,1.76777 -3.53553,0c-1.76777,-1.76777 0,-3.53553 0,-3.53553c0.81781,-0.78629 1.48747,-1.76391 2.45344,-2.35886c0.89751,-0.55279 2.09378,-0.4616 3,-1c0.92079,-0.54706 1.34479,-1.83478 2.35762,-2.18307c1.33433,-0.45885 2.87223,0.29291 4.23225,-0.08303c0.97611,-0.26982 1.59428,-1.26029 2.46964,-1.76955c1.33329,-0.77565 2.75786,-1.38253 4.13678,-2.07379l-1.38197,0.23607c0,0 0,-2.5 2.5,-2.5c2.5,0 2.5,2.5 2.5,2.5l-1.38197,4.23607c-0.58003,0.2892 -1.14013,0.62231 -1.69164,0.97361c0.2805,0.9667 -0.19033,1.90836 -0.19033,1.90836c-0.06922,0.12519 -0.13545,0.25278 -0.19938,0.38223c1.3638,0.01962 2.46331,1.13127 2.46331,2.49974c0,1.1246 -0.74256,2.07576 -1.76412,2.38994l-2.94531,0.98177c-0.85987,0.27918 -1.72092,0.5547 -2.58277,0.82772z" fill="#2f2f2f" stroke="none" stroke-width="0.5"/><path d="M274.45011,236.29494c0,-1.38071 1.11929,-2.5 2.5,-2.5c1.38071,0 2.5,1.11929 2.5,2.5c0,1.38071 -1.11929,2.5 -2.5,2.5c-1.38071,0 -2.5,-1.11929 -2.5,-2.5z" fill="#2f2f2f" stroke="none" stroke-width="0.5"/><path d="M315.90762,221.56722c-1.0289,-0.47204 -1.37816,-1.19623 -1.45232,-1.84744c-1.94416,0.68257 -3.86009,1.32801 -5.71463,1.94687c0,0 -2.37171,0.79057 -3.16228,-1.58114c-0.03831,-0.11493 -0.06919,-0.22614 -0.09328,-0.33373c-1.15852,-0.21792 -2.03501,-1.23502 -2.03501,-2.45684c0,-1.38071 1.11929,-2.5 2.5,-2.5c0.57782,0 1.10986,0.19603 1.53323,0.52522c0.01817,-2.32597 0.19718,-3.86429 3.51006,-5.33491c1.38896,-0.61658 3.03709,-0.11905 4.55625,-0.15802c0.31131,-0.00799 0.74642,0.19037 1.05264,0.18664c0.08737,-0.03232 0.17519,-0.06409 0.26326,-0.09562c0.02204,-0.02324 0.041,-0.05137 0.05646,-0.08508c0.41667,-0.90906 -0.60365,-2.20275 0,-3c0.70671,-0.93336 2.4273,-0.4834 3.26034,-1.30599c0.62285,-0.61504 0.14515,-1.8253 0.64114,-2.54656c0.82374,-1.19786 1.85364,-2.37827 3.16992,-2.99537c1.07438,-0.50369 2.38453,0.02921 3.55625,-0.15802c2.10179,-0.33584 3.65581,-2.25485 5.676,-2.92501c1.05191,-0.34896 2.23139,0.11074 3.324,-0.07499c3.32265,-0.5648 5.93237,-1.03228 9.40046,-1.03228l2.76777,1.73223c0,0 1.76777,1.76777 0,3.53553c-1.76777,1.76777 -3.53553,0 -3.53553,0l0.76777,-0.26777c-1.86655,0 -3.76026,-0.35015 -5.59954,-0.03228c-1.0387,0.17951 -1.95963,0.83045 -3,1c-0.88073,0.14353 -1.82995,-0.35871 -2.676,-0.07499c-0.41983,0.14079 -0.8243,0.32385 -1.2198,0.53087c0.51801,-0.14124 1.01887,-0.28178 1.49534,-0.4236l0.51686,0.31261c0.07802,-0.02294 0.15612,-0.04503 0.2343,-0.06609l0.03941,-0.11823l0.1834,0.06113c0.56682,-0.13743 1.13874,-0.21395 1.72057,-0.1707c0.10239,0.00761 0.20419,0.01795 0.30546,0.03082v-0.04955h3c1.38071,0 2.5,1.11929 2.5,2.5c0,1.1246 -0.74256,2.07576 -1.76412,2.38994l-2.63684,0.87895c-5.25229,4.14035 -11.87431,7.31173 -18.56281,9.92889l-1.26396,2.84471c0,0 -1.04249,2.27227 -3.31476,1.22979z" fill="#2f2f2f" stroke="none" stroke-width="0.5"/><path d="M402.45011,206.29494c0,2.5 -2.5,2.5 -2.5,2.5h-2c-2.96435,0 -6.48352,0.45238 -9.40046,-0.03228c-2.07967,-0.34555 -3.91229,-1.70692 -6,-2c-2.9959,-0.42058 -6.55688,0.03228 -9.59954,0.03228c0,0 -2.5,0 -2.5,-2.5c0,-2.5 2.5,-2.5 2.5,-2.5c3.30742,0 7.15374,-0.43793 10.40046,0.03228c2.08642,0.30217 3.92072,1.65207 6,2c2.6507,0.44355 5.90833,-0.03228 8.59954,-0.03228h2c0,0 2.5,0 2.5,2.5z" fill="#2f2f2f" stroke="none" stroke-width="0.5"/><path d="M451.71788,155.52718c1.76777,1.76777 0,3.53553 0,3.53553l-1.45807,1.18894c0,1.33333 0.55064,2.78568 0,4c-1.16807,2.57597 -4.66413,3.50692 -6,6c-0.32308,0.60294 0.16494,1.35972 0.1903,2.04329c0.08742,2.35609 0.85936,4.66784 0.82163,7.02525c-0.06632,4.14324 -0.79533,6.68211 -3.48718,9.67323c-2.61435,2.90499 -7.46293,6.30114 -11.43399,6.76924c-0.98365,0.11595 -2.06399,-0.90429 -2.93868,-0.43961c-0.63186,0.33567 0.09014,1.50126 -0.24733,2.13216c-0.84907,1.58737 -2.14297,2.89316 -3.21445,4.33973c0,0 -1.5,2 -3.5,0.5c-2,-1.5 -0.5,-3.5 -0.5,-3.5c0.92852,-1.22009 1.99398,-2.34719 2.78555,-3.66027c0.73078,-1.21224 0.55621,-3.1115 1.75267,-3.86784c1.43143,-0.90488 3.39055,-0.16332 5.06132,-0.43961c3.21764,-0.5321 8.92347,-4.14455 10.07563,-7.45163c1.33611,-3.83506 -0.27088,-7.20424 -0.17518,-11.08065c0.03259,-1.32003 -0.38155,-2.76653 0.1903,-3.95671c1.22494,-2.54942 4.95596,-3.37131 6,-6c0.49216,-1.23917 0,-2.66667 0,-4l2.54193,-2.81106c0,0 1.76777,-1.76777 3.53553,0z" fill="#2f2f2f" stroke="none" stroke-width="0.5"/><path d="M470.71788,115.52718c1.76777,1.76777 0,3.53553 0,3.53553l-0.5317,0.35027c-0.82277,1.54991 -1.23629,3.40021 -2.4683,4.64973c-0.92583,0.93899 -2.80165,0.52964 -3.64114,1.54656c-0.56208,0.68087 0.50485,1.8202 0.18307,2.64238c-0.34362,0.87796 -1.64423,1.12689 -2,2c-0.42296,1.03801 0.51632,2.48172 -0.18307,3.35762c-2.54419,3.18627 -8.07712,2.84866 -7.62663,7.68567c0,0 0,2.5 -2.5,2.5c-2.5,0 -2.5,-2.5 -2.5,-2.5c0.19487,-4.0516 1.38096,-6.7288 5.03822,-9.02811c1.00873,-0.63419 2.58948,-0.35686 3.33515,-1.28622c0.55253,-0.68865 -0.50485,-1.8202 -0.18307,-2.64238c0.34362,-0.87796 1.64423,-1.12689 2,-2c0.42296,-1.03801 -0.50718,-2.4745 0.18307,-3.35762c1.02675,-1.31365 3.17118,-1.28327 4.35886,-2.45344c0.8747,-0.86181 1.02113,-2.23351 1.5317,-3.35027l1.4683,-1.64973c0,0 1.76777,-1.76777 3.53553,0z" fill="#2f2f2f" stroke="none" stroke-width="0.5"/><path d="M184.15954,302.66665c-2.37171,-0.79057 -1.58114,-3.16228 -1.58114,-3.16228l1.24508,-3.52376c1.84892,-1.91258 4.40432,-3.09656 6.09852,-5.14745c0.69204,-0.83775 0.37878,-2.23696 1.06177,-3.0821c4.27,-5.28367 13.15325,-3.95613 18.96633,-3.95613c0,0 2.5,0 2.5,2.5c0,2.5 -2.5,2.5 -2.5,2.5c-4.93236,0 -9.00955,-0.44113 -13.67512,1.34139c-0.47623,0.18195 -1.08545,0.27199 -1.35855,0.70248c-0.54731,0.86272 -0.28118,2.13552 -0.93823,2.9179c-1.63784,1.95027 -4.04889,3.10499 -5.90148,4.85255l-0.75492,2.47624c0,0 -0.79057,2.37171 -3.16228,1.58114z" fill="#2f2f2f" stroke="none" stroke-width="0.5"/><path d="M519.95011,172.79494c-2.5,0 -2.5,-2.5 -2.5,-2.5v-1c0,-3.65442 -0.1583,-7.35025 0,-11c0.04096,-0.94439 0.72708,-1.97919 0.29581,-2.82036c-0.40867,-0.7971 -1.67932,-0.68923 -2.38079,-1.24629c-0.97703,-0.7759 -2.00399,-1.60043 -2.59053,-2.70161c-0.60954,-1.14436 -0.14958,-2.71231 -0.86804,-3.79163c-0.71774,-1.07822 -2.49781,-1.14766 -3.16065,-2.26048c-0.55006,-0.92348 0.28949,-2.22326 -0.10551,-3.22294c-0.30002,-0.75928 -1.40066,-0.94007 -1.81693,-1.64238c-0.63518,-1.07166 -0.83005,-2.34917 -1.24508,-3.52376c0,0 -0.79057,-2.37171 1.58114,-3.16228c2.37171,-0.79057 3.16228,1.58114 3.16228,1.58114c0.25164,0.82541 0.30673,1.73884 0.75492,2.47624c0.55628,0.91525 1.78135,1.36477 2.18307,2.35762c0.34745,0.85873 -0.5852,1.98458 -0.10551,2.77706c0.57475,0.94955 2.22301,0.81642 2.83935,1.73952c0.80664,1.20811 0.52325,2.88941 1.13196,4.20837c0.90206,1.95459 4.07604,2.12166 5.02869,4.0521c0.76531,1.55081 0.24011,3.45118 0.29581,5.17964c0.11786,3.65731 0,7.34011 0,11v1c0,0 0,2.5 -2.5,2.5z" fill="#2f2f2f" stroke="none" stroke-width="0.5"/><path d="M546.06814,208.53101c-2.23607,1.11803 -3.3541,-1.11803 -3.3541,-1.11803l-0.5317,-1.35027c-3.74678,-3.89701 -4.59238,-8.79327 -3.69995,-14.16822c0.12416,-0.74781 1.25557,-1.30004 1.0346,-2.02516c-0.58905,-1.93292 -3.26827,-2.37948 -4.95363,-3.49426c0,0 -2.08013,-1.38675 -0.69338,-3.46688c1.38675,-2.08013 3.46688,-0.69338 3.46688,-0.69338c2.34237,1.57229 6.06961,3.68199 7.04637,6.50574c0.44572,1.28855 -0.79869,2.6216 -0.9654,3.97484c-0.45769,3.71518 -0.45966,7.23111 2.30005,9.83178l1.4683,2.64973c0,0 1.11803,2.23607 -1.11803,3.3541z" fill="#2f2f2f" stroke="none" stroke-width="0.5"/><path d="M145.31887,347.9079c2.59267,-3.19057 5.47391,-5.01319 8.54133,-6.10019c3.15316,-1.4639 6.74717,-2.29274 10.56148,-2.29274c1.27132,0 2.51817,0.09208 3.73239,0.26906c2.9768,-0.25127 5.98193,-0.6463 8.94622,-1.61225c1.42188,-0.46334 -0.65983,-3.18172 -0.47437,-3.86181c2.25723,-8.27778 3.10922,-9.60004 10.02578,-15.55972c1.19749,-1.03182 5.4132,-2.36288 7.35588,-3.23571c9.75788,-4.38417 17.57584,-4.32263 28.20293,-6.01802c8.71769,-1.39077 12.55503,-2.65795 20.34428,-6.08553c4.54936,-2.0019 1.78889,-6.35088 2.82035,-9.9763c1.48186,-5.2085 3.25761,-10.69475 9.19765,-13.67736c3.92405,-1.97035 8.6323,-2.44841 13.08896,-3.10849c1.03302,-0.153 1.98658,0.74101 3.03391,0.72052c1.03237,-0.0202 0.64797,-1.75719 1.26466,-2.48499c2.34294,-2.76507 5.82604,-4.64623 9.04353,-6.61877c2.45883,-1.50743 8.89932,-1.92781 10.47377,-2.24746c0.6425,-0.13044 3.81879,-3.74585 3.84782,-3.76783c1.59283,-1.20563 4.43555,-2.90076 6.17068,-4.03445c3.98621,-2.60448 8.79774,-3.72406 13.42132,-5.09376c0.5267,-0.15603 1.99452,-2.7807 2.3137,-3.13129c1.62658,-1.78662 3.6162,-3.7517 5.69536,-5.14359c2.80238,-1.87606 5.7714,-2.20865 8.72093,-3.62732c0.51678,-0.24856 2.34045,-2.37897 2.74957,-2.68945c1.74726,-1.32597 3.45834,-2.69087 5.26111,-3.95816c0.97712,-0.68688 3.10055,-0.78456 3.93895,-1.21258c0.68575,-0.35008 0.85878,-1.27605 1.58241,-1.56124c3.44208,-1.35655 7.1731,-2.34542 10.93817,-2.55247c1.03095,-0.05669 1.93115,0.66275 2.93762,0.86701c2.77742,0.56367 9.8461,1.68155 12.25691,3.48943c1.57205,1.17888 2.01335,3.96565 4.07378,4.10702c1.57988,0.10839 4.09715,-0.2894 5.83765,-0.1775c1.69308,0.10886 4.41349,1.3179 5.94972,1.22641c3.76533,-0.22423 7.10214,-1.30851 11.05908,-0.96081c9.0047,0.79125 17.91595,3.21126 26.97442,1.45271c1.83399,-0.35604 1.42288,-4.67119 2.66383,-5.9338c1.67581,-1.70506 3.82233,-3.02392 5.48076,-4.74205c1.43913,-1.49093 4.58728,-9.99009 5.0421,-12.54842c0.08681,-0.48829 -0.33731,-1.03315 -0.09745,-1.48016c1.30834,-2.43822 3.30243,-4.89291 4.60085,-7.51803c4.78707,-1.29838 5.682,-5.48902 5.8493,-7.01049c0.48704,-0.7438 0.97408,-1.4876 1.46112,-2.23139c0.12953,-1.56445 0.3026,-3.12658 0.38858,-4.69335c0.04362,-0.79485 0.21125,-1.6135 0,-2.38732c-0.05497,-0.20136 -0.82498,0.03154 -0.68936,-0.1378c0.20072,-0.25063 0.83489,0.01142 1.00488,-0.25618c0.65278,-1.02756 0.51349,-2.38252 1.28319,-3.34556c0.93824,-1.17392 2.98285,-1.54896 3.66901,-2.8506c0.66819,-1.26756 0.85696,-2.67877 0.95325,-4.09752c1.19423,-0.50928 2.26785,-1.21667 2.93698,-2.16639c2.08807,-2.9637 2.07518,-9.96906 1.02006,-13.26868c-0.10543,-0.3297 -0.41335,-0.54981 -0.75282,-0.75569c0.57607,-0.40958 1.1437,-0.83578 1.74999,-1.1858c0.16099,-0.18918 0.37015,-0.35695 0.54347,-0.54064c1.07465,0.40757 2.46707,-0.04299 3.67679,-0.04299c2.2951,0 4.59012,-0.04619 6.88432,-0.10275l4.13001,-1.10139c0,0 5.74359,-1.68232 6.27307,-6.42248c2.31703,1.24694 4.35506,2.83134 6.34348,4.87871c1.06081,1.09226 5.55071,11.91083 6.03544,13.48147c0.6555,2.12397 0.19247,4.60282 1.52909,6.46389c0.27523,0.38322 2.03077,-0.92249 2.39773,-1.05684c1.30898,-0.47926 2.57972,-1.21192 3.99543,-1.28388c1.60472,-0.08157 3.12302,0.74038 4.72638,0.84051c1.59841,0.09982 3.22859,-0.52104 4.79956,-0.24729c0.01698,0.03027 0.03417,0.06044 0.05157,0.09049c-0.37482,0.98239 -0.74069,1.96562 -0.8456,2.98938c-0.4329,4.22421 -1.49891,8.64535 -0.17112,12.72303c0.73685,2.26291 3.84739,3.28002 5.88092,4.81202c3.33761,2.51447 6.57958,5.19201 10.14933,7.49056c0.1534,0.09878 0.30233,0.20514 0.44816,0.31673c-0.57458,1.5278 -1.00979,3.09342 -1.00189,4.68169c0.0071,1.42804 -0.05077,3.01529 0.1863,4.49345c-0.33775,2.46065 -0.48493,4.94836 -0.23037,7.49055c0.02038,0.20355 0.42538,-0.16783 0.64772,-0.22767c1.34178,-0.36107 3.31395,-0.92531 4.87087,-1.11206c0.28784,-0.03452 0.57734,-0.05976 0.8681,-0.07748c2.20848,0.72314 4.66341,1.07206 6.94626,1.35512c2.74394,0.34023 5.53148,-0.32448 8.24643,-0.92729c-0.00829,0.90515 0.05634,1.80969 0.22323,2.69843c0.39412,2.09884 0.95173,4.21975 2.01325,6.13156c0.41176,0.74159 1.91499,0.73473 2.23071,1.51185c0.50747,1.24908 -0.68801,2.79838 0,3.97887c1.23379,2.11694 3.38016,3.74908 5.41692,5.31551c0.04775,0.03673 0.10408,0.07129 0.16652,0.10288c-0.09756,0.77672 0.02624,1.59812 0.18345,2.36029c0.85014,4.12167 3.61094,8.49169 7.55229,10.92519c0.57226,0.35333 1.19033,0.63327 1.83789,0.86224c-0.19129,0.90377 -0.41481,1.73281 -0.66992,2.46485c-1.03114,2.95881 -2.5749,4.88322 -3.99376,7.71381c-1.58834,3.16869 4.96452,5.37841 7.40205,8.09888c2.82453,3.1524 5.39869,6.56252 7.63041,10.06341c1.28367,2.01368 1.79921,4.55625 3.77335,6.07876c2.4032,1.8534 5.47108,2.86259 8.39982,4.05252c0.15222,0.54662 0.38004,1.06992 0.71903,1.55854c1.76732,2.54738 5.15709,3.93063 8.07709,5.45291c0.16015,0.08349 0.33385,0.09002 0.5153,0.0591c-2.30529,3.31103 -1.51344,4.28203 -1.51344,10.62741c0,1.83324 -0.10867,3.70871 0.38858,5.48912c0.25941,0.92884 1.4103,1.49817 1.81123,2.38732c0.12812,0.28413 -0.39583,0.56316 -0.34451,0.86543c0.35752,2.10573 0.53847,4.30577 1.5509,6.24003c1.10984,2.12037 3.12066,3.7774 4.68099,5.66609c4.77102,1.82533 8.10614,4.04618 13.44666,4.75714c0.23633,0.03146 0.153,-0.65456 0.35772,-0.54612c0.3593,0.19032 0.16166,0.81113 0.51577,1.00881c0.54167,0.30239 1.15309,0.52503 1.78461,0.66055c-0.31624,0.78279 0.25964,2.00537 0.25964,2.91526c0,5.42304 1.35055,9.99339 4.69901,14.1244c0.10858,0.52588 0.28614,1.15818 0.57649,1.81989c-0.98779,1.18826 -2.53667,2.77129 -2.49354,3.45556c0.097,1.53895 3.74512,4.5601 4.08419,6.03228c0.31884,1.38438 -0.39245,2.82136 -0.2785,4.23025c0.11395,1.40889 1.04936,2.74304 0.95653,4.15312c-0.25829,3.92315 -4.68369,8.54925 -7.20532,11.11977c-0.68933,0.70269 -0.93501,1.73045 -1.75089,2.31927c-8.01046,5.78112 -25.15146,5.39119 -34.18935,2.17266c-3.65567,-1.30184 -6.79067,-3.28872 -10.39816,-4.69051c-0.86095,-0.33455 -4.56982,0.61665 -5.6205,0.62242c-14.34093,0.0788 -28.72274,-0.27507 -42.98548,-1.59155c-2.54647,-0.23504 -3.26781,1.30867 -5.33873,2.5175c-2.91156,1.69952 -6.49193,2.20138 -9.30726,3.653c-1.04944,0.5411 -2.43749,2.00175 -3.49752,2.48353c-5.74485,2.61107 -22.43841,4.82454 -28.52686,4.87411c-7.2446,0.05899 -14.49054,0.0891 -21.73475,0c-3.17023,-0.03899 -6.08783,-1.47332 -9.10771,-1.59155c-6.52686,-0.25553 -22.82329,0.51873 -29.49785,-1.34741c-2.10002,-0.58714 -7.67726,-4.19651 -9.44358,-4.22301c-8.13216,-0.12198 -16.26686,0.04701 -24.40003,0c-5.88697,-0.03403 -11.91801,-2.69826 -17.74608,-1.59155c-7.68702,1.45972 -14.50179,5.39627 -22.55036,6.1035c-5.71586,0.50226 -11.94838,1.15659 -17.57798,-0.04816c-2.3121,-0.49479 -4.52204,-2.49816 -6.80298,-1.90205c-28.71999,7.50587 -56.53195,17.78163 -85.04226,25.88126c-10.33092,2.93496 -26.73734,10.23404 -40.16059,10.30637c-6.60994,0.03562 -12.27063,-0.20174 -17.55173,-3.81107c-2.08392,-1.42424 -3.44514,-4.60315 -4.94531,-6.28553c-2.10801,-2.36405 -5.82805,-3.69959 -8.30075,-5.83184c-8.82808,-7.6126 -11.01306,-9.72471 -16.52168,-17.20346c-0.47355,-0.64291 -1.16072,-1.18809 -1.94728,-1.69158c2.24588,-0.22863 8.2153,-1.444 8.2153,-7.90476c0,-7.2968 -7.61428,-7.90284 -8.87911,-7.95318c-0.3559,-0.40758 -0.71351,-0.81284 -1.23947,-0.99036c-0.15906,-0.05369 -0.36998,-0.0952 -0.59356,-0.11696c-0.71078,-1.33704 -1.6364,-2.59787 -2.82574,-3.60813c0.38239,-1.79178 -0.3887,-3.24231 -1.70359,-4.43149c0.34543,-1.13924 0.62371,-2.32639 1.59772,-3.06555c-1.12831,-2.36478 -1.7517,-4.96163 -1.7517,-7.68641c0,-2.49598 0.5231,-4.88462 1.47822,-7.08585c0.4027,-1.58986 0.99201,-3.1021 2.05934,-4.41557z" fill="url(#color-6)" stroke="none" stroke-width="0.5"/></g></g></svg>