<svg version="1.1" xmlns="http://www.w3.org/2000/svg" xmlns:xlink="http://www.w3.org/1999/xlink" width="41.97818" height="41.97818" viewBox="0,0,41.97818,41.97818"><defs><radialGradient cx="373.5" cy="180" r="15.5" gradientUnits="userSpaceOnUse" id="color-1"><stop offset="0" stop-color="#000000"/><stop offset="1" stop-color="#ffffff"/></radialGradient><radialGradient cx="373.5" cy="180" r="7.55556" gradientUnits="userSpaceOnUse" id="color-2"><stop offset="0" stop-color="#000000"/><stop offset="1" stop-color="#ffffff"/></radialGradient></defs><g transform="translate(-352.51091,-159.01091)"><g stroke-width="2" stroke-miterlimit="10"><path d="M353.51091,199.98909v-39.97818h39.97818v39.97818z" fill="#000000" stroke="#313131"/><path d="M358,180c0,-8.56041 6.93959,-15.5 15.5,-15.5c8.56041,0 15.5,6.93959 15.5,15.5c0,8.56041 -6.93959,15.5 -15.5,15.5c-8.56041,0 -15.5,-6.93959 -15.5,-15.5z" fill="url(#color-1)" stroke="#313131"/><path d="M365.94444,180c0,-4.17282 3.38274,-7.55556 7.55556,-7.55556c4.17282,0 7.55556,3.38274 7.55556,7.55556c0,4.17282 -3.38274,7.55556 -7.55556,7.55556c-4.17282,0 -7.55556,-3.38274 -7.55556,-7.55556z" fill="url(#color-2)" stroke="#313131"/></g></g></svg>