<svg version="1.1" xmlns="http://www.w3.org/2000/svg" xmlns:xlink="http://www.w3.org/1999/xlink" width="41.97818" height="41.97818" viewBox="0,0,41.97818,41.97818"><defs><radialGradient cx="373.76757" cy="194.6886" r="12.17325" gradientUnits="userSpaceOnUse" id="color-1"><stop offset="0" stop-color="#ff5600"/><stop offset="1" stop-color="#ff5600" stop-opacity="0"/></radialGradient><radialGradient cx="368.68423" cy="197.02193" r="12.17325" gradientUnits="userSpaceOnUse" id="color-2"><stop offset="0" stop-color="#ff5600"/><stop offset="1" stop-color="#ff5600" stop-opacity="0"/></radialGradient><radialGradient cx="378.85091" cy="197.02193" r="12.17325" gradientUnits="userSpaceOnUse" id="color-3"><stop offset="0" stop-color="#ff5600"/><stop offset="1" stop-color="#ff5600" stop-opacity="0"/></radialGradient></defs><g transform="translate(-352.51093,-159.01095)"><g stroke-miterlimit="10"><path d="M353.51094,199.98913v-39.97818h39.97818v39.97818z" fill="#000000" stroke="#000000" stroke-width="2"/><path d="M380.52667,194.2132l-1.53081,0.65908l-12.52251,-29.08547l1.53081,-0.65908z" fill="#6f0000" stroke="none" stroke-width="0"/><path d="M369.00588,195.205l-1.57128,-0.55577l10.55951,-29.85422l1.57128,0.55577z" fill="#6f0000" stroke="none" stroke-width="0"/><path d="M378.58336,184.92325c0,6.7231 -2.27589,12.17324 -5.08334,12.17324c-2.80744,0 -5.08333,-5.45014 -5.08333,-12.17324c0,-6.7231 2.27589,-12.17325 5.08333,-12.17325c2.80744,0 5.08334,5.45015 5.08334,12.17325z" fill="url(#color-1)" stroke="none" stroke-width="0"/><path d="M373.50003,187.25658c0,6.7231 -2.27589,12.17324 -5.08334,12.17324c-2.80744,0 -5.08333,-5.45014 -5.08333,-12.17324c0,-6.7231 2.27589,-12.17325 5.08333,-12.17325c2.80744,0 5.08334,5.45015 5.08334,12.17325z" fill="url(#color-2)" stroke="none" stroke-width="0"/><path d="M383.6667,187.25658c0,6.7231 -2.27589,12.17324 -5.08333,12.17324c-2.80744,0 -5.08334,-5.45014 -5.08334,-12.17324c0,-6.7231 2.27589,-12.17325 5.08334,-12.17325c2.80744,0 5.08333,5.45015 5.08333,12.17325z" fill="url(#color-3)" stroke="none" stroke-width="0"/></g></g></svg>