<svg version="1.1" xmlns="http://www.w3.org/2000/svg" xmlns:xlink="http://www.w3.org/1999/xlink" width="1060.66863" height="651.35826" viewBox="0,0,1060.66863,651.35826"><g transform="translate(156.83426,145.67909)"><g stroke="none" stroke-miterlimit="10"><path d="M512.24079,280.89694c2.54029,0 4.61144,2.00869 4.71173,4.52438c0.48524,0.08984 1.04424,0.22304 1.63512,0.42056l8.22618,-0.22233l27.1544,-0.75429l0.26218,0.01888l0.26156,-0.02615h1.30136l8.95127,-6.56427l-0.16864,-10.62428c-2.37944,-0.23994 -4.23673,-2.24884 -4.23673,-4.69153c0,-2.39158 1.78038,-4.36733 4.08807,-4.67416l-0.12464,-7.85274l0.05769,-0.68682l-0.02934,-0.68862l0.57821,-10.11866l-2.62919,-2.62919l-0.01892,-0.02314l-0.709,-0.52762l-0.68139,-1.17173l-0.46628,-0.5699l-1.08528,-2.09821l-1.18752,-2.04208l-0.23047,-0.69935l-0.62272,-1.20393l-0.0645,-0.88142l-0.00936,-0.02839l-1.70023,-7.65106c-0.72923,0.4623 -1.59404,0.72997 -2.52136,0.72997c-2.60432,0 -4.71553,-2.11122 -4.71553,-4.71553c0,-2.60432 2.11122,-4.71554 4.71553,-4.71554c0.30149,0 0.59637,0.0283 0.88213,0.08237l-0.03012,-0.25191l0.1685,-1.88011l-0.02074,-1.88753l0.34411,-1.72053l0.11551,-1.28883l0.35579,-0.66116l10.80791,-35.30582l0.95789,-2.28643l0.04183,-0.14228l0.0798,-0.14803l0.06498,-0.15511l0.08436,-0.12197l1.1762,-2.18217l1.98115,-2.93328c-0.59198,0.0933 -1.23062,0.14364 -1.91959,0.14364c-9.43107,0 -9.43106,-9.43107 -9.43106,-9.43107l0.12178,-1.50725c-0.2515,-0.75448 -0.71496,-1.46915 -0.75448,-2.26346c-0.00012,-0.00234 -0.00022,-0.00469 -0.00031,-0.00706c-1.12536,-0.863 -2.14274,-1.85948 -2.77796,-3.08938c-1.28731,-2.49246 -1.38813,-6.44997 -1.29124,-10.11089l-1.69689,-1.77644l-0.48119,-0.77763l-1.70198,-1.97072l-0.51075,-1.60522l-0.88638,-1.43245l-0.38864,-2.57477l-0.27727,-0.87142l-0.18165,-1.81648c-0.35664,-0.13933 -0.55835,-0.24018 -0.55835,-0.24018l-6.72234,-9.18988c1.31888,1.53023 -0.89485,-0.99931 -1.1043,-1.79394c-0.48905,-1.85534 0.11103,-3.87135 -0.28288,-5.7492c-0.03285,-0.15661 -0.07774,-0.31007 -0.12955,-0.4617c-0.688,-0.31011 -1.35468,-0.76269 -1.75685,-1.17058c-1.33449,-1.35349 -1.16736,-3.63682 -2.0444,-5.32311c-0.32823,-0.63108 -1.30352,-0.82795 -1.50897,-1.50897c-0.77204,-2.55912 -0.87104,-5.3596 -0.82979,-8.13602h-27.47858l-0.17788,0.10218l-1.39652,-0.10218h-2.14626l-2.94721,-0.29472l-0.31824,-0.10126l-1.73613,-0.12703l-2.1369,-1.10529l-2.29259,-0.72946l-1.31745,-1.13781l-0.29663,-0.15343l-2.29239,-1.87559l-1.28758,-1.28759l-1.54399,-0.94071l-0.75729,-1.65511l-0.55018,-0.67243l-2.80586,-5.42467l-9.88508,0.76039c-1.13155,3.93988 -4.76197,6.82261 -9.0657,6.82261c-3.57963,0 -6.69347,-1.9943 -8.29105,-4.93245c-1.34568,0.73944 -2.89132,1.16003 -4.5352,1.16003c-1.54914,0 -3.01105,-0.37351 -4.30058,-1.03538l-6.78521,0.52194l-0.46173,0.58417l-2.72275,0.86457l-1.64508,0.73745l-4.52691,1.50897l-1.09227,0.24664l-1.06886,0.33382l-38.56535,7.93993c0.15828,0.47159 0.24405,0.97647 0.24405,1.50138c0,2.60432 -2.11122,4.71553 -4.71554,4.71553c-2.47407,0 -4.50312,-1.90532 -4.69989,-4.32869l-3.56827,0.73464l-1.23561,0.12819l-1.22413,0.21136l-4.88953,0.34925c-0.78174,0.92209 -1.61511,2.01504 -2.78993,3.47285c0,0 -3.38776,4.06531 -8.13313,3.56784c-1.72697,2.19123 -4.40487,3.59803 -7.41135,3.59803c-4.94825,0 -9.00643,-3.81081 -9.39982,-8.6577l-9.62742,0.68767l-0.85448,-0.02424l-0.85206,0.06869l-15.80401,-0.30392c-0.01066,0.01673 -0.0213,0.03335 -0.03193,0.04986c-0.28593,2.02754 -0.68869,3.98881 -2.03064,5.41735c-2.13381,2.27148 -5.87944,2.13517 -8.93223,2.7623c-5.38138,1.10549 -10.07085,-2.47304 -15.13119,-3.14626c0,0 -0.94531,-0.15755 -2.18303,-0.67355c-1.16548,0.51553 -2.45499,0.80187 -3.81137,0.80187c-5.20864,0 -9.43106,-4.22243 -9.43106,-9.43106c0,-1.23965 0.23917,-2.42345 0.67389,-3.50775l-1.68842,-2.17083l-0.47786,0.08617l-10.10644,1.89496l-0.23051,0.11633l-0.58798,0.03713l-1.08253,0.20298l-2.95105,0.25346l-1.08152,-0.13338l-0.08798,0.00556c-2.28922,7.61113 -8.63629,13.2973 -17.16324,13.89569c-5.18123,0.36359 -10.14771,-1.54532 -14.04048,-4.7597l0.04544,0.69296l0.25112,1.54912l-0.73477,2.95636l-0.43385,3.01524l-0.81654,1.34019l-0.94963,1.95596l-3.0889,5.01945l0.10278,0.20391l3.77243,9.80831l0.26266,0.95838l0.5927,1.27864l0.11037,3.70833l0.21921,3.70349l-0.47688,1.3262l-0.17657,0.9779l-2.44052,8.54184l0.00281,0.15982l-0.16252,0.39912l-0.25087,0.87806l0.38151,0.9603l-0.09236,3.53192l0.07858,3.53225l-0.55944,1.39232l-0.29296,1.22617l-0.18367,0.52896c2.10583,0.47218 3.67932,2.353 3.67932,4.60132c0,2.60432 -2.11122,4.71553 -4.71553,4.71553c-0.73008,0 -1.42142,-0.16592 -2.03835,-0.4621l-11.03469,31.77991l0.85133,1.0364l0.79463,1.19194l1.12003,1.38906l0.02298,0.27253l0.38146,0.44169l0.39125,1.22965l0.18822,0.35429l0.70736,2.46038l0.77621,2.43953l0.03992,0.3992l0.35655,1.24016l-0.12918,1.03347l0.02744,0.27439v9.80831l-0.05936,0.5936l0.1195,1.21931l-0.3529,1.11468l-0.00196,0.01962l-0.85134,2.67565l-0.84749,2.67688l-0.00971,0.01716l-0.35451,1.11417l-0.80079,0.92723l-0.29383,0.51918l-9.05382,12.82625l-0.1669,0.19248l-0.55693,1.44085l-5.10712,3.55035l-1.53401,1.16152l-0.21305,0.05299l-0.18026,0.12531l-1.88456,0.38825l-2.31769,0.57646l-0.95755,2.87264l0.85883,0.35363l0.95819,1.44443l0.04956,0.03304l2.07124,2.11727l3.01794,3.77243l0.75534,1.16537l1.15896,-0.47722l2.40561,0.03295l2.37677,-0.37283l1.68721,0.4285l0.33393,0.00457l2.88916,0.65239l2.03613,0.67871l1.35717,0.34468l0.13643,0.15319l3.26064,1.08688l0.11166,0.05006l1.49535,0.09969l5.37613,4.18144l1.21837,0.88796l0.06606,0.11103l0.10198,0.07932l0.72999,1.3191l0.42809,0.71955l0.33661,0.06485l0.5498,0.02708l13.69848,2.05477h11.55419l1.44498,-0.45976l2.94721,-0.29472h4.52691l1.4595,0.14595l0.18455,-0.01165l0.64975,0.09508l0.65341,0.06534l0.17621,0.05607l0.92764,0.13575c0.74736,-0.1093 1.23033,-0.1093 1.23033,-0.1093c2.2171,0 7.00329,-0.01521 8.30106,0.12178c0.79091,0.08349 1.4725,0.67155 2.26346,0.75448c4.29898,0.45077 8.14418,-0.44426 12.14532,0.42689c1.54926,-4.92245 7.05291,-8.20275 12.17132,-8.80212c2.71982,-0.31849 4.52603,3.08464 6.82116,4.57836c1.31439,0.85544 3.93004,1.88133 5.05067,3.66673c0.45559,0.01312 0.91188,0.03399 1.36562,0.02657c4.71809,0.58976 9.46921,0.91663 14.21872,1.14093l4.76189,2.68824c0,0 4.73922,3.15948 4.39625,8.25076l16.31941,-0.39803l0.2302,0.01737l0.22971,-0.02297h19.61662l2.0571,0.20571l0.20996,-0.00625l0.3382,0.06107l0.34196,0.0342l0.20016,0.06369l2.03446,0.36733l5.2814,1.50897l1.22604,0.48681l1.25277,0.41315l1.43496,0.63776h4.14231l21.36798,-0.77702c1.45055,-4.56692 6.56335,-6.02772 6.56335,-6.02772c11.00576,-3.13802 22.21776,-5.96674 33.27875,-8.86547c4.87492,-1.27756 9.66552,-3.32888 14.70111,-3.52856c2.36371,-0.09373 4.30958,1.98482 6.56911,2.68513c1.39369,0.43195 2.93824,0.22919 4.32248,0.69057c2.44123,0.81369 4.61642,2.32222 7.06747,3.10582c2.9371,0.93899 6.01951,1.34141 9.02325,2.03838c6.43072,1.49214 12.86871,3.02072 19.23488,4.78695c0.7761,-1.53984 2.37146,-2.59605 4.21351,-2.59605zM151.18418,35.80709c0.47858,0.34172 0.91409,0.73068 1.32131,1.15067l5.53696,-1.7303l2.57232,-0.53005l1.69029,-1.03961l0.12962,-0.04629l0.11123,-0.08107l2.70276,-1.21159l13.58074,-4.52691l1.73795,-0.39245l1.73389,-0.41004l11.31728,-1.50897l2.96031,-0.09738l0.14132,0.02506l0.14266,-0.01585l2.94777,0.289l6.15863,1.23172c1.75949,-0.74109 3.55917,-1.51237 5.43303,-1.69976c8.673,-0.8673 15.74173,-0.25272 23.59034,2.3652c2.52773,0.84313 5.93333,0.56809 8.58067,1.0492c3.4809,0.6326 6.8569,1.65806 9.9317,3.24453l12.09237,-2.41847l1.62742,-0.15955l1.62277,-0.2014l31.68839,-0.75448l0.22472,0.01708l0.22425,-0.02243h17.35316l0.78132,0.07813l0.7851,-0.01298l14.29742,1.19145l16.58686,-7.23017l2.81946,-0.90749l0.01218,-0.00126l0.01127,-0.0048l2.90599,-0.57279l71.10884,-6.77164l1.83249,0.00866h1.83251l37.53705,3.7537l1.45225,0.29339l0.18705,0.00702l0.62864,0.15777l0.63531,0.12834l0.17184,0.07422l1.43703,0.36065l5.83848,2.10185l13.63658,1.6043l2.74896,-0.22908l0.23082,0.00382l0.22797,-0.03642l25.6525,-1.50897l1.16088,0.04752l1.16113,-0.04094l46.77809,3.01794l1.00325,0.16612l1.01423,0.07368l52.05949,9.05383l1.30444,0.36363l0.16421,0.01682l0.68824,0.22081l0.69624,0.19408l0.1464,0.07627l1.28944,0.41369l34.5958,15.04166l2.4949,1.39488l1.09879,0.48204l2.33029,2.48602l1.78487,1.55972l0.34026,0.70743l1.40357,1.49737l0.34047,2.12868l1.62911,3.38711l-0.52115,3.5401l0.3356,2.09826l-1.04002,2.68679l-0.41961,2.85033l-1.32636,1.66016l-1.29171,3.33697l-3.08712,2.14387l-1.34559,1.68423l-1.95933,0.61089l-0.64478,0.44777l-2.3218,0.47716l-3.25299,1.01423l-1.19362,-0.12227l-2.85831,-0.01628l-6.31594,-0.66795l-9.95841,-0.66389l-0.61621,0.54882l-0.02728,0.08123l-1.59964,1.39968l-0.02809,0.55346l0.04635,3.38376l-0.59299,1.44012l-0.38562,1.45486l-4.52691,12.07177l-0.09657,0.19569l0.40303,0.37719l5.28139,6.03588l0.74657,1.0476l1.0441,1.08772l1.24098,3.29061l1.40435,3.22427l0.00976,1.5077l0.1951,1.27153l0.66389,12.61388l0.11666,0.35495l-0.06104,0.70197l0.03497,0.66443l-0.13941,2.95862l-0.31572,1.20885l-0.10824,1.24471l-0.86149,2.83386l-0.2559,0.61417l-0.17806,0.68174l-0.22901,0.29522l-1.52066,3.64957l0.62434,0.88821l0.25753,1.21787l0.09312,0.22044l0.5062,2.61385l0.5508,2.60481v0.2393l0.23668,1.22209l-0.23668,1.09423v0.40628l-1.50897,15.08971l-0.18827,0.93196l-0.04119,1.39145l-1.57218,3.39313l-1.48285,3.43312l-1.0102,0.95778l-0.56954,0.76132l-3.87092,4.22282l1.61924,1.2954l1.8724,0.95867l1.3363,1.6083l0.46185,0.36948l1.88004,2.28875l0.01623,0.02434l0.65576,0.39511l0.57631,1.24327l0.54855,0.66021l0.0588,0.59312l1.04291,1.96311l0.26017,0.90493l1.11625,2.40809l0.04895,1.64479l0.45467,1.58145l-0.32921,2.63373l0.02801,0.94117l-0.47339,2.62183l-0.28804,2.30432l-0.50415,0.57617l-0.76968,2.69385l-0.51673,1.30141l-0.0364,0.16989l-0.28325,0.63517l-0.25665,0.64638l-0.09614,0.14473l-0.5703,1.27884l-4.53472,7.93577l-0.03159,0.59677l-1.26729,1.67625l-0.20229,0.35401l-1.71811,2.41267l-0.56215,0.517l-1.23119,1.62851l-0.3815,5.21375l-0.0596,2.0026l-0.10322,0.22268l-0.01791,0.24479l-0.92044,1.77953l-2.5614,5.52573l-1.33407,0.80379l-0.18566,0.22691l-3.46405,3.46405l3.97947,3.69081l0.55247,1.24143l0.25974,0.25006l0.26112,0.92034l1.69312,3.80453l0.61838,2.89664l0.26408,2.37668l0.2465,0.86881l-0.11212,0.3406l0.35603,3.20428l0.009,0.81882l0.00222,0.01007l0.0096,1.06643l0.01172,1.06641l-0.00202,0.0101l0.00738,0.81884l-0.57019,6.27203l0.502,4.01593l0.02895,1.17251l0.1167,1.16705v17.35317l-0.29472,2.94721l-0.15032,0.47243l-0.02929,0.49491l-0.78291,2.85656l-3.77243,9.80831l-0.78196,1.55152l-0.75883,1.56296l-6.03588,9.80831l-0.57901,0.75956l-0.50179,0.81265l-9.80831,12.82625l-2.02439,2.16211l-1.75259,1.22465l-0.74347,0.84968l-0.90984,0.3056l-2.17152,1.51739l-6.18832,1.2905l-1.43837,0.48311l-0.37705,-0.10453l-0.38304,0.07987l-1.40404,-0.5753l-6.0917,-1.68879l-2.06863,-1.65491l-0.88812,-0.36391l-0.68685,-0.89607l-1.66955,-1.33564l-1.88004,-2.28875l-2.053,-3.07949l-0.27543,-0.2399l-0.30373,-0.62886l-0.38577,-0.57866l-1.3896,-2.61571l-0.34193,-1.18935l-0.53823,-1.11436l-0.70856,-2.87591l-0.09835,-0.68847l-0.19297,-0.67119l0.0453,-0.36244l-0.73933,-5.17535l-0.52783,0.08875l-1.75664,0.3132l-9.14693,0.70361l-19.71493,2.92073l-0.44787,0.02125l-0.43949,0.08879l-7.54486,0.75448h-1.14203l-0.11338,0.02107l-0.85312,-0.02107h-0.85338l-0.11282,-0.02386l-1.14168,-0.02819l-12.07177,-1.50897l-1.2668,-0.28864l-0.15353,-0.00779l-0.73061,-0.19365l-0.73695,-0.16791l-0.13958,-0.06442l-1.25591,-0.33289l-12.07177,-4.52691l-1.35514,-0.66877l-1.38016,-0.61548l-5.2814,-3.01794l-0.09967,-0.07097l-1.44676,-0.39102l-2.78814,-3.22837l-1.3969,0.13969h-1.12446l-23.76731,2.88089l-0.60042,0.01258l-0.5932,0.09375l-26.40699,1.50897l-0.04258,-0.00182l-0.04213,0.00647l-14.33522,0.75448l-0.49664,-0.02341l-0.49473,0.04948h-20.72866l-6.09965,1.62657l-1.70989,0.27758l-0.20297,0.06458l-0.50741,0.05074l-0.50336,0.08172l-0.21275,-0.0101l-1.72368,0.17237h-8.75086l-4.28214,1.00756l-1.23746,0.16357l-0.13551,0.04312l-0.78314,0.07831l-0.78027,0.10314l-0.14178,-0.01093l-1.24202,0.1242h-3.77243l-2.94721,-0.29472l-1.33393,-0.42443l-2.53065,-0.39647l-1.32552,-0.83049l-1.29375,-0.41165l-1.68265,-1.4532l-2.95801,-1.85332l-0.50232,-1.13515l-1.34088,-1.15803l-1.27565,-4.71993l-14.08514,0.34354l-4.56234,3.9402l-6.48386,2.06304l-2.94721,0.29472h-9.05382l-0.50366,-0.05037l-0.08572,0.00243l-0.63945,-0.04567h-0.64802l-1.62005,-0.162l-7.65528,-0.54681l-0.18058,-0.03118l-0.18324,0.00165l-15.29818,-1.39074l-14.0935,0.67112l-15.39939,1.46661l-0.11187,-0.00053l-0.11001,0.02034l-18.10765,1.50897l-0.7851,-0.01298l-0.78132,0.07813h-23.38904l-1.8494,-0.18494l-1.84976,-0.18135l-11.31728,-2.26346l-0.96653,-0.29588l-0.07636,-0.008l-0.89244,-0.28857l-0.89685,-0.27454l-0.06717,-0.03717l-0.96178,-0.311l-6.75465,-2.95516l-6.13746,7.08169l-2.15294,2.03415l-2.58006,1.57707l-1.94856,1.77957l-1.26675,0.18579l-0.01013,0.0062l-3.60016,0.52331l-3.59948,0.52793l-0.01148,-0.00304l-1.26699,0.18417l-2.37604,-1.14813l-2.92327,-0.77351l-2.64467,-1.33364l-5.62621,-3.58031l-0.51947,-0.04651l-1.59098,-1.29651l-0.56268,-0.35806l-2.32822,-1.83093l-0.43674,-0.52272l-1.72268,-1.40383l-0.92522,-1.76542l-1.27795,-1.52957l-0.46752,-1.55697l-1.00973,0.34646l-4.61971,2.38951l-2.9798,0.21803l-0.76708,0.2632l-0.75804,-0.15161l-4.03944,0.29557l-2.94673,-1.6928l-3.33236,-0.66648l-2.84536,-2.88243l-0.67031,-0.38507l-0.40397,-0.70321l-2.09895,-2.1263l-1.90318,-4.84039l-1.22066,-2.12486l0.16029,-2.19073l-0.01634,-0.09736l-0.75448,-11.31728l0.02968,-0.8962l-0.00645,-0.03812l0.04125,-1.01284l0.03354,-1.01313l0.00924,-0.03753l0.03649,-0.89595l9.80831,-69.41265l0.61441,-2.51024l0.01633,-0.12152l0.04297,-0.12074l0.03047,-0.12448l0.05316,-0.11049l0.86653,-2.43473l14.64865,-30.98753l-0.78206,-3.06309l-0.44353,-2.92851l0.02604,-0.44788l-0.0873,-0.44006l0.03712,-2.96168l5.6283,-49.95121c-0.15396,0.00244 -0.30913,0.00367 -0.46551,0.00367c-11.01471,0 -18.78199,-8.21233 -18.86213,-18.86213c-0.09824,-13.05417 -2.87147,-26.49775 0.29472,-39.16251c1.00102,-4.00407 1.84817,-4.97621 2.59997,-7.85299c0.76763,-2.93737 4.14846,-15.81014 6.80726,-18.88874c0.68466,-1.08197 1.47638,-2.08947 2.36026,-3.00762c3.4314,-3.56444 8.25186,-5.78219 13.5903,-5.78219c2.36648,0 4.63118,0.43581 6.71821,1.23153c1.50737,0.33549 2.94115,0.82646 4.18646,1.71568z" fill-opacity="0.41176" fill="#000000" stroke-width="0.5"/><path d="M537.59064,-47.99363c10.70867,0 19.84478,6.73298 23.40594,16.19657l6.01036,-0.35355l1.53864,0.06299l1.53897,-0.05426l62,4l1.3297,0.22018l1.34426,0.09766l69,12l1.72892,0.48195l0.21765,0.02229l0.91219,0.29266l0.9228,0.25724l0.19403,0.10108l1.70903,0.54831l45.8535,19.93631l3.30676,1.84878l1.45634,0.63889l3.08858,3.29499l2.36568,2.06726l0.45098,0.93764l1.8603,1.98463l0.45126,2.82138l2.15923,4.48929l-0.69074,4.69207l0.44481,2.78105l-1.37846,3.56109l-0.55615,3.77784l-1.75796,2.20038l-1.71204,4.42285l-4.0917,2.84149l-1.78345,2.23228l-2.5969,0.80967l-0.8546,0.59348l-3.07734,0.63242l-4.31153,1.34426l-1.58204,-0.16205l-3.78843,-0.02157l-8.37118,-0.8853l-13.19894,-0.87993l-0.81673,0.72741l-0.03616,0.10766l-2.12017,1.85514l-0.03724,0.73357l0.06144,4.48485l-0.78596,1.90875l-0.51111,1.92828l-6,16l-0.128,0.25936l0.53418,0.49994l7,8l0.98951,1.3885l1.38386,1.44167l1.64481,4.3614l1.86133,4.27348l0.01294,1.99832l0.25858,1.68529l0.87993,16.71852l0.15463,0.47045l-0.08091,0.93039l0.04635,0.88064l-0.18477,3.92138l-0.41847,1.60222l-0.14345,1.64974l-1.14183,3.75601l-0.33917,0.81402l-0.236,0.90359l-0.30353,0.39129l-2.01549,4.83717l0.8275,1.17723l0.34132,1.61417l0.12342,0.29217l0.67092,3.4644l0.73003,3.45243v0.31717l0.31369,1.61977l-0.31369,1.4503v0.53849l-2,20l-0.24954,1.23522l-0.05458,1.84424l-2.08378,4.49728l-1.96538,4.55028l-1.33892,1.26945l-0.75487,1.00906l-5.13055,5.59695l2.14615,1.71692l2.4817,1.27063l1.77114,2.13165l0.61214,0.48971l2.49182,3.03352l0.02151,0.03226l0.86916,0.52367l0.76384,1.64784l0.72706,0.87505l0.07794,0.78612l1.38227,2.60193l0.34483,1.1994l1.47948,3.1917l0.06489,2.18001l0.60262,2.09607l-0.43634,3.49077l0.03713,1.24743l-0.62743,3.475l-0.38177,3.05416l-0.6682,0.76366l-1.02013,3.57046l-0.68489,1.72489l-0.04825,0.22518l-0.37542,0.84186l-0.34017,0.85671l-0.12742,0.19182l-0.75587,1.69498l-6.01035,10.51812l-0.04186,0.79095l-1.67967,2.22172l-0.26812,0.46921l-2.2772,3.19778l-0.74507,0.68524l-1.63183,2.15844l-0.50563,6.91034l-0.079,2.65426l-0.13681,0.29515l-0.02374,0.32445l-1.21997,2.3586l-3.3949,7.32384l-1.76819,1.06535l-0.24607,0.30076l-4.59127,4.59127l5.27442,4.89182l0.73225,1.64541l0.34426,0.33143l0.34609,1.21983l2.24407,5.04256l0.81961,3.83922l0.35001,3.15007l0.32671,1.15153l-0.1486,0.45142l0.47189,4.24698l0.01193,1.08528l0.00294,0.01333l0.01274,1.41345l0.01553,1.41343l-0.00268,0.01339l0.00977,1.0853l-0.75572,8.31299l0.66535,5.32274l0.03837,1.55406l0.15468,1.54681v23l-0.39062,3.90625l-0.19924,0.62617l-0.03882,0.65596l-1.03768,3.7861l-5,13l-1.03642,2.0564l-1.00576,2.07157l-8,13l-0.76743,1.00673l-0.66508,1.07709l-13,17l-2.68314,2.86567l-2.32289,1.62316l-0.98541,1.12617l-1.20591,0.40504l-2.87815,2.01115l-8.20205,1.71044l-1.90642,0.64033l-0.49975,-0.13855l-0.50767,0.10587l-1.86092,-0.76251l-8.07398,-2.23833l-2.74178,-2.19342l-1.17713,-0.48233l-0.91036,-1.18766l-2.21283,-1.77026l-2.49182,-3.03352l-2.72106,-4.08158l-0.36506,-0.31796l-0.40258,-0.8335l-0.5113,-0.76695l-1.84178,-3.46687l-0.45321,-1.57638l-0.71337,-1.47697l-0.93912,-3.81174l-0.13036,-0.91251l-0.25576,-0.8896l0.06004,-0.48037l-0.97992,-6.85944l-0.69959,0.11763l-2.32827,0.41511l-12.1234,0.93257l-26.1303,3.87116l-0.59361,0.02817l-0.58251,0.11768l-10,1h-1.51365l-0.15027,0.02792l-1.13074,-0.02792h-1.13108l-0.14954,-0.03162l-1.51319,-0.03737l-16,-2l-1.67903,-0.38256l-0.20349,-0.01033l-0.96836,-0.25667l-0.97675,-0.22255l-0.185,-0.08538l-1.66459,-0.44121l-16,-6l-1.79611,-0.88639l-1.82928,-0.81576l-7,-4l-0.1321,-0.09407l-1.91755,-0.51826l-3.69541,-4.2789l-1.85147,0.18515h-1.49037l-31.50135,3.81835l-0.79581,0.01667l-0.78623,0.12426l-35,2l-0.05643,-0.00241l-0.05584,0.00857l-19,1l-0.65825,-0.03102l-0.65571,0.06557h-27.4739l-8.08453,2.15587l-2.2663,0.36791l-0.26902,0.0856l-0.67253,0.06725l-0.66716,0.10831l-0.28198,-0.01339l-2.28458,0.22846h-11.59844l-5.67557,1.33543l-1.64013,0.21679l-0.1796,0.05715l-1.03798,0.10379l-1.03416,0.1367l-0.18792,-0.01449l-1.64619,0.16462h-5l-3.90625,-0.39062l-1.76801,-0.56255l-3.35414,-0.52548l-1.75685,-1.10074l-1.71476,-0.54561l-2.23019,-1.92608l-3.92057,-2.4564l-0.66577,-1.50453l-1.77721,-1.53486l-1.69076,-6.25583l-18.66853,0.45533l-6.04696,5.22237l-8.59375,2.73438l-3.90625,0.39063h-12l-0.66755,-0.06676l-0.11362,0.00322l-0.84753,-0.06054h-0.85888l-2.14723,-0.21472l-10.14636,-0.72474l-0.23935,-0.04132l-0.24287,0.00219l-20.27631,-1.8433l-18.67961,0.8895l-20.41045,1.94385l-0.14828,-0.0007l-0.14581,0.02696l-24,2l-1.04058,-0.0172l-1.03556,0.10355h-31l-2.45122,-0.24512l-2.45169,-0.24036l-15,-3l-1.28105,-0.39216l-0.1012,-0.0106l-1.18284,-0.38247l-1.18869,-0.36388l-0.08903,-0.04928l-1.27474,-0.41219l-8.95267,-3.91679l-8.13463,9.38612l-2.85352,2.69608l-3.41963,2.09026l-2.58263,2.35866l-1.67896,0.24625l-0.01343,0.00821l-4.77168,0.6936l-4.77077,0.69972l-0.01522,-0.00403l-1.67927,0.2441l-3.14922,-1.52174l-3.87452,-1.02522l-3.50527,-1.76761l-7.45702,-4.74538l-0.68851,-0.06164l-2.10869,-1.7184l-0.74578,-0.47458l-3.08584,-2.42673l-0.57885,-0.69281l-2.28325,-1.86064l-1.22629,-2.3399l-1.6938,-2.0273l-0.61966,-2.06362l-1.3383,0.4592l-6.12299,3.16707l-3.94945,0.28898l-1.0167,0.34885l-1.0047,-0.20094l-5.3539,0.39175l-3.90562,-2.24365l-4.41673,-0.88335l-3.77125,-3.82038l-0.88844,-0.51038l-0.53542,-0.93204l-2.78196,-2.81822l-2.5225,-6.41548l-1.61788,-2.8163l0.21246,-2.90361l-0.02165,-0.12905l-1,-15l0.03934,-1.18784l-0.00855,-0.05052l0.05467,-1.34242l0.04446,-1.3428l0.01226,-0.04975l0.04836,-1.1875l13,-92l0.81435,-3.32709l0.02163,-0.16106l0.05695,-0.16003l0.04039,-0.16499l0.07045,-0.14644l1.14851,-3.22701l19.41542,-41.07109l-1.03655,-4.05984l-0.58786,-3.88147l0.03452,-0.59362l-0.11572,-0.58326l0.04921,-3.92542l7.4598,-66.20567c-0.20406,0.00324 -0.40972,0.00486 -0.617,0.00486c-14.59897,0 -24.89378,-10.88468 -25,-25c-0.13021,-17.30209 -3.80587,-35.12029 0.39063,-51.90625c1.32675,-5.30702 2.44958,-6.5955 3.44602,-10.40841c1.01742,-3.89321 5.4984,-20.95486 9.02239,-25.03527c0.90746,-1.43405 1.9568,-2.76939 3.1283,-3.98631c4.54801,-4.72433 10.93707,-7.66376 18.01267,-7.66376c3.13655,0 6.1382,0.57761 8.90436,1.63228c1.99788,0.44467 3.89822,1.0954 5.54877,2.27397l-0.00004,-0.0001c0.63431,0.45293 1.21155,0.96845 1.75128,1.5251l7.33872,-2.29335l3.40936,-0.70254l2.24032,-1.3779l0.1718,-0.06136l0.14743,-0.10745l3.58226,-1.60585l18,-6l2.3035,-0.52014l2.2981,-0.54347l15,-2l3.92361,-0.12907l0.18731,0.03321l0.18908,-0.021l3.907,0.38303l8.16269,1.63254c2.33204,-0.98224 4.71735,-2.00451 7.20097,-2.25287c11.49526,-1.14953 20.8642,-0.33495 31.2668,3.13486c3.35027,1.11749 7.86407,0.75296 11.37288,1.39063c4.61361,0.83845 9.08818,2.1976 13.16354,4.30032l16.0273,-3.20546l2.157,-0.21147l2.15084,-0.26693l42,-1l0.29785,0.02264l0.29722,-0.02972h23l1.03556,0.10356l1.04058,-0.0172l18.9499,1.57916l21.98433,-9.58291l3.73693,-1.20279l0.01614,-0.00167l0.01493,-0.00637l3.85163,-0.75918l94.24814,-8.97519l2.42879,0.01148h2.42882l49.75186,4.97519l1.92482,0.38885l0.24792,0.0093l0.83321,0.20911l0.84204,0.1701l0.22775,0.09838l1.90465,0.478l7.73836,2.78581l3.40445,0.40052c3.48853,-9.60394 12.69555,-16.46403 23.50484,-16.46403zM554.47499,312.55625c3.36692,0 6.11203,2.66233 6.24496,5.99665c0.64314,0.11907 1.38404,0.29562 2.16719,0.55741l10.90305,-0.29467l35.99062,-0.99974l0.3475,0.02503l0.34668,-0.03467h1.72483l11.86408,-8.70032l-0.22352,-14.0815c-3.15372,-0.31802 -5.61539,-2.98063 -5.61539,-6.21818c0,-3.16981 2.35973,-5.78848 5.41835,-6.19515l-0.1652,-10.40807l0.07646,-0.91032l-0.0389,-0.9127l0.76636,-13.41134l-3.48475,-3.48475l-0.02508,-0.03066l-0.93971,-0.69931l-0.90312,-1.55302l-0.61801,-0.75536l-1.43844,-2.78097l-1.57394,-2.70659l-0.30547,-0.92693l-0.82536,-1.5957l-0.08548,-1.16824l-0.0124,-0.03763l-2.25351,-10.14076c-0.96653,0.61273 -2.11275,0.9675 -3.34182,0.9675c-3.45178,0 -6.25,-2.79822 -6.25,-6.25c0,-3.45178 2.79822,-6.25 6.25,-6.25c0.39959,0 0.79044,0.0375 1.16918,0.10918l-0.03992,-0.33389l0.22333,-2.49191l-0.0275,-2.50174l0.45609,-2.2804l0.1531,-1.70823l0.47157,-0.8763l14.32486,-46.79457l1.2696,-3.03045l0.05544,-0.18858l0.10576,-0.19621l0.08612,-0.20558l0.11181,-0.16166l1.55894,-2.89227l2.62584,-3.88778c-0.78462,0.12367 -1.63107,0.19038 -2.54423,0.19038c-12.5,0 -12.5,-12.5 -12.5,-12.5l0.16141,-1.99773c-0.33334,-1 -0.94762,-1.94721 -1,-3c-0.00015,-0.0031 -0.00029,-0.00622 -0.00041,-0.00936c-1.49157,-1.14383 -2.84,-2.46457 -3.68193,-4.09469c-1.70621,-3.30352 -1.83984,-8.54884 -1.71141,-13.40104l-2.24908,-2.35451l-0.63776,-1.03068l-2.25582,-2.612l-0.67696,-2.12757l-1.17482,-1.89858l-0.51511,-3.41261l-0.36749,-1.15498l-0.24076,-2.40757c-0.47269,-0.18466 -0.74004,-0.31834 -0.74004,-0.31834l-8.90983,-12.18034c1.74805,2.02818 -1.18604,-1.32449 -1.46365,-2.3777c-0.64819,-2.45909 0.14715,-5.13111 -0.37494,-7.62002c-0.04354,-0.20757 -0.10303,-0.41097 -0.1717,-0.61195c-0.91188,-0.41102 -1.79551,-1.01087 -2.32854,-1.5515c-1.76873,-1.79393 -1.54723,-4.82027 -2.70966,-7.05529c-0.43503,-0.83644 -1.7277,-1.09737 -2,-2c-1.02327,-3.39188 -1.15449,-7.10365 -1.09982,-10.78354h-36.4203l-0.23576,0.13544l-1.85096,-0.13544h-2.84467l-3.90625,-0.39062l-0.42179,-0.13421l-2.30108,-0.16837l-2.83227,-1.46496l-3.03861,-0.96683l-1.74617,-1.50805l-0.39315,-0.20335l-3.03835,-2.48592l-1.70657,-1.70658l-2.04642,-1.24683l-1.00372,-2.19369l-0.72921,-0.89125l-3.71891,-7.18989l-13.10176,1.00783c-1.49976,5.22194 -6.31155,9.04274 -12.01574,9.04274c-4.74447,0 -8.87157,-2.64326 -10.989,-6.5375c-1.78357,0.98006 -3.83219,1.5375 -6.011,1.5375c-2.05325,0 -3.99086,-0.49504 -5.70001,-1.37229l-8.99316,0.69178l-0.61198,0.77426l-3.60876,1.14591l-2.1804,0.97742l-6,2l-1.4477,0.3269l-1.41667,0.44244l-51.11479,10.52363c0.20979,0.62506 0.32346,1.29423 0.32346,1.98994c0,3.45178 -2.79822,6.25 -6.25,6.25c-3.27915,0 -5.96847,-2.52533 -6.22927,-5.73728l-4.7294,0.9737l-1.63769,0.1699l-1.62246,0.28014l-6.48061,0.4629c-1.03611,1.22214 -2.14068,2.67074 -3.69779,4.60293c0,0 -4.49016,5.38819 -10.77971,4.72884c-2.28893,2.90427 -5.83825,4.76886 -9.82306,4.76886c-6.55844,0 -11.93718,-5.05088 -12.45857,-11.47498l-12.76025,0.91145l-1.13253,-0.03213l-1.12932,0.09103l-20.94674,-0.40282c-0.01413,0.02217 -0.02823,0.0442 -0.04232,0.06609c-0.37897,2.68732 -0.91279,5.2868 -2.69142,7.18019c-2.82817,3.01063 -7.79266,2.82996 -11.83884,3.66117c-7.13252,1.46523 -13.34797,-3.27778 -20.05498,-4.17007c0,0 -1.25292,-0.20882 -2.8934,-0.89273c-1.54474,0.68328 -3.25385,1.0628 -5.05161,1.0628c-6.90356,0 -12.5,-5.59644 -12.5,-12.5c0,-1.64305 0.317,-3.21205 0.89319,-4.64919l-2.23785,-2.87723l-0.63336,0.11422l-13.39515,2.51159l-0.30552,0.15418l-0.77931,0.04922l-1.43479,0.26902l-3.91133,0.33594l-1.43346,-0.17678l-0.11661,0.00737c-3.03415,10.08785 -11.44659,17.62434 -22.74827,18.41744c-6.86723,0.48191 -13.44984,-2.04817 -18.60935,-6.30854l0.06022,0.91845l0.33283,2.05322l-0.97386,3.91837l-0.57503,3.99642l-1.08225,1.7763l-1.25865,2.59244l-4.09404,6.65281l0.13622,0.27027l5,13l0.34814,1.27024l0.78557,1.69471l0.14628,4.91505l0.29054,4.90863l-0.63205,1.75776l-0.23402,1.29612l-3.23468,11.3214l0.00373,0.21184l-0.2154,0.529l-0.33251,1.16379l0.50565,1.27278l-0.12242,4.68123l0.10415,4.68167l-0.74148,1.84538l-0.3883,1.62518l-0.24344,0.70109c2.79109,0.62583 4.8766,3.11868 4.8766,6.09862c0,3.45178 -2.79822,6.25 -6.25,6.25c-0.96766,0 -1.88396,-0.21991 -2.70164,-0.61247l-14.62546,42.12132l1.12836,1.37365l1.0532,1.5798l1.4845,1.84107l0.03045,0.36122l0.50559,0.58541l0.51857,1.62978l0.24947,0.46959l0.93754,3.261l1.0288,3.23337l0.05291,0.5291l0.47257,1.64371l-0.17122,1.36977l0.03637,0.36368v13l-0.07868,0.78675l0.15839,1.61609l-0.46774,1.47741l-0.0026,0.026l-1.12838,3.54633l-1.12326,3.54795l-0.01287,0.02274l-0.46987,1.47673l-1.06137,1.22896l-0.38943,0.68812l-12,17l-0.2212,0.25511l-0.73816,1.90971l-6.76901,4.70565l-2.03319,1.53949l-0.28238,0.07024l-0.23892,0.16609l-2.49781,0.51459l-3.07189,0.76405l-1.26913,3.80741l1.1383,0.46871l1.26998,1.91445l0.06569,0.04379l2.74524,2.80625l4,5l1.00113,1.54459l1.5361,-0.63251l3.18842,0.04368l3.15019,-0.49415l2.23624,0.56793l0.44259,0.00606l3.82932,0.86469l2.69869,0.89956l1.79881,0.45684l0.18084,0.20304l4.32167,1.44056l0.14799,0.06634l1.98195,0.13213l7.12556,5.5421l1.61483,1.17692l0.08756,0.14717l0.13517,0.10513l0.96753,1.74834l0.56739,0.9537l0.44614,0.08596l0.7287,0.03589l18.15606,2.72341h15.314l1.91518,-0.60937l3.90625,-0.39062h6l1.93443,0.19344l0.2446,-0.01544l0.86119,0.12603l0.86603,0.0866l0.23355,0.07431l1.2295,0.17992c0.99056,-0.14486 1.6307,-0.14486 1.6307,-0.14486c2.93856,0 9.2822,-0.02017 11.00228,0.16141c1.04827,0.11066 1.95165,0.89008 3,1c5.6979,0.59745 10.79436,-0.58882 16.09749,0.56581c2.0534,-6.52425 9.34798,-10.87198 16.13195,-11.66638c3.60486,-0.42212 5.99883,4.08839 9.04082,6.06819c1.74211,1.1338 5.2089,2.49353 6.69419,4.85992c0.60385,0.0174 1.20862,0.04505 1.81,0.03521c6.25339,0.78168 12.55055,1.21491 18.84559,1.5122l6.31145,3.56302c0,0 6.28139,4.18759 5.82682,10.93561l21.62985,-0.52756l0.30512,0.02301l0.30446,-0.03044h26l2.72649,0.27265l0.27828,-0.00829l0.44825,0.08094l0.45324,0.04532l0.26529,0.08441l2.69649,0.48687l7,2l1.62499,0.64522l1.66044,0.54759l1.9019,0.84529h5.49025l28.32127,-1.02986c1.92257,-6.05303 8.69911,-7.98919 8.69911,-7.98919c14.58711,-4.15915 29.44756,-7.90836 44.10788,-11.75035c6.46125,-1.69329 12.81074,-4.41212 19.48494,-4.67677c3.13288,-0.12423 5.71195,2.63069 8.70675,3.55889c1.84721,0.57252 3.89437,0.30376 5.72904,0.91528c3.23563,1.07846 6.11863,3.07788 9.36727,4.11647c3.89285,1.24455 7.97829,1.77792 11.95947,2.70169c8.52332,1.9777 17.05628,4.00368 25.49405,6.34465c1.02864,-2.04091 3.14315,-3.44081 5.58461,-3.44081z" fill="#000000" stroke-width="0.5"/><path d="M-46.525,351.46533v-353h122v353z" fill="#000000" stroke-width="0"/><path d="M696.41076,362.80625v-353h57v353z" fill="#000000" stroke-width="0"/><path d="M601.60292,349.19242c4.71192,0 8.55363,3.72586 8.73966,8.39215c0.90006,0.16663 1.93693,0.41371 3.03293,0.78008l15.25853,-0.41238l50.36793,-1.39912l0.48632,0.03503l0.48517,-0.04851h2.41385l16.60347,-12.17587l-0.31281,-19.70669c-4.41355,-0.44506 -7.85859,-4.17132 -7.85859,-8.70218c0,-4.43607 3.30238,-8.10082 7.58284,-8.66995l-0.23119,-14.56582l0.107,-1.27397l-0.05444,-1.2773l1.0725,-18.76881l-4.87682,-4.87682l-0.0351,-0.04291l-1.3151,-0.97866l-1.26389,-2.17341l-0.86489,-1.05711l-2.01306,-3.89189l-2.20268,-3.7878l-0.4275,-1.29722l-1.15507,-2.23314l-0.11963,-1.63492l-0.01736,-0.05266l-3.15373,-14.19173c-1.35264,0.8575 -2.95673,1.35399 -4.67679,1.35399c-4.83068,0 -8.74671,-3.91604 -8.74671,-8.74671c0,-4.83068 3.91604,-8.74671 8.74671,-8.74671c0.55921,0 1.1062,0.05248 1.63623,0.15279l-0.05587,-0.46728l0.31255,-3.48736l-0.03849,-3.50112l0.63829,-3.19136l0.21426,-2.39062l0.65995,-1.22636l20.04727,-65.48777l1.77677,-4.24103l0.07759,-0.26391l0.14801,-0.27459l0.12052,-0.2877l0.15648,-0.22624l2.18169,-4.04766l3.6748,-5.44084c-1.09805,0.17307 -2.28264,0.26643 -3.56058,0.26643c-17.49342,0 -17.49342,-17.49342 -17.49342,-17.49342l0.22589,-2.79577c-0.4665,-1.39947 -1.32617,-2.72507 -1.39947,-4.19842c-0.00021,-0.00434 -0.00041,-0.0087 -0.00057,-0.0131c-2.08741,-1.60076 -3.97451,-3.4491 -5.15277,-5.73041c-2.3878,-4.62319 -2.57481,-11.96388 -2.39507,-18.7544l-3.14753,-3.29508l-0.89253,-1.44241l-3.15696,-3.65542l-0.94738,-2.97748l-1.64413,-2.65701l-0.72089,-4.77585l-0.51429,-1.61636l-0.33694,-3.36933c-0.66152,-0.25843 -1.03567,-0.44551 -1.03567,-0.44551l-12.46907,-17.04606c2.44635,2.83838 -1.65983,-1.85359 -2.04834,-3.32753c-0.90713,-3.44143 0.20593,-7.18085 -0.52472,-10.66402c-0.06093,-0.29049 -0.14419,-0.57515 -0.24029,-0.85641c-1.27615,-0.57521 -2.51277,-1.41469 -3.25873,-2.17129c-2.47529,-2.51056 -2.1653,-6.74584 -3.7921,-9.87369c-0.60881,-1.17058 -2.41787,-1.53574 -2.79895,-2.79894c-1.43204,-4.74684 -1.61568,-9.94137 -1.53917,-15.09128h-50.96925l-0.32994,0.18954l-2.59037,-0.18954h-3.98104l-5.4667,-0.54667l-0.59029,-0.18782l-3.2203,-0.23563l-3.96369,-2.05017l-4.25245,-1.35305l-2.44371,-2.11048l-0.5502,-0.28458l-4.2521,-3.47898l-2.3883,-2.38831l-2.86391,-1.7449l-1.40468,-3.07001l-1.02051,-1.24728l-5.20452,-10.06207l-18.33557,1.41044c-2.09888,7.30797 -8.83285,12.65508 -16.81571,12.65508c-6.63976,0 -12.41554,-3.69918 -15.37882,-9.14906c-2.49606,1.37157 -5.36305,2.15169 -8.41224,2.15169c-2.87347,0 -5.5851,-0.6928 -7.97701,-1.92049l-12.58569,0.96813l-0.85645,1.08355l-5.05036,1.60367l-3.05141,1.36787l-8.39684,2.79895l-2.02602,0.45749l-1.9826,0.61918l-71.5338,14.72755c0.29359,0.87475 0.45267,1.81124 0.45267,2.78487c0,4.83068 -3.91604,8.74671 -8.74671,8.74671c-4.58908,0 -8.35272,-3.53413 -8.7177,-8.02917l-6.61867,1.36267l-2.29191,0.23777l-2.27059,0.39205l-9.06944,0.64782c-1.45001,1.71035 -2.99583,3.73763 -5.17496,6.44168c0,0 -6.28386,7.54063 -15.08592,6.61789c-3.2033,4.06445 -8.17048,6.67389 -13.74711,6.67389c-9.17836,0 -16.70577,-7.06857 -17.43544,-16.05894l-17.85764,1.27555l-1.58495,-0.04497l-1.58045,0.12739l-29.31441,-0.56374c-0.01977,0.03103 -0.0395,0.06186 -0.05922,0.09249c-0.53036,3.76084 -1.27743,7.39874 -3.76657,10.04849c-3.95795,4.2133 -10.90562,3.96046 -16.56814,5.12371c-9.98177,2.05055 -18.68014,-4.58717 -28.06642,-5.83591c0,0 -1.75343,-0.29224 -4.04924,-1.24935c-2.16182,0.95623 -4.55368,1.48736 -7.0696,1.48736c-9.66135,0 -17.49342,-7.83207 -17.49342,-17.49342c0,-2.2994 0.44364,-4.49518 1.25,-6.50642l-3.13181,-4.02661l-0.88637,0.15985l-18.74616,3.51491l-0.42757,0.21577l-1.09062,0.06888l-2.00795,0.37649l-5.4738,0.47014l-2.00609,-0.2474l-0.16319,0.01031c-4.24621,14.11768 -16.0192,24.6648 -31.83561,25.77472c-9.61051,0.67442 -18.8227,-2.86636 -26.0433,-8.82864l0.08428,1.28535l0.46579,2.87343l-1.36289,5.48366l-0.80474,5.59289l-1.51458,2.48588l-1.76145,3.62805l-5.7295,9.31043l0.19064,0.37823l6.99737,18.19316l0.48721,1.77767l1.09939,2.37171l0.20471,6.87848l0.4066,6.8695l-0.88454,2.45994l-0.3275,1.81389l-4.52685,15.844l0.00522,0.29647l-0.30145,0.74032l-0.46534,1.62869l0.70765,1.78123l-0.17132,6.55126l0.14575,6.55187l-1.03768,2.58256l-0.54341,2.27439l-0.34069,0.98116c3.90606,0.87584 6.82467,4.36451 6.82467,8.53486c0,4.83068 -3.91604,8.74671 -8.74671,8.74671c-1.35421,0 -2.63655,-0.30776 -3.78087,-0.85713l-20.46795,58.94768l1.57911,1.92239l1.47392,2.21089l2.07752,2.57653l0.04262,0.50552l0.70756,0.81927l0.72572,2.28083l0.34913,0.65718l1.31207,4.56369l1.43977,4.52501l0.07405,0.74046l0.66135,2.30033l-0.23962,1.91696l0.0509,0.50896v18.19316l-0.11011,1.10103l0.22166,2.26168l-0.65459,2.0676l-0.00364,0.03639l-1.57914,4.963l-1.57197,4.96526l-0.01801,0.03183l-0.65757,2.06664l-1.48536,1.7199l-0.545,0.96301l-16.79368,23.79105l-0.30956,0.35702l-1.03303,2.67259l-9.47305,6.58543l-2.84539,2.15448l-0.39518,0.0983l-0.33437,0.23244l-3.49562,0.72016l-4.29903,1.06927l-1.77611,5.32837l1.59302,0.65595l1.77731,2.67922l0.09193,0.06128l3.84189,3.92727l5.59789,6.99737l1.40105,2.16161l2.14973,-0.88519l4.46211,0.06113l4.40861,-0.69155l3.12956,0.7948l0.61939,0.00848l5.35904,1.21011l3.77674,1.25891l2.51739,0.63933l0.25308,0.28415l6.04806,2.01603l0.20711,0.09284l2.77369,0.18491l9.97203,7.75602l2.25991,1.64707l0.12254,0.20596l0.18917,0.14712l1.35403,2.44676l0.79405,1.33467l0.62436,0.1203l1.01979,0.05023l25.40893,3.81134h21.43155l2.68024,-0.8528l5.46669,-0.54667h8.39685l2.70718,0.27072l0.34231,-0.02161l1.20521,0.17638l1.21199,0.12119l0.32685,0.10399l1.72066,0.25179c1.38626,-0.20273 2.28212,-0.20273 2.28212,-0.20273c4.11244,0 12.9902,-0.02822 15.3974,0.22589c1.46703,0.15487 2.73128,1.24564 4.19842,1.39947c7.97406,0.83612 15.10642,-0.82404 22.52801,0.79184c2.87368,-9.13051 13.08225,-15.21505 22.57624,-16.32679c5.04491,-0.59075 8.3952,5.72159 12.65239,8.49227c2.43804,1.58672 7.28972,3.48963 9.36834,6.80133c0.84507,0.02435 1.69144,0.06305 2.53305,0.04928c8.75146,1.09394 17.56416,1.70023 26.37391,2.11628l8.83271,4.98635c0,0 8.79064,5.86042 8.15448,15.3041l30.27041,-0.7383l0.42701,0.0322l0.42608,-0.0426h36.38632l3.81565,0.38157l0.38944,-0.0116l0.62732,0.11327l0.6343,0.06342l0.37127,0.11813l3.77366,0.68136l9.79632,2.79895l2.27413,0.90297l2.32374,0.76634l2.66166,1.18296h7.68346l39.63488,-1.44126c2.69059,-8.47106 12.17418,-11.18066 12.17418,-11.18066c20.41428,-5.82062 41.21109,-11.06754 61.72782,-16.44431c9.04235,-2.36971 17.92829,-6.17464 27.26866,-6.54501c4.38438,-0.17385 7.99373,3.68158 12.18487,4.98057c2.58512,0.80122 5.45007,0.42511 8.01764,1.28091c4.52818,1.50928 8.56287,4.30741 13.10925,5.76089c5.44794,1.74172 11.16541,2.48815 16.73697,3.78094c11.92816,2.76774 23.86982,5.60305 35.67825,8.87918c1.43955,-2.8562 4.39876,-4.81532 7.81552,-4.81532zM-68.11086,-105.41788c0.8877,0.63387 1.69553,1.35532 2.45087,2.13434l10.27035,-3.20948l4.77131,-0.98319l3.13527,-1.92833l0.24043,-0.08587l0.20633,-0.15038l5.01328,-2.24734l25.19053,-8.39684l3.22369,-0.72792l3.21613,-0.76058l20.99211,-2.79894l5.49099,-0.18063l0.26213,0.04648l0.26461,-0.02939l5.46774,0.53604l11.42347,2.2847c3.26363,-1.37462 6.60181,-2.80526 10.07757,-3.15283c16.08731,-1.60874 29.1989,-0.46875 43.75707,4.38716c4.68861,1.5639 11.00556,1.05375 15.91605,1.94615c6.45662,1.17339 12.71867,3.07548 18.42203,6.01819l22.42979,-4.48596l3.01866,-0.29595l3.01005,-0.37356l58.77789,-1.39947l0.41683,0.03168l0.41595,-0.04159h32.18789l1.44924,0.14493l1.45626,-0.02407l26.51989,2.20999l30.76649,-13.41103l5.22973,-1.68328l0.02259,-0.00234l0.02089,-0.00891l5.39025,-1.06245l131.8978,-12.56054l3.39903,0.01606h3.39907l69.62642,6.96265l2.69374,0.54418l0.34696,0.01302l1.16606,0.29264l1.17842,0.23805l0.31873,0.13768l2.66551,0.66894l10.82963,3.89867l25.29412,2.97577l5.09898,-0.42491l0.42814,0.00707l0.42285,-0.06755l47.5821,-2.79895l2.15329,0.08816l2.15375,-0.07594l86.76738,5.5979l1.86087,0.30813l1.88126,0.13668l96.56369,16.79368l2.41957,0.67448l0.3046,0.03119l1.27659,0.40957l1.29143,0.36l0.27154,0.14146l2.39174,0.76734l64.17077,27.90034l4.62773,2.58732l2.03811,0.89411l4.32239,4.61125l3.31071,2.89308l0.63113,1.3122l2.60344,2.77744l0.63153,3.94845l3.02179,6.28264l-0.96667,6.56643l0.6225,3.89201l-1.92912,4.98365l-0.77832,5.28699l-2.46022,3.07938l-2.39595,6.18966l-5.72622,3.97659l-2.4959,3.12402l-3.63429,1.13311l-1.19599,0.83056l-4.30666,0.88505l-6.03387,1.88125l-2.21402,-0.22678l-5.30181,-0.03018l-11.71525,-1.23896l-18.47157,-1.23144l-1.14299,1.01799l-0.0506,0.15067l-2.96713,2.59622l-0.05212,1.02661l0.08598,6.27643l-1.09993,2.67125l-0.71529,2.69858l-8.39684,22.39158l-0.17914,0.36297l0.74758,0.69965l9.79632,11.19579l1.38479,1.94317l1.93667,2.01758l2.30187,6.10366l2.60488,5.98062l0.01811,2.7966l0.36188,2.35852l1.23144,23.39713l0.2164,0.65838l-0.11323,1.30206l0.06487,1.23243l-0.25858,5.48787l-0.58564,2.24226l-0.20075,2.30877l-1.59796,5.25644l-0.47466,1.1392l-0.33027,1.26455l-0.42479,0.5476l-2.82063,6.76949l1.15807,1.6475l0.47767,2.25899l0.17272,0.40889l0.93893,4.84834l1.02166,4.83158v0.44387l0.439,2.26683l-0.439,2.02966v0.7536l-2.79895,27.98948l-0.34922,1.72866l-0.07638,2.58097l-2.91619,6.29382l-2.7505,6.36799l-1.87378,1.77657l-1.05643,1.41215l-7.18006,7.83278l3.00348,2.40279l3.47307,1.77821l2.47867,2.98319l0.85667,0.68534l3.48724,4.24533l0.03011,0.04515l1.21636,0.73286l1.06897,2.30611l1.0175,1.22461l0.10907,1.10015l1.93445,3.64133l0.48259,1.67853l2.07049,4.4667l0.09081,3.05087l0.84335,2.9334l-0.61064,4.88524l0.05196,1.74575l-0.87807,4.86317l-0.53428,4.27422l-0.93512,1.06872l-1.42765,4.99676l-0.95849,2.41394l-0.06752,0.31513l-0.52539,1.17816l-0.47606,1.19894l-0.17832,0.26844l-1.05781,2.37208l-8.41133,14.71983l-0.05858,1.10692l-2.35066,3.10924l-0.37522,0.65665l-3.18688,4.47521l-1.04271,0.95898l-2.2837,3.02068l-0.70762,9.67084l-0.11056,3.71457l-0.19146,0.41305l-0.03322,0.45406l-1.70732,3.3008l-4.75107,10.24952l-2.47453,1.49093l-0.34437,0.42091l-6.42536,6.42536l7.38142,6.84597l1.02477,2.30271l0.48178,0.46383l0.48434,1.70712l3.14052,7.05693l1.14702,5.37289l0.48983,4.40844l0.45722,1.61154l-0.20796,0.63175l0.6604,5.94354l0.01669,1.51882l0.00412,0.01866l0.01783,1.97808l0.02174,1.97806l-0.00375,0.01874l0.01367,1.51885l-1.05761,11.63381l0.93113,7.44903l0.0537,2.17486l0.21647,2.16472v32.18789l-0.54666,5.4667l-0.27883,0.87631l-0.05432,0.918l-1.45221,5.29855l-6.99737,18.19316l-1.45044,2.87788l-1.40754,2.89911l-11.19579,18.19316l-1.074,1.40889l-0.93076,1.50736l-18.19316,23.79106l-3.75498,4.01043l-3.25082,2.27157l-1.37906,1.57605l-1.68764,0.56684l-4.0279,2.81455l-11.47856,2.39372l-2.66799,0.89612l-0.69938,-0.1939l-0.71047,0.14816l-2.60431,-1.06711l-11.29932,-3.13248l-3.83704,-3.06964l-1.64737,-0.675l-1.27402,-1.6621l-3.0968,-2.47743l-3.48724,-4.24533l-3.80805,-5.71206l-0.51089,-0.44498l-0.5634,-1.16646l-0.71555,-1.07333l-2.57752,-4.85179l-0.63426,-2.2061l-0.99835,-2.06698l-1.31427,-5.33443l-0.18243,-1.27703l-0.35793,-1.24497l0.08403,-0.67226l-1.37137,-9.59961l-0.97906,0.16462l-3.25836,0.58094l-16.96638,1.3051l-36.56867,5.41759l-0.83074,0.03942l-0.81521,0.16469l-13.99474,1.39947h-2.11831l-0.2103,0.03907l-1.58244,-0.03907h-1.58292l-0.20927,-0.04425l-2.11767,-0.0523l-22.39158,-2.79895l-2.34976,-0.53538l-0.28478,-0.01445l-1.3552,-0.3592l-1.36693,-0.31145l-0.25891,-0.11949l-2.32955,-0.61746l-22.39158,-8.39684l-2.51361,-1.24048l-2.56003,-1.14163l-9.79632,-5.59789l-0.18487,-0.13165l-2.68356,-0.72529l-5.17163,-5.98821l-2.59108,0.25912h-2.08573l-44.08531,5.34368l-1.11372,0.02333l-1.1003,0.1739l-48.98158,2.79895l-0.07897,-0.00337l-0.07815,0.012l-26.59,1.39947l-0.9212,-0.04341l-0.91765,0.09176h-38.449l-11.31409,3.01709l-3.17162,0.51488l-0.37649,0.11979l-0.94119,0.09412l-0.93367,0.15157l-0.39463,-0.01874l-3.19721,0.31972h-16.23171l-7.94281,1.8689l-2.29532,0.30339l-0.25135,0.07998l-1.45263,0.14525l-1.44728,0.19131l-0.26299,-0.02028l-2.3038,0.23039h-6.99737l-5.46669,-0.54666l-2.47429,-0.78728l-4.69403,-0.73539l-2.45867,-1.54045l-2.39976,-0.76357l-3.12109,-2.6955l-5.48673,-3.43767l-0.93173,-2.10555l-2.48716,-2.148l-2.36618,-8.75487l-26.12612,0.63722l-8.46256,7.30857l-12.02673,3.82669l-5.46669,0.54667h-16.79369l-0.93422,-0.09343l-0.15901,0.00451l-1.18609,-0.08472h-1.20198l-3.00499,-0.30049l-14.19956,-1.01426l-0.33497,-0.05782l-0.33989,0.00306l-28.37616,-2.57965l-26.14163,1.24483l-28.56389,2.72037l-0.20751,-0.00098l-0.20406,0.03773l-33.58737,2.79895l-1.45626,-0.02407l-1.44924,0.14492h-43.38368l-3.43042,-0.34304l-3.43107,-0.33638l-20.99211,-4.19842l-1.7928,-0.54882l-0.14163,-0.01483l-1.65535,-0.53526l-1.66354,-0.50924l-0.1246,-0.06897l-1.78397,-0.57685l-12.52902,-5.48144l-11.3842,13.13563l-3.99343,3.77309l-4.78568,2.92526l-3.61432,3.30088l-2.34966,0.34462l-0.01879,0.01149l-6.67784,0.97067l-6.67656,0.97924l-0.0213,-0.00564l-2.35009,0.34161l-4.40725,-2.12963l-5.42229,-1.43477l-4.90553,-2.47372l-10.4359,-6.64104l-0.96355,-0.08626l-2.95106,-2.40486l-1.0437,-0.66416l-4.31855,-3.39615l-0.81008,-0.96957l-3.19535,-2.60392l-1.71616,-3.27463l-2.37043,-2.83715l-0.8672,-2.88799l-1.87292,0.64264l-8.56896,4.43223l-5.52715,0.40442l-1.42284,0.48821l-1.40605,-0.28121l-7.49265,0.54824l-5.46581,-3.13993l-6.1811,-1.23623l-5.27776,-5.34652l-1.24335,-0.71426l-0.74931,-1.30437l-3.89328,-3.94402l-3.53017,-8.9783l-2.26418,-3.94134l0.29733,-4.06352l-0.0303,-0.1806l-1.39947,-20.99211l0.05505,-1.66235l-0.01197,-0.0707l0.07651,-1.87868l0.06222,-1.87921l0.01716,-0.06963l0.06768,-1.66187l18.19316,-128.75158l1.13967,-4.65618l0.03027,-0.2254l0.0797,-0.22396l0.05653,-0.23089l0.09859,-0.20494l1.60731,-4.51612l27.17137,-57.47791l-1.45062,-5.68164l-0.8227,-5.43202l0.04831,-0.83075l-0.16195,-0.81626l0.06887,-5.49352l10.43979,-92.6531c-0.28558,0.00453 -0.57339,0.0068 -0.86347,0.0068c-20.43087,0 -34.83819,-15.23282 -34.98684,-34.98684c-0.18222,-24.21382 -5.32621,-49.14992 0.54668,-72.64143c1.85675,-7.42703 3.42812,-9.23024 4.82261,-14.5663c1.42385,-5.44845 7.69487,-29.32577 12.6266,-35.0362c1.26996,-2.00692 2.73849,-3.87569 4.37797,-5.57874c6.36482,-6.61158 15.30614,-10.72523 25.20826,-10.72523c4.38952,0 8.59025,0.80835 12.46142,2.28433c2.79598,0.6223 5.45545,1.53299 7.76536,3.18236z" fill="#151515" stroke-width="0.5"/></g></g></svg>