<svg version="1.1" xmlns="http://www.w3.org/2000/svg" xmlns:xlink="http://www.w3.org/1999/xlink" width="41.97818" height="41.97818" viewBox="0,0,41.97818,41.97818"><defs><linearGradient x1="373.5" y1="160.01092" x2="373.5" y2="199.9891" gradientUnits="userSpaceOnUse" id="color-1"><stop offset="0" stop-color="#ff0000"/><stop offset="1" stop-color="#005cff"/></linearGradient><linearGradient x1="363.44444" y1="165.44446" x2="363.44444" y2="194.55557" gradientUnits="userSpaceOnUse" id="color-2"><stop offset="0" stop-color="#ff0000"/><stop offset="1" stop-color="#005cff"/></linearGradient><linearGradient x1="373.33333" y1="165.44446" x2="373.33333" y2="194.55557" gradientUnits="userSpaceOnUse" id="color-3"><stop offset="0" stop-color="#ff0000"/><stop offset="1" stop-color="#005cff"/></linearGradient><linearGradient x1="383.55555" y1="165.44446" x2="383.55555" y2="194.55557" gradientUnits="userSpaceOnUse" id="color-4"><stop offset="0" stop-color="#ff0000"/><stop offset="1" stop-color="#005cff"/></linearGradient></defs><g transform="translate(-352.51091,-159.01092)"><g stroke="#000000" stroke-width="2" stroke-miterlimit="10"><path d="M353.51091,199.9891v-39.97818h39.97818v39.97818z" fill="url(#color-1)"/><path d="M359.61111,194.55557c0,0 1.33333,-9.93099 1.33333,-14.86877c0,-4.75936 -1.33333,-14.24234 -1.33333,-14.24234h7.66667c0,0 -1.77778,9.66603 -1.77778,14.46457c0,4.90292 1.77778,14.64654 1.77778,14.64654z" fill="url(#color-2)"/><path d="M369.5,194.55557c0,0 1.33333,-9.93099 1.33333,-14.86877c0,-4.75936 -1.33333,-14.24234 -1.33333,-14.24234h7.66667c0,0 -1.77778,9.66603 -1.77778,14.46457c0,4.90292 1.77778,14.64654 1.77778,14.64654z" fill="url(#color-3)"/><path d="M379.72222,194.55557c0,0 1.33333,-9.93099 1.33333,-14.86877c0,-4.75936 -1.33333,-14.24234 -1.33333,-14.24234h7.66667c0,0 -1.77778,9.66603 -1.77778,14.46457c0,4.90292 1.77778,14.64654 1.77778,14.64654z" fill="url(#color-4)"/></g></g></svg>