<svg version="1.1" xmlns="http://www.w3.org/2000/svg" xmlns:xlink="http://www.w3.org/1999/xlink" width="41.97818" height="41.97818" viewBox="0,0,41.97818,41.97818"><g transform="translate(-352.51094,-159.01095)"><g stroke-miterlimit="10"><path d="M353.51095,199.98913v-39.97818h39.97818v39.97818z" fill="#000000" stroke="#000000" stroke-width="2"/><path d="M389.28215,172.96667l0.00233,14.06667c0,0 -1.43788,-3.72644 -2.98668,-3.71834c-3.88429,0.02033 -20.78021,0.10882 -26.60079,0.13932c-1.24152,0.0065 -1.97915,2.25107 -1.97915,2.25107l-0.00233,-12.19941c0,0 0.77862,3.73044 2.08237,3.72361c5.91494,-0.03098 22.63864,-0.11857 26.49953,-0.13879c1.54795,-0.0081 2.98473,-4.12411 2.98473,-4.12411z" fill="#fbff00" stroke="none" stroke-width="0"/><path d="M366.46667,164.21785l14.06667,-0.00233c0,0 -3.72645,1.43789 -3.71834,2.98668c0.02033,3.88429 0.10882,20.78021 0.13931,26.60079c0.0065,1.24152 2.25107,1.97915 2.25107,1.97915l-12.19941,0.00233c0,0 3.73044,-0.77862 3.72361,-2.08237c-0.03098,-5.91494 -0.11857,-22.63865 -0.13879,-26.49952c-0.00811,-1.54795 -4.12411,-2.98473 -4.12411,-2.98473z" fill="#fbff00" stroke="none" stroke-width="0"/></g></g></svg>