<svg version="1.1" xmlns="http://www.w3.org/2000/svg" xmlns:xlink="http://www.w3.org/1999/xlink" width="41.97818" height="41.97818" viewBox="0,0,41.97818,41.97818"><defs><linearGradient x1="373.50002" y1="160.01092" x2="373.50002" y2="199.98912" gradientUnits="userSpaceOnUse" id="color-1"><stop offset="0" stop-color="#ff0000"/><stop offset="1" stop-color="#005cff"/></linearGradient><linearGradient x1="375.57917" y1="179.82399" x2="387.91251" y2="179.82399" gradientUnits="userSpaceOnUse" id="color-2"><stop offset="0" stop-color="#ff0000"/><stop offset="1" stop-color="#005cff"/></linearGradient><linearGradient x1="377.91251" y1="192.83336" x2="385.57918" y2="192.83336" gradientUnits="userSpaceOnUse" id="color-3"><stop offset="0" stop-color="#ff0000"/><stop offset="1" stop-color="#005cff"/></linearGradient><linearGradient x1="377.91251" y1="167.16669" x2="385.57918" y2="167.16669" gradientUnits="userSpaceOnUse" id="color-4"><stop offset="0" stop-color="#ff0000"/><stop offset="1" stop-color="#005cff"/></linearGradient><linearGradient x1="370.91251" y1="179.82399" x2="358.57917" y2="179.82399" gradientUnits="userSpaceOnUse" id="color-5"><stop offset="0" stop-color="#ff0000"/><stop offset="1" stop-color="#005cff"/></linearGradient><linearGradient x1="368.57917" y1="192.83336" x2="360.9125" y2="192.83336" gradientUnits="userSpaceOnUse" id="color-6"><stop offset="0" stop-color="#ff0000"/><stop offset="1" stop-color="#005cff"/></linearGradient><linearGradient x1="368.57917" y1="167.16669" x2="360.9125" y2="167.16669" gradientUnits="userSpaceOnUse" id="color-7"><stop offset="0" stop-color="#ff0000"/><stop offset="1" stop-color="#005cff"/></linearGradient></defs><g transform="translate(-352.51092,-159.01093)"><g stroke="#000000" stroke-width="2" stroke-miterlimit="10"><path d="M353.51093,199.98912v-39.97818h39.97818v39.97818z" fill="url(#color-1)"/><path d="M375.57917,179.82399c0,-3.40576 2.76091,-6.16667 6.16667,-6.16667c3.40576,0 6.16667,2.76091 6.16667,6.16667c0,3.40576 -2.76091,6.16667 -6.16667,6.16667c-3.40576,0 -6.16667,-2.76091 -6.16667,-6.16667z" fill="url(#color-2)"/><path d="M377.91251,192.83336c0,-2.11709 1.71624,-3.83333 3.83333,-3.83333c2.11709,0 3.83333,1.71624 3.83333,3.83333c0,2.11709 -1.71624,3.83333 -3.83333,3.83333c-2.11709,0 -3.83333,-1.71624 -3.83333,-3.83333z" fill="url(#color-3)"/><path d="M377.91251,167.16669c0,-2.11709 1.71624,-3.83333 3.83333,-3.83333c2.11709,0 3.83333,1.71624 3.83333,3.83333c0,2.11709 -1.71624,3.83333 -3.83333,3.83333c-2.11709,0 -3.83333,-1.71624 -3.83333,-3.83333z" fill="url(#color-4)"/><path d="M364.74584,185.99066c-3.40576,0 -6.16667,-2.76091 -6.16667,-6.16667c0,-3.40576 2.76091,-6.16667 6.16667,-6.16667c3.40576,0 6.16667,2.76091 6.16667,6.16667c0,3.40576 -2.76091,6.16667 -6.16667,6.16667z" fill="url(#color-5)"/><path d="M364.74584,196.66669c-2.11709,0 -3.83333,-1.71624 -3.83333,-3.83333c0,-2.11709 1.71624,-3.83333 3.83333,-3.83333c2.11709,0 3.83333,1.71624 3.83333,3.83333c0,2.11709 -1.71624,3.83333 -3.83333,3.83333z" fill="url(#color-6)"/><path d="M364.74584,171.00003c-2.11709,0 -3.83333,-1.71624 -3.83333,-3.83333c0,-2.11709 1.71624,-3.83333 3.83333,-3.83333c2.11709,0 3.83333,1.71624 3.83333,3.83333c0,2.11709 -1.71624,3.83333 -3.83333,3.83333z" fill="url(#color-7)"/></g></g></svg>