<svg version="1.1" xmlns="http://www.w3.org/2000/svg" xmlns:xlink="http://www.w3.org/1999/xlink" width="758.25826" height="689.47698" viewBox="0,0,758.25826,689.47698"><defs><linearGradient x1="157.01277" y1="190.45951" x2="246.47499" y2="169" gradientUnits="userSpaceOnUse" id="color-1"><stop offset="0" stop-color="#ffffff" stop-opacity="0"/><stop offset="1" stop-color="#ffffff" stop-opacity="0.24314"/></linearGradient><linearGradient x1="335.93722" y1="147.5405" x2="246.47499" y2="169" gradientUnits="userSpaceOnUse" id="color-2"><stop offset="0" stop-color="#ffffff" stop-opacity="0"/><stop offset="1" stop-color="#ffffff" stop-opacity="0.24314"/></linearGradient><linearGradient x1="203.29126" y1="197.94454" x2="291.2061" y2="158.27025" gradientUnits="userSpaceOnUse" id="color-3"><stop offset="0" stop-color="#ffffff" stop-opacity="0"/><stop offset="1" stop-color="#ffffff" stop-opacity="0.24314"/></linearGradient><linearGradient x1="379.12095" y1="118.59595" x2="291.2061" y2="158.27025" gradientUnits="userSpaceOnUse" id="color-4"><stop offset="0" stop-color="#ffffff" stop-opacity="0"/><stop offset="1" stop-color="#ffffff" stop-opacity="0.24314"/></linearGradient><linearGradient x1="91.84021" y1="185.7255" x2="247.24868" y2="178.10739" gradientUnits="userSpaceOnUse" id="color-5"><stop offset="0" stop-color="#ffffff" stop-opacity="0"/><stop offset="1" stop-color="#ffffff" stop-opacity="0.24314"/></linearGradient><linearGradient x1="402.65715" y1="170.48928" x2="247.24868" y2="178.10739" gradientUnits="userSpaceOnUse" id="color-6"><stop offset="0" stop-color="#ffffff" stop-opacity="0"/><stop offset="1" stop-color="#ffffff" stop-opacity="0.24314"/></linearGradient><radialGradient cx="530.16546" cy="46.82619" r="18.76877" gradientUnits="userSpaceOnUse" id="color-7"><stop offset="0" stop-color="#ffffff" stop-opacity="0"/><stop offset="1" stop-color="#ffffff" stop-opacity="0.24314"/></radialGradient><radialGradient cx="570.706" cy="180.45983" r="35.28529" gradientUnits="userSpaceOnUse" id="color-8"><stop offset="0" stop-color="#ffffff" stop-opacity="0"/><stop offset="1" stop-color="#ffffff" stop-opacity="0.24314"/></radialGradient><radialGradient cx="649.53483" cy="110.64001" r="7.50751" gradientUnits="userSpaceOnUse" id="color-9"><stop offset="0" stop-color="#ffffff" stop-opacity="0"/><stop offset="1" stop-color="#ffffff" stop-opacity="0.24314"/></radialGradient><radialGradient cx="623.25855" cy="314.09346" r="24.77477" gradientUnits="userSpaceOnUse" id="color-10"><stop offset="0" stop-color="#ffffff" stop-opacity="0"/><stop offset="1" stop-color="#ffffff" stop-opacity="0.24314"/></radialGradient><radialGradient cx="687.82312" cy="240.51989" r="8.25826" gradientUnits="userSpaceOnUse" id="color-11"><stop offset="0" stop-color="#ffffff" stop-opacity="0"/><stop offset="1" stop-color="#ffffff" stop-opacity="0.24314"/></radialGradient><radialGradient cx="539.17447" cy="263.04241" r="21.77177" gradientUnits="userSpaceOnUse" id="color-12"><stop offset="0" stop-color="#ffffff" stop-opacity="0"/><stop offset="1" stop-color="#ffffff" stop-opacity="0.24314"/></radialGradient><radialGradient cx="476.1114" cy="114.39376" r="8.25826" gradientUnits="userSpaceOnUse" id="color-13"><stop offset="0" stop-color="#ffffff" stop-opacity="0"/><stop offset="1" stop-color="#ffffff" stop-opacity="0.24314"/></radialGradient><radialGradient cx="48.18348" cy="255.5349" r="24.77477" gradientUnits="userSpaceOnUse" id="color-14"><stop offset="0" stop-color="#ffffff" stop-opacity="0"/><stop offset="1" stop-color="#ffffff" stop-opacity="0.24314"/></radialGradient><radialGradient cx="31.66696" cy="106.88625" r="6.75676" gradientUnits="userSpaceOnUse" id="color-15"><stop offset="0" stop-color="#ffffff" stop-opacity="0"/><stop offset="1" stop-color="#ffffff" stop-opacity="0.24314"/></radialGradient><radialGradient cx="704.33963" cy="46.82619" r="44.29429" gradientUnits="userSpaceOnUse" id="color-16"><stop offset="0" stop-color="#ffffff" stop-opacity="0"/><stop offset="1" stop-color="#ffffff" stop-opacity="0.24314"/></radialGradient><radialGradient cx="23.4087" cy="334.36373" r="15.01502" gradientUnits="userSpaceOnUse" id="color-17"><stop offset="0" stop-color="#ffffff" stop-opacity="0"/><stop offset="1" stop-color="#ffffff" stop-opacity="0.24314"/></radialGradient><radialGradient cx="91.72702" cy="299.07844" r="5.25526" gradientUnits="userSpaceOnUse" id="color-18"><stop offset="0" stop-color="#ffffff" stop-opacity="0"/><stop offset="1" stop-color="#ffffff" stop-opacity="0.24314"/></radialGradient><radialGradient cx="62.44774" cy="61.09046" r="15.01502" gradientUnits="userSpaceOnUse" id="color-19"><stop offset="0" stop-color="#ffffff" stop-opacity="0"/><stop offset="1" stop-color="#ffffff" stop-opacity="0.24314"/></radialGradient><radialGradient cx="20.4057" cy="14.54391" r="30.03003" gradientUnits="userSpaceOnUse" id="color-20"><stop offset="0" stop-color="#ffffff" stop-opacity="0"/><stop offset="1" stop-color="#ffffff" stop-opacity="0.24314"/></radialGradient><radialGradient cx="458.84414" cy="202.2316" r="51.05105" gradientUnits="userSpaceOnUse" id="color-21"><stop offset="0" stop-color="#ffffff" stop-opacity="0"/><stop offset="1" stop-color="#ffffff" stop-opacity="0.24314"/></radialGradient><radialGradient cx="429.56486" cy="51.3307" r="12.76276" gradientUnits="userSpaceOnUse" id="color-22"><stop offset="0" stop-color="#ffffff" stop-opacity="0"/><stop offset="1" stop-color="#ffffff" stop-opacity="0.24314"/></radialGradient><radialGradient cx="529.41471" cy="329.85923" r="7.50751" gradientUnits="userSpaceOnUse" id="color-23"><stop offset="0" stop-color="#ffffff" stop-opacity="0"/><stop offset="1" stop-color="#ffffff" stop-opacity="0.24314"/></radialGradient><radialGradient cx="714.85014" cy="311.09046" r="6.75676" gradientUnits="userSpaceOnUse" id="color-24"><stop offset="0" stop-color="#ffffff" stop-opacity="0"/><stop offset="1" stop-color="#ffffff" stop-opacity="0.24314"/></radialGradient></defs><g transform="translate(9.62433,166.63109)"><g stroke="none" stroke-width="0" stroke-miterlimit="10"><path d="M225.97548,477.95718l-137.92543,-574.99535l89.46222,-21.45951l137.92543,574.99535z" fill="url(#color-1)"/><path d="M315.43771,456.49768l-137.92543,-574.99535l89.46222,-21.4595l137.92543,574.99535z" fill="url(#color-2)"/><path d="M330.7894,480.46952l-254.99628,-565.04996l87.91484,-39.6743l254.99628,565.04996z" fill="url(#color-3)"/><path d="M418.70424,440.79523l-254.99628,-565.04996l87.91484,-39.67429l254.99628,565.04996z" fill="url(#color-4)"/><path d="M128.10844,522.84588l-72.53645,-674.24075l155.40847,-7.61811l72.53645,674.24076z" fill="url(#color-5)"/><path d="M283.51691,515.22777l-72.53645,-674.24076l155.40847,-7.61811l72.53646,674.24075z" fill="url(#color-6)"/><path d="M511.39669,46.82619c0,-10.3657 8.40306,-18.76877 18.76877,-18.76877c10.3657,0 18.76877,8.40306 18.76877,18.76877c0,10.3657 -8.40306,18.76877 -18.76877,18.76877c-10.3657,0 -18.76877,-8.40306 -18.76877,-18.76877z" fill="url(#color-7)"/><path d="M535.42071,180.45983c0,-19.48752 15.79776,-35.28529 35.28529,-35.28529c19.48752,0 35.28529,15.79776 35.28529,35.28529c0,19.48752 -15.79776,35.28529 -35.28529,35.28529c-19.48752,0 -35.28529,-15.79776 -35.28529,-35.28529z" fill="url(#color-8)"/><path d="M642.02732,110.64001c0,-4.14628 3.36123,-7.50751 7.50751,-7.50751c4.14628,0 7.50751,3.36123 7.50751,7.50751c0,4.14628 -3.36123,7.50751 -7.50751,7.50751c-4.14628,0 -7.50751,-3.36123 -7.50751,-7.50751z" fill="url(#color-9)"/><path d="M598.48378,314.09346c0,-13.68273 11.09204,-24.77477 24.77477,-24.77477c13.68273,0 24.77477,11.09204 24.77477,24.77477c0,13.68273 -11.09204,24.77477 -24.77477,24.77477c-13.68273,0 -24.77477,-11.09204 -24.77477,-24.77477z" fill="url(#color-10)"/><path d="M679.56486,240.51989c0,-4.56091 3.69735,-8.25826 8.25826,-8.25826c4.56091,0 8.25826,3.69735 8.25826,8.25826c0,4.56091 -3.69735,8.25826 -8.25826,8.25826c-4.56091,0 -8.25826,-3.69735 -8.25826,-8.25826z" fill="url(#color-11)"/><path d="M517.40269,263.04241c0,-12.02422 9.74755,-21.77177 21.77177,-21.77177c12.02422,0 21.77177,9.74755 21.77177,21.77177c0,12.02422 -9.74755,21.77177 -21.77177,21.77177c-12.02422,0 -21.77177,-9.74755 -21.77177,-21.77177z" fill="url(#color-12)"/><path d="M467.85315,114.39376c0,-4.56091 3.69735,-8.25826 8.25826,-8.25826c4.56091,0 8.25826,3.69735 8.25826,8.25826c0,4.56091 -3.69735,8.25826 -8.25826,8.25826c-4.56091,0 -8.25826,-3.69735 -8.25826,-8.25826z" fill="url(#color-13)"/><path d="M23.4087,255.5349c0,-13.68273 11.09204,-24.77477 24.77477,-24.77477c13.68273,0 24.77477,11.09204 24.77477,24.77477c0,13.68273 -11.09204,24.77477 -24.77477,24.77477c-13.68273,0 -24.77477,-11.09204 -24.77477,-24.77477z" fill="url(#color-14)"/><path d="M24.9102,106.88625c0,-3.73165 3.0251,-6.75676 6.75676,-6.75676c3.73165,0 6.75676,3.0251 6.75676,6.75676c0,3.73165 -3.0251,6.75676 -6.75676,6.75676c-3.73165,0 -6.75676,-3.0251 -6.75676,-6.75676z" fill="url(#color-15)"/><path d="M660.04534,46.82619c0,-24.46306 19.83123,-44.29429 44.29429,-44.29429c24.46306,0 44.29429,19.83123 44.29429,44.29429c0,24.46306 -19.83123,44.29429 -44.29429,44.29429c-24.46306,0 -44.29429,-19.83123 -44.29429,-44.29429z" fill="url(#color-16)"/><path d="M8.39369,334.36373c0,-8.29256 6.72245,-15.01502 15.01502,-15.01502c8.29256,0 15.01502,6.72245 15.01502,15.01502c0,8.29256 -6.72245,15.01502 -15.01502,15.01502c-8.29256,0 -15.01502,-6.72245 -15.01502,-15.01502z" fill="url(#color-17)"/><path d="M86.47176,299.07844c0,-2.9024 2.35286,-5.25526 5.25526,-5.25526c2.9024,0 5.25526,2.35286 5.25526,5.25526c0,2.9024 -2.35286,5.25526 -5.25526,5.25526c-2.9024,0 -5.25526,-2.35286 -5.25526,-5.25526z" fill="url(#color-18)"/><path d="M47.43272,61.09046c0,-8.29256 6.72245,-15.01502 15.01502,-15.01502c8.29256,0 15.01502,6.72245 15.01502,15.01502c0,8.29256 -6.72245,15.01502 -15.01502,15.01502c-8.29256,0 -15.01502,-6.72245 -15.01502,-15.01502z" fill="url(#color-19)"/><path d="M-9.62433,14.54391c0,-16.58513 13.4449,-30.03003 30.03003,-30.03003c16.58513,0 30.03003,13.4449 30.03003,30.03003c0,16.58513 -13.4449,30.03003 -30.03003,30.03003c-16.58513,0 -30.03003,-13.4449 -30.03003,-30.03003z" fill="url(#color-20)"/><path d="M407.79309,202.2316c0,-28.19472 22.85633,-51.05105 51.05105,-51.05105c28.19472,0 51.05105,22.85633 51.05105,51.05105c0,28.19472 -22.85633,51.05105 -51.05105,51.05105c-28.19472,0 -51.05105,-22.85633 -51.05105,-51.05105z" fill="url(#color-21)"/><path d="M416.80209,51.3307c0,-7.04868 5.71408,-12.76276 12.76276,-12.76276c7.04868,0 12.76276,5.71408 12.76276,12.76276c0,7.04868 -5.71408,12.76276 -12.76276,12.76276c-7.04868,0 -12.76276,-5.71408 -12.76276,-12.76276z" fill="url(#color-22)"/><path d="M521.9072,329.85923c0,-4.14628 3.36123,-7.50751 7.50751,-7.50751c4.14628,0 7.50751,3.36123 7.50751,7.50751c0,4.14628 -3.36123,7.50751 -7.50751,7.50751c-4.14628,0 -7.50751,-3.36123 -7.50751,-7.50751z" fill="url(#color-23)"/><path d="M708.09339,311.09046c0,-3.73165 3.0251,-6.75676 6.75676,-6.75676c3.73165,0 6.75676,3.0251 6.75676,6.75676c0,3.73165 -3.0251,6.75676 -6.75676,6.75676c-3.73165,0 -6.75676,-3.0251 -6.75676,-6.75676z" fill="url(#color-24)"/></g></g></svg>