<svg version="1.1" xmlns="http://www.w3.org/2000/svg" xmlns:xlink="http://www.w3.org/1999/xlink" width="52.86962" height="69.89362" viewBox="0,0,52.86962,69.89362"><g transform="translate(-352.51098,-146.44419)"><g stroke-miterlimit="10"><path d="M353.51099,199.98913v-39.97818h39.97818v39.97818z" fill="#ff0000" stroke="#000000" stroke-width="2"/><path d="M356.65001,180c0,-9.306 7.544,-16.85 16.85,-16.85c9.306,0 16.85,7.544 16.85,16.85c0,9.306 -7.544,16.85 -16.85,16.85c-9.306,0 -16.85,-7.544 -16.85,-16.85z" fill="#ffffff" stroke="none" stroke-width="0"/><text transform="translate(356.52826,182.36341) scale(0.82195,0.82195)" font-size="40" xml:space="preserve" fill="#ff0000" stroke="none" stroke-width="1" font-family="&quot;OpenSans_Condensed-Bold&quot;, Sans Serif" font-weight="normal" text-anchor="start"><tspan x="0" dy="0">~</tspan></text><text transform="translate(354.72826,189.86344) scale(0.82195,0.82195)" font-size="40" xml:space="preserve" fill="#ff0000" stroke="none" stroke-width="1" font-family="&quot;OpenSans_Condensed-Bold&quot;, Sans Serif" font-weight="normal" text-anchor="start"><tspan x="0" dy="0">~</tspan></text><text transform="translate(356.52827,198.56344) scale(0.82195,0.82195)" font-size="40" xml:space="preserve" fill="#ff0000" stroke="none" stroke-width="1" font-family="&quot;OpenSans_Condensed-Bold&quot;, Sans Serif" font-weight="normal" text-anchor="start"><tspan x="0" dy="0">~</tspan></text><text transform="translate(362.50629,206.06344) scale(0.82195,0.82195)" font-size="40" xml:space="preserve" fill="#ff0000" stroke="none" stroke-width="1" font-family="&quot;OpenSans_Condensed-Bold&quot;, Sans Serif" font-weight="normal" text-anchor="start"><tspan x="0" dy="0">~</tspan></text><text transform="translate(390.07078,180.73373) rotate(-70.42009) scale(0.82195,0.82195)" font-size="40" xml:space="preserve" fill="#ff0000" stroke="none" stroke-width="1" font-family="&quot;OpenSans_Condensed-Bold&quot;, Sans Serif" font-weight="normal" text-anchor="start"><tspan x="0" dy="0">~</tspan></text><path d="M384.3475,178.70562c0,-1.32548 1.07452,-2.4 2.4,-2.4c1.32548,0 2.4,1.07452 2.4,2.4c0,1.32548 -1.07452,2.4 -2.4,2.4c-1.32548,0 -2.4,-1.07452 -2.4,-2.4z" fill="#ff0000" stroke="none" stroke-width="0"/><path d="M373.11233,181.95562c0,-2.73381 2.21619,-4.95 4.95,-4.95c2.73381,0 4.95,2.21619 4.95,4.95c0,2.73381 -2.21619,4.95 -4.95,4.95c-2.73381,0 -4.95,-2.21619 -4.95,-4.95z" fill="#ff0000" stroke="none" stroke-width="0"/><path d="M380.18431,191.40562c0,-1.76731 1.43269,-3.2 3.2,-3.2c1.76731,0 3.2,1.43269 3.2,3.2c0,1.76731 -1.43269,3.2 -3.2,3.2c-1.76731,0 -3.2,-1.43269 -3.2,-3.2z" fill="#ff0000" stroke="none" stroke-width="0"/><path d="M372.1475,165.40562c0,-1.60163 1.29837,-2.9 2.9,-2.9c1.60163,0 2.9,1.29837 2.9,2.9c0,1.60163 -1.29837,2.9 -2.9,2.9c-1.60163,0 -2.9,-1.29837 -2.9,-2.9z" fill="#ff0000" stroke="none" stroke-width="0"/></g></g></svg>