<svg version="1.1" xmlns="http://www.w3.org/2000/svg" xmlns:xlink="http://www.w3.org/1999/xlink" width="969.96997" height="441.8697" viewBox="0,0,969.96997,441.8697"><defs><linearGradient x1="373.5" y1="243.20208" x2="373.5" y2="342.30119" gradientUnits="userSpaceOnUse" id="color-1"><stop offset="0" stop-color="#000000" stop-opacity="0"/><stop offset="1" stop-color="#000000"/></linearGradient><radialGradient cx="113.63139" cy="267.47912" r="24.875" gradientUnits="userSpaceOnUse" id="color-2"><stop offset="0" stop-color="#ffffff" stop-opacity="0.0902"/><stop offset="1" stop-color="#ffffff" stop-opacity="0"/></radialGradient><radialGradient cx="118.38139" cy="267.47912" r="24.875" gradientUnits="userSpaceOnUse" id="color-3"><stop offset="0" stop-color="#ffffff" stop-opacity="0.0902"/><stop offset="1" stop-color="#ffffff" stop-opacity="0"/></radialGradient><radialGradient cx="118.38139" cy="272.97911" r="24.875" gradientUnits="userSpaceOnUse" id="color-4"><stop offset="0" stop-color="#ffffff" stop-opacity="0.0902"/><stop offset="1" stop-color="#ffffff" stop-opacity="0"/></radialGradient><radialGradient cx="113.63139" cy="272.97911" r="24.875" gradientUnits="userSpaceOnUse" id="color-5"><stop offset="0" stop-color="#ffffff" stop-opacity="0.0902"/><stop offset="1" stop-color="#ffffff" stop-opacity="0"/></radialGradient><radialGradient cx="90.88139" cy="159.8665" r="24.875" gradientUnits="userSpaceOnUse" id="color-6"><stop offset="0" stop-color="#ffffff" stop-opacity="0.0902"/><stop offset="1" stop-color="#ffffff" stop-opacity="0"/></radialGradient><radialGradient cx="95.63139" cy="159.8665" r="24.875" gradientUnits="userSpaceOnUse" id="color-7"><stop offset="0" stop-color="#ffffff" stop-opacity="0.0902"/><stop offset="1" stop-color="#ffffff" stop-opacity="0"/></radialGradient><radialGradient cx="95.63139" cy="165.3665" r="24.875" gradientUnits="userSpaceOnUse" id="color-8"><stop offset="0" stop-color="#ffffff" stop-opacity="0.0902"/><stop offset="1" stop-color="#ffffff" stop-opacity="0"/></radialGradient><radialGradient cx="90.88139" cy="165.3665" r="24.875" gradientUnits="userSpaceOnUse" id="color-9"><stop offset="0" stop-color="#ffffff" stop-opacity="0.0902"/><stop offset="1" stop-color="#ffffff" stop-opacity="0"/></radialGradient><radialGradient cx="136.38139" cy="79.28091" r="24.875" gradientUnits="userSpaceOnUse" id="color-10"><stop offset="0" stop-color="#ffffff" stop-opacity="0.0902"/><stop offset="1" stop-color="#ffffff" stop-opacity="0"/></radialGradient><radialGradient cx="141.13139" cy="79.28091" r="24.875" gradientUnits="userSpaceOnUse" id="color-11"><stop offset="0" stop-color="#ffffff" stop-opacity="0.0902"/><stop offset="1" stop-color="#ffffff" stop-opacity="0"/></radialGradient><radialGradient cx="141.13139" cy="84.78091" r="24.875" gradientUnits="userSpaceOnUse" id="color-12"><stop offset="0" stop-color="#ffffff" stop-opacity="0.0902"/><stop offset="1" stop-color="#ffffff" stop-opacity="0"/></radialGradient><radialGradient cx="136.38139" cy="84.78091" r="24.875" gradientUnits="userSpaceOnUse" id="color-13"><stop offset="0" stop-color="#ffffff" stop-opacity="0.0902"/><stop offset="1" stop-color="#ffffff" stop-opacity="0"/></radialGradient><radialGradient cx="211.95196" cy="-2.75" r="24.875" gradientUnits="userSpaceOnUse" id="color-14"><stop offset="0" stop-color="#ffffff" stop-opacity="0.0902"/><stop offset="1" stop-color="#ffffff" stop-opacity="0"/></radialGradient><radialGradient cx="216.70196" cy="-2.75" r="24.875" gradientUnits="userSpaceOnUse" id="color-15"><stop offset="0" stop-color="#ffffff" stop-opacity="0.0902"/><stop offset="1" stop-color="#ffffff" stop-opacity="0"/></radialGradient><radialGradient cx="216.70196" cy="2.75" r="24.875" gradientUnits="userSpaceOnUse" id="color-16"><stop offset="0" stop-color="#ffffff" stop-opacity="0.0902"/><stop offset="1" stop-color="#ffffff" stop-opacity="0"/></radialGradient><radialGradient cx="211.95196" cy="2.75" r="24.875" gradientUnits="userSpaceOnUse" id="color-17"><stop offset="0" stop-color="#ffffff" stop-opacity="0.0902"/><stop offset="1" stop-color="#ffffff" stop-opacity="0"/></radialGradient><radialGradient cx="560.7958" cy="57.15591" r="24.875" gradientUnits="userSpaceOnUse" id="color-18"><stop offset="0" stop-color="#ffffff" stop-opacity="0.0902"/><stop offset="1" stop-color="#ffffff" stop-opacity="0"/></radialGradient><radialGradient cx="565.5458" cy="57.15591" r="24.875" gradientUnits="userSpaceOnUse" id="color-19"><stop offset="0" stop-color="#ffffff" stop-opacity="0.0902"/><stop offset="1" stop-color="#ffffff" stop-opacity="0"/></radialGradient><radialGradient cx="565.5458" cy="62.65591" r="24.875" gradientUnits="userSpaceOnUse" id="color-20"><stop offset="0" stop-color="#ffffff" stop-opacity="0.0902"/><stop offset="1" stop-color="#ffffff" stop-opacity="0"/></radialGradient><radialGradient cx="560.7958" cy="62.65591" r="24.875" gradientUnits="userSpaceOnUse" id="color-21"><stop offset="0" stop-color="#ffffff" stop-opacity="0.0902"/><stop offset="1" stop-color="#ffffff" stop-opacity="0"/></radialGradient><radialGradient cx="639.36937" cy="198.79255" r="24.875" gradientUnits="userSpaceOnUse" id="color-22"><stop offset="0" stop-color="#ffffff" stop-opacity="0.0902"/><stop offset="1" stop-color="#ffffff" stop-opacity="0"/></radialGradient><radialGradient cx="644.11937" cy="198.79255" r="24.875" gradientUnits="userSpaceOnUse" id="color-23"><stop offset="0" stop-color="#ffffff" stop-opacity="0.0902"/><stop offset="1" stop-color="#ffffff" stop-opacity="0"/></radialGradient><radialGradient cx="644.11937" cy="204.29255" r="24.875" gradientUnits="userSpaceOnUse" id="color-24"><stop offset="0" stop-color="#ffffff" stop-opacity="0.0902"/><stop offset="1" stop-color="#ffffff" stop-opacity="0"/></radialGradient><radialGradient cx="639.36937" cy="204.29255" r="24.875" gradientUnits="userSpaceOnUse" id="color-25"><stop offset="0" stop-color="#ffffff" stop-opacity="0.0902"/><stop offset="1" stop-color="#ffffff" stop-opacity="0"/></radialGradient><radialGradient cx="186.65611" cy="189.66424" r="51.53946" gradientUnits="userSpaceOnUse" id="color-26"><stop offset="0" stop-color="#ffffff" stop-opacity="0.0902"/><stop offset="1" stop-color="#ffffff" stop-opacity="0"/></radialGradient><radialGradient cx="196.49781" cy="189.66424" r="51.53946" gradientUnits="userSpaceOnUse" id="color-27"><stop offset="0" stop-color="#ffffff" stop-opacity="0.0902"/><stop offset="1" stop-color="#ffffff" stop-opacity="0"/></radialGradient><radialGradient cx="196.49781" cy="201.0599" r="51.53946" gradientUnits="userSpaceOnUse" id="color-28"><stop offset="0" stop-color="#ffffff" stop-opacity="0.0902"/><stop offset="1" stop-color="#ffffff" stop-opacity="0"/></radialGradient><radialGradient cx="186.65611" cy="201.0599" r="51.53946" gradientUnits="userSpaceOnUse" id="color-29"><stop offset="0" stop-color="#ffffff" stop-opacity="0.0902"/><stop offset="1" stop-color="#ffffff" stop-opacity="0"/></radialGradient><radialGradient cx="86.21053" cy="29.33308" r="51.53946" gradientUnits="userSpaceOnUse" id="color-30"><stop offset="0" stop-color="#ffffff" stop-opacity="0.0902"/><stop offset="1" stop-color="#ffffff" stop-opacity="0"/></radialGradient><radialGradient cx="96.05224" cy="29.33308" r="51.53946" gradientUnits="userSpaceOnUse" id="color-31"><stop offset="0" stop-color="#ffffff" stop-opacity="0.0902"/><stop offset="1" stop-color="#ffffff" stop-opacity="0"/></radialGradient><radialGradient cx="96.05224" cy="40.72874" r="51.53946" gradientUnits="userSpaceOnUse" id="color-32"><stop offset="0" stop-color="#ffffff" stop-opacity="0.0902"/><stop offset="1" stop-color="#ffffff" stop-opacity="0"/></radialGradient><radialGradient cx="86.21053" cy="40.72874" r="51.53946" gradientUnits="userSpaceOnUse" id="color-33"><stop offset="0" stop-color="#ffffff" stop-opacity="0.0902"/><stop offset="1" stop-color="#ffffff" stop-opacity="0"/></radialGradient><radialGradient cx="658.37547" cy="59.65762" r="64.08744" gradientUnits="userSpaceOnUse" id="color-34"><stop offset="0" stop-color="#ffffff" stop-opacity="0.0902"/><stop offset="1" stop-color="#ffffff" stop-opacity="0"/></radialGradient><radialGradient cx="670.61328" cy="59.65762" r="64.08744" gradientUnits="userSpaceOnUse" id="color-35"><stop offset="0" stop-color="#ffffff" stop-opacity="0.0902"/><stop offset="1" stop-color="#ffffff" stop-opacity="0"/></radialGradient><radialGradient cx="670.61328" cy="73.82771" r="64.08744" gradientUnits="userSpaceOnUse" id="color-36"><stop offset="0" stop-color="#ffffff" stop-opacity="0.0902"/><stop offset="1" stop-color="#ffffff" stop-opacity="0"/></radialGradient><radialGradient cx="658.37547" cy="73.82771" r="64.08744" gradientUnits="userSpaceOnUse" id="color-37"><stop offset="0" stop-color="#ffffff" stop-opacity="0.0902"/><stop offset="1" stop-color="#ffffff" stop-opacity="0"/></radialGradient><linearGradient x1="373.50001" y1="243.20209" x2="373.50001" y2="342.3012" gradientUnits="userSpaceOnUse" id="color-38"><stop offset="0" stop-color="#000000" stop-opacity="0"/><stop offset="1" stop-color="#000000"/></linearGradient></defs><g transform="translate(111.48498,62.35018)"><g stroke="none" stroke-width="0" stroke-miterlimit="10"><path d="M-109.98349,342.30119v-99.0991h966.96697v99.0991z" fill="url(#color-1)"/><path d="M68.38138,272.97912v-49.75h49.75v49.75z" fill="url(#color-2)"/><path d="M113.88139,272.97912v-49.75h49.75v49.75z" fill="url(#color-3)"/><path d="M163.63139,267.47911v49.75h-49.75v-49.75z" fill="url(#color-4)"/><path d="M118.13139,267.47911v49.75h-49.75v-49.75z" fill="url(#color-5)"/><path d="M45.63139,165.3665v-49.75h49.75v49.75z" fill="url(#color-6)"/><path d="M91.13139,165.3665v-49.75h49.75v49.75z" fill="url(#color-7)"/><path d="M140.88139,159.8665v49.75h-49.75v-49.75z" fill="url(#color-8)"/><path d="M95.38139,159.8665v49.75h-49.75v-49.75z" fill="url(#color-9)"/><path d="M91.13139,84.78091v-49.75h49.75v49.75z" fill="url(#color-10)"/><path d="M136.63139,84.78091v-49.75h49.75v49.75z" fill="url(#color-11)"/><path d="M186.38139,79.28091v49.75h-49.75v-49.75z" fill="url(#color-12)"/><path d="M140.88139,79.28091v49.75h-49.75v-49.75z" fill="url(#color-13)"/><path d="M166.70196,2.75v-49.75h49.75v49.75z" fill="url(#color-14)"/><path d="M212.20196,2.75v-49.75h49.75v49.75z" fill="url(#color-15)"/><path d="M261.95196,-2.75v49.75h-49.75v-49.75z" fill="url(#color-16)"/><path d="M216.45196,-2.75v49.75h-49.75v-49.75z" fill="url(#color-17)"/><path d="M515.5458,62.65591v-49.75h49.75v49.75z" fill="url(#color-18)"/><path d="M561.0458,62.65591v-49.75h49.75v49.75z" fill="url(#color-19)"/><path d="M610.7958,57.15591v49.75h-49.75v-49.75z" fill="url(#color-20)"/><path d="M565.2958,57.15591v49.75h-49.75v-49.75z" fill="url(#color-21)"/><path d="M594.11937,204.29255v-49.75h49.75v49.75z" fill="url(#color-22)"/><path d="M639.61937,204.29255v-49.75h49.75v49.75z" fill="url(#color-23)"/><path d="M689.36937,198.79255v49.75h-49.75v-49.75z" fill="url(#color-24)"/><path d="M643.86937,198.79255v49.75h-49.75v-49.75z" fill="url(#color-25)"/><path d="M92.90091,201.0599v-103.07892h103.07892v103.07892z" fill="url(#color-26)"/><path d="M187.17409,201.0599v-103.07892h103.07892v103.07892z" fill="url(#color-27)"/><path d="M290.253,189.66424v103.07892h-103.07892v-103.07892z" fill="url(#color-28)"/><path d="M195.97983,189.66424v103.07892h-103.07892v-103.07892z" fill="url(#color-29)"/><path d="M-7.54466,40.72874v-103.07892h103.07892v103.07892z" fill="url(#color-30)"/><path d="M86.72852,40.72874v-103.07892h103.07892v103.07892z" fill="url(#color-31)"/><path d="M189.80744,29.33308v103.07892h-103.07892v-103.07892z" fill="url(#color-32)"/><path d="M95.53426,29.33308v103.07892h-103.07892v-103.07892z" fill="url(#color-33)"/><path d="M541.7943,73.82771v-128.17488h128.17488v128.17488z" fill="url(#color-34)"/><path d="M659.01956,73.82771v-128.17488h128.17488v128.17488z" fill="url(#color-35)"/><path d="M787.19445,59.65762v128.17488h-128.17488v-128.17488z" fill="url(#color-36)"/><path d="M669.96917,59.65762v128.17488h-128.17488v-128.17488z" fill="url(#color-37)"/><path d="M-109.98348,342.3012v-99.0991h966.96697v99.0991z" fill="url(#color-38)"/><path d="M-111.48498,379.51952v-39.03904h969.96997v39.03904z" fill="#000000"/></g></g></svg>