<svg version="1.1" xmlns="http://www.w3.org/2000/svg" xmlns:xlink="http://www.w3.org/1999/xlink" width="41.97818" height="41.97818" viewBox="0,0,41.97818,41.97818"><g transform="translate(-352.51095,-159.01095)"><g stroke-miterlimit="10"><path d="M353.51096,199.98913v-39.97818h39.97818v39.97818z" fill="#000000" stroke="#000000" stroke-width="2"/><path d="M389.63298,186.18634l-9.94499,9.94829c0,0 1.61826,-3.65173 0.51736,-4.74117c-2.76098,-2.73223 -14.77077,-14.61688 -18.90811,-18.71108c-0.88248,-0.87329 -2.99122,0.19228 -2.99122,0.19228l8.62464,-8.62793c0,0 -2.08725,3.18839 -1.16053,4.10545c4.2044,4.16059 16.09178,15.92409 18.83614,18.63986c1.10029,1.08884 5.02671,-0.80566 5.02671,-0.80566z" fill="#fbff00" stroke="none" stroke-width="0"/><path d="M379.68635,163.86701l9.94829,9.94499c0,0 -3.65174,-1.61826 -4.74117,-0.51736c-2.73223,2.76098 -14.61688,14.77077 -18.71109,18.90811c-0.87329,0.88248 0.19228,2.99122 0.19228,2.99122l-8.62793,-8.62464c0,0 3.18839,2.08725 4.10545,1.16053c4.16059,-4.2044 15.9241,-16.09178 18.63985,-18.83613c1.08883,-1.1003 -0.80566,-5.02671 -0.80566,-5.02671z" fill="#fbff00" stroke="none" stroke-width="0"/></g></g></svg>