<svg version="1.1" xmlns="http://www.w3.org/2000/svg" xmlns:xlink="http://www.w3.org/1999/xlink" width="92.48316" height="43.04445" viewBox="0,0,92.48316,43.04445"><defs><radialGradient cx="296.98908" cy="180" r="22.12027" gradientUnits="userSpaceOnUse" id="color-1"><stop offset="0" stop-color="#2d2d2d"/><stop offset="1" stop-color="#2d2d2d" stop-opacity="0"/></radialGradient></defs><g transform="translate(-273.75842,-158.47777)"><g stroke-miterlimit="10"><path d="M274.75842,200.52223v-41.04445h90.48316v41.04445z" fill="#000000" stroke="#ffffff" stroke-width="2"/><path d="M274.86881,200.52223v-41.04445h44.24054v41.04445z" fill="url(#color-1)" stroke="none" stroke-width="0"/><g fill-opacity="0.87451" fill="#0968b7" stroke-opacity="0.22745" stroke="#ffffff" stroke-width="0"><path d="M302.45405,198.35291l-9.0379,-25.5469l14.14945,-5.00575l9.0379,25.5469z"/><path d="M302.19209,197.61241l-0.91689,-2.59172l14.14945,-5.00575l0.91689,2.59172z"/><path d="M293.6672,173.51565l-0.32746,-0.92561l14.14945,-5.00575l0.32746,0.92561z"/></g><path d="M284.27078,170.50241c0,1.00768 -0.25006,1.82457 -0.55854,1.82457c-0.30847,0 -0.55854,-0.81689 -0.55854,-1.82457c0,-1.00768 0.25007,-1.82457 0.55854,-1.82457c0.30847,0 0.55854,0.81689 0.55854,1.82457z" fill-opacity="0.87451" fill="#0968b7" stroke-opacity="0.22745" stroke="#ffffff" stroke-width="0"/><g fill-opacity="0.87451" fill="#0968b7" stroke-opacity="0.22745" stroke="#ffffff" stroke-width="0"><path d="M279.84002,185.07953v-13.35288h7.86355v13.35288z"/><path d="M279.88911,177.47035v-5.69461h3.48549l-0.98183,4.46732z"/><path d="M284.74917,176.09579l-0.5891,-4.32005h3.48549v5.69461z"/></g><path d="M295.52882,171.74751c-0.02086,0.24457 -0.26543,0.22371 -0.26543,0.22371l-0.29636,-0.02675c-0.66494,-0.20631 -1.32473,-0.40087 -1.88749,-0.83462c-0.84631,-0.65231 -1.43396,-1.74358 -2.37247,-2.27438c-0.26837,-0.15178 -0.57324,-0.22723 -0.85923,-0.34241c-0.5422,-0.10163 -1.09867,-0.26284 -1.6469,-0.31776c-2.35167,-0.23559 -3.29096,1.92445 -4.22025,3.66686c0,0 -0.11551,0.21658 -0.33209,0.10107c-0.21658,-0.11551 -0.10107,-0.33209 -0.10107,-0.33209c1.03097,-1.93307 2.09831,-4.16733 4.68167,-3.92595c0.58393,0.05456 1.18082,0.22368 1.75678,0.33679c0.03542,0.01408 0.93595,0.37082 0.96399,0.38688c0.96571,0.55293 1.55897,1.64137 2.42926,2.31217c0.50059,0.38584 1.09257,0.55482 1.68263,0.74177l0.24325,0.01928c0,0 0.24457,0.02086 0.22371,0.26543z" fill-opacity="0.87451" fill="#0968b7" stroke-opacity="0.22745" stroke="#ffffff" stroke-width="0.5"/><path d="M310.7317,184.16315c0,1.62675 -1.28943,2.94549 -2.88003,2.94549c-1.5906,0 -2.88003,-1.31874 -2.88003,-2.94549c0,-1.62675 1.28943,-2.94549 2.88003,-2.94549c1.5906,0 2.88003,1.31874 2.88003,2.94549z" fill-opacity="0.87451" fill="#0968b7" stroke-opacity="0.22745" stroke="#ffffff" stroke-width="5"/><path d="M309.29168,184.16315c0,0.84952 -0.64472,1.5382 -1.44001,1.5382c-0.7953,0 -1.44001,-0.68867 -1.44001,-1.5382c0,-0.84952 0.64472,-1.5382 1.44001,-1.5382c0.7953,0 1.44001,0.68867 1.44001,1.5382z" fill-opacity="0.87451" fill="#0968b7" stroke-opacity="0.22745" stroke="#ffffff" stroke-width="5"/><path d="M302.81161,177.02853c0,1.62675 -1.28943,2.94549 -2.88003,2.94549c-1.5906,0 -2.88003,-1.31874 -2.88003,-2.94549c0,-1.62675 1.28943,-2.94549 2.88003,-2.94549c1.5906,0 2.88003,1.31874 2.88003,2.94549z" fill-opacity="0.87451" fill="#0968b7" stroke-opacity="0.22745" stroke="#ffffff" stroke-width="5"/><path d="M301.37159,177.02853c0,0.84952 -0.64472,1.5382 -1.44001,1.5382c-0.7953,0 -1.44001,-0.68867 -1.44001,-1.5382c0,-0.84952 0.64472,-1.5382 1.44001,-1.5382c0.7953,0 1.44001,0.68867 1.44001,1.5382z" fill-opacity="0.87451" fill="#0968b7" stroke-opacity="0.22745" stroke="#ffffff" stroke-width="5"/><path d="M305.88801,189.39957c0,1.62675 -1.28943,2.94549 -2.88003,2.94549c-1.5906,0 -2.88003,-1.31874 -2.88003,-2.94549c0,-1.62675 1.28943,-2.94549 2.88003,-2.94549c1.5906,0 2.88003,1.31874 2.88003,2.94549z" fill-opacity="0.87451" fill="#0968b7" stroke-opacity="0.22745" stroke="#ffffff" stroke-width="5"/><path d="M304.44799,189.39957c0,0.84952 -0.64472,1.5382 -1.44002,1.5382c-0.7953,0 -1.44001,-0.68867 -1.44001,-1.5382c0,-0.84952 0.64472,-1.5382 1.44001,-1.5382c0.7953,0 1.44002,0.68867 1.44002,1.5382z" fill-opacity="0.87451" fill="#0968b7" stroke-opacity="0.22745" stroke="#ffffff" stroke-width="5"/><text transform="translate(319.94159,187.3949) scale(0.50623,0.50623)" font-size="40" xml:space="preserve" fill="#ffffff" stroke="#ffffff" stroke-width="0" font-family="&quot;OpenSans_Condensed-Bold&quot;, Sans Serif" font-weight="normal" text-anchor="start"><tspan x="0" dy="0">Point</tspan></text></g></g></svg>