<svg version="1.1" xmlns="http://www.w3.org/2000/svg" xmlns:xlink="http://www.w3.org/1999/xlink" width="41.97818" height="41.97818" viewBox="0,0,41.97818,41.97818"><defs><linearGradient x1="373.5" y1="160.01092" x2="373.5" y2="199.9891" gradientUnits="userSpaceOnUse" id="color-1"><stop offset="0" stop-color="#ff0000"/><stop offset="1" stop-color="#005cff"/></linearGradient><linearGradient x1="359.59356" y1="173.32177" x2="380.17823" y2="193.90644" gradientUnits="userSpaceOnUse" id="color-2"><stop offset="0" stop-color="#ff0000"/><stop offset="1" stop-color="#005cff"/></linearGradient><linearGradient x1="366.82177" y1="166.09357" x2="387.40643" y2="186.67823" gradientUnits="userSpaceOnUse" id="color-3"><stop offset="0" stop-color="#ff0000"/><stop offset="1" stop-color="#005cff"/></linearGradient></defs><g transform="translate(-352.51091,-159.01092)"><g stroke="#000000" stroke-width="2" stroke-miterlimit="10"><path d="M353.51091,199.9891v-39.97818h39.97818v39.97818z" fill="url(#color-1)"/><path d="M377.46765,196.61701c0,0 -6.07946,-7.96508 -9.571,-11.45661c-3.36538,-3.36538 -11.01366,-9.12805 -11.01366,-9.12805l5.42115,-5.42115c0,0 5.57784,8.092 8.97092,11.48508c3.46689,3.46689 11.61375,9.09959 11.61375,9.09959z" fill="url(#color-2)"/><path d="M384.69586,189.38881c0,0 -6.07946,-7.96508 -9.571,-11.45661c-3.36538,-3.36538 -11.01366,-9.12805 -11.01366,-9.12805l5.42115,-5.42115c0,0 5.57784,8.092 8.97092,11.48508c3.46689,3.46689 11.61375,9.09959 11.61375,9.09959z" fill="url(#color-3)"/></g></g></svg>