<svg version="1.1" xmlns="http://www.w3.org/2000/svg" xmlns:xlink="http://www.w3.org/1999/xlink" width="41.97818" height="41.97818" viewBox="0,0,41.97818,41.97818"><defs><linearGradient x1="373.50001" y1="160.01092" x2="373.50001" y2="199.98911" gradientUnits="userSpaceOnUse" id="color-1"><stop offset="0" stop-color="#ff0000"/><stop offset="1" stop-color="#005cff"/></linearGradient><linearGradient x1="357.07918" y1="168.00939" x2="366.74585" y2="168.00939" gradientUnits="userSpaceOnUse" id="color-2"><stop offset="0" stop-color="#ff0000"/><stop offset="1" stop-color="#005cff"/></linearGradient><linearGradient x1="369.66667" y1="171.50938" x2="377.33334" y2="171.50938" gradientUnits="userSpaceOnUse" id="color-3"><stop offset="0" stop-color="#ff0000"/><stop offset="1" stop-color="#005cff"/></linearGradient><linearGradient x1="357.41668" y1="187.59273" x2="375.58334" y2="187.59273" gradientUnits="userSpaceOnUse" id="color-4"><stop offset="0" stop-color="#ff0000"/><stop offset="1" stop-color="#005cff"/></linearGradient><linearGradient x1="377.4125" y1="180" x2="389.74584" y2="180" gradientUnits="userSpaceOnUse" id="color-5"><stop offset="0" stop-color="#ff0000"/><stop offset="1" stop-color="#005cff"/></linearGradient><linearGradient x1="379.74584" y1="192.67605" x2="387.41251" y2="192.67605" gradientUnits="userSpaceOnUse" id="color-6"><stop offset="0" stop-color="#ff0000"/><stop offset="1" stop-color="#005cff"/></linearGradient></defs><g transform="translate(-352.51091,-159.01092)"><g stroke="#000000" stroke-width="2" stroke-miterlimit="10"><path d="M353.51092,199.98911v-39.97818h39.97818v39.97818z" fill="url(#color-1)"/><path d="M357.07918,168.00939c0,-2.66938 2.16396,-4.83333 4.83333,-4.83333c2.66938,0 4.83333,2.16396 4.83333,4.83333c0,2.66938 -2.16396,4.83333 -4.83333,4.83333c-2.66938,0 -4.83333,-2.16396 -4.83333,-4.83333z" fill="url(#color-2)"/><path d="M369.66667,171.50938c0,-2.11709 1.71624,-3.83333 3.83333,-3.83333c2.11709,0 3.83333,1.71624 3.83333,3.83333c0,2.11709 -1.71624,3.83333 -3.83333,3.83333c-2.11709,0 -3.83333,-1.71624 -3.83333,-3.83333z" fill="url(#color-3)"/><path d="M357.41668,187.59273c0,-5.01658 4.06675,-9.08333 9.08333,-9.08333c5.01658,0 9.08333,4.06675 9.08333,9.08333c0,5.01658 -4.06675,9.08333 -9.08333,9.08333c-5.01658,0 -9.08333,-4.06675 -9.08333,-9.08333z" fill="url(#color-4)"/><path d="M377.4125,180c0,-3.40576 2.76091,-6.16667 6.16667,-6.16667c3.40576,0 6.16667,2.76091 6.16667,6.16667c0,3.40576 -2.76091,6.16667 -6.16667,6.16667c-3.40576,0 -6.16667,-2.76091 -6.16667,-6.16667z" fill="url(#color-5)"/><path d="M379.74584,192.67605c0,-2.11709 1.71624,-3.83333 3.83333,-3.83333c2.11709,0 3.83333,1.71624 3.83333,3.83333c0,2.11709 -1.71624,3.83333 -3.83333,3.83333c-2.11709,0 -3.83333,-1.71624 -3.83333,-3.83333z" fill="url(#color-6)"/></g></g></svg>