<svg version="1.1" xmlns="http://www.w3.org/2000/svg" xmlns:xlink="http://www.w3.org/1999/xlink" width="41.97818" height="41.97818" viewBox="0,0,41.97818,41.97818"><defs><linearGradient x1="373.5" y1="160.01092" x2="373.5" y2="199.9891" gradientUnits="userSpaceOnUse" id="color-1"><stop offset="0" stop-color="#ff0000"/><stop offset="1" stop-color="#005cff"/></linearGradient><linearGradient x1="357.07917" y1="168.00938" x2="366.74584" y2="168.00938" gradientUnits="userSpaceOnUse" id="color-2"><stop offset="0" stop-color="#ff0000"/><stop offset="1" stop-color="#005cff"/></linearGradient><linearGradient x1="381.9125" y1="192.17604" x2="389.57917" y2="192.17604" gradientUnits="userSpaceOnUse" id="color-3"><stop offset="0" stop-color="#ff0000"/><stop offset="1" stop-color="#005cff"/></linearGradient><linearGradient x1="357.41667" y1="187.59272" x2="375.58333" y2="187.59272" gradientUnits="userSpaceOnUse" id="color-4"><stop offset="0" stop-color="#ff0000"/><stop offset="1" stop-color="#005cff"/></linearGradient><linearGradient x1="376.74583" y1="170.00937" x2="389.07917" y2="170.00937" gradientUnits="userSpaceOnUse" id="color-5"><stop offset="0" stop-color="#ff0000"/><stop offset="1" stop-color="#005cff"/></linearGradient></defs><g transform="translate(-352.51091,-159.01092)"><g stroke="#000000" stroke-width="2" stroke-miterlimit="10"><path d="M353.51091,199.9891v-39.97818h39.97818v39.97818z" fill="url(#color-1)"/><path d="M357.07917,168.00938c0,-2.66938 2.16396,-4.83333 4.83333,-4.83333c2.66938,0 4.83333,2.16396 4.83333,4.83333c0,2.66938 -2.16396,4.83333 -4.83333,4.83333c-2.66938,0 -4.83333,-2.16396 -4.83333,-4.83333z" fill="url(#color-2)"/><path d="M381.9125,192.17604c0,-2.11709 1.71624,-3.83333 3.83333,-3.83333c2.11709,0 3.83333,1.71624 3.83333,3.83333c0,2.11709 -1.71624,3.83333 -3.83333,3.83333c-2.11709,0 -3.83333,-1.71624 -3.83333,-3.83333z" fill="url(#color-3)"/><path d="M357.41667,187.59272c0,-5.01658 4.06675,-9.08333 9.08333,-9.08333c5.01658,0 9.08333,4.06675 9.08333,9.08333c0,5.01658 -4.06675,9.08333 -9.08333,9.08333c-5.01658,0 -9.08333,-4.06675 -9.08333,-9.08333z" fill="url(#color-4)"/><path d="M376.74583,170.00937c0,-3.40576 2.76091,-6.16667 6.16667,-6.16667c3.40576,0 6.16667,2.76091 6.16667,6.16667c0,3.40576 -2.76091,6.16667 -6.16667,6.16667c-3.40576,0 -6.16667,-2.76091 -6.16667,-6.16667z" fill="url(#color-5)"/></g></g></svg>