<svg version="1.1" xmlns="http://www.w3.org/2000/svg" xmlns:xlink="http://www.w3.org/1999/xlink" width="890.44947" height="721.40915" viewBox="0,0,890.44947,721.40915"><defs><radialGradient cx="21.18928" cy="133.15608" r="247.94004" gradientUnits="userSpaceOnUse" id="color-1"><stop offset="0" stop-color="#ffffff" stop-opacity="0.36078"/><stop offset="1" stop-color="#ffffff" stop-opacity="0"/></radialGradient><radialGradient cx="-38.94263" cy="24.51335" r="81.8719" gradientUnits="userSpaceOnUse" id="color-2"><stop offset="0" stop-color="#ffffff" stop-opacity="0.36078"/><stop offset="1" stop-color="#ffffff" stop-opacity="0"/></radialGradient><radialGradient cx="74.39445" cy="287.71763" r="180.40728" gradientUnits="userSpaceOnUse" id="color-3"><stop offset="0" stop-color="#ffffff" stop-opacity="0.36078"/><stop offset="1" stop-color="#ffffff" stop-opacity="0"/></radialGradient><radialGradient cx="190.74942" cy="95.08711" r="120.99205" gradientUnits="userSpaceOnUse" id="color-4"><stop offset="0" stop-color="#ffffff" stop-opacity="0.36078"/><stop offset="1" stop-color="#ffffff" stop-opacity="0"/></radialGradient><radialGradient cx="489.30463" cy="304.83212" r="174.39409" gradientUnits="userSpaceOnUse" id="color-5"><stop offset="0" stop-color="#ffffff" stop-opacity="0.36078"/><stop offset="1" stop-color="#ffffff" stop-opacity="0"/></radialGradient><radialGradient cx="266.14556" cy="133.15608" r="81.8719" gradientUnits="userSpaceOnUse" id="color-6"><stop offset="0" stop-color="#ffffff" stop-opacity="0.36078"/><stop offset="1" stop-color="#ffffff" stop-opacity="0"/></radialGradient><radialGradient cx="290.39521" cy="259.96448" r="247.94004" gradientUnits="userSpaceOnUse" id="color-7"><stop offset="0" stop-color="#ffffff" stop-opacity="0.36078"/><stop offset="1" stop-color="#ffffff" stop-opacity="0"/></radialGradient><radialGradient cx="405.31681" cy="75.14009" r="247.94004" gradientUnits="userSpaceOnUse" id="color-8"><stop offset="0" stop-color="#ffffff" stop-opacity="0.36078"/><stop offset="1" stop-color="#ffffff" stop-opacity="0"/></radialGradient><radialGradient cx="300.77982" cy="34.43541" r="247.94004" gradientUnits="userSpaceOnUse" id="color-9"><stop offset="0" stop-color="#ffffff" stop-opacity="0.36078"/><stop offset="1" stop-color="#ffffff" stop-opacity="0"/></radialGradient><linearGradient x1="244.37963" y1="-1.52138" x2="244.37963" y2="57.52145" gradientUnits="userSpaceOnUse" id="color-10"><stop offset="0" stop-color="#000000"/><stop offset="1" stop-color="#000000" stop-opacity="0.41961"/></linearGradient><linearGradient x1="102.00282" y1="240.44845" x2="102.00282" y2="297.5055" gradientUnits="userSpaceOnUse" id="color-11"><stop offset="0" stop-color="#636363"/><stop offset="1" stop-color="#1a1a1a"/></linearGradient></defs><g transform="translate(226.75076,213.50463)"><g stroke="none" stroke-miterlimit="10"><g stroke-width="0"><path d="M-226.75076,133.15608c0,-136.9335 111.00653,-247.94004 247.94004,-247.94004c136.9335,0 247.94004,111.00654 247.94004,247.94004c0,136.93351 -111.00653,247.94004 -247.94004,247.94004c-136.9335,0 -247.94004,-111.00653 -247.94004,-247.94004z" fill="url(#color-1)"/><path d="M-120.81453,24.51336c0,-45.2166 36.6553,-81.8719 81.8719,-81.8719c45.2166,0 81.8719,36.6553 81.8719,81.8719c0,45.2166 -36.6553,81.8719 -81.8719,81.8719c-45.2166,0 -81.8719,-36.6553 -81.8719,-81.8719z" fill="url(#color-2)"/><path d="M-106.01282,287.71765c0,-99.63619 80.77109,-180.40729 180.40729,-180.40729c99.63619,0 180.40727,80.77109 180.40727,180.40729c0,99.63619 -80.77108,180.40727 -180.40727,180.40727c-99.63619,0 -180.40729,-80.77108 -180.40729,-180.40727z" fill="url(#color-3)"/><path d="M69.75736,95.08713c0,-66.82206 54.16998,-120.99205 120.99205,-120.99205c66.82206,0 120.99204,54.16998 120.99204,120.99205c0,66.82206 -54.16998,120.99204 -120.99204,120.99204c-66.82206,0 -120.99205,-54.16998 -120.99205,-120.99204z" fill="url(#color-4)"/><path d="M314.91054,304.83212c0,-96.3152 78.07889,-174.39409 174.39409,-174.39409c96.3152,0 174.39409,78.07889 174.39409,174.39409c0,96.3152 -78.07889,174.39409 -174.39409,174.39409c-96.3152,0 -174.39409,-78.07889 -174.39409,-174.39409z" fill="url(#color-5)"/><path d="M184.27368,133.15608c0,-45.21661 36.6553,-81.87191 81.8719,-81.87191c45.21661,0 81.8719,36.6553 81.8719,81.87191c0,45.21661 -36.6553,81.8719 -81.8719,81.8719c-45.21661,0 -81.8719,-36.6553 -81.8719,-81.8719z" fill="url(#color-6)"/><path d="M42.45518,259.96448c0,-136.93351 111.00652,-247.94004 247.94003,-247.94004c136.93351,0 247.94004,111.00653 247.94004,247.94004c0,136.93351 -111.00653,247.94004 -247.94004,247.94004c-136.93351,0 -247.94003,-111.00653 -247.94003,-247.94004z" fill="url(#color-7)"/><path d="M157.37678,75.14009c0,-136.9335 111.00653,-247.94004 247.94003,-247.94004c136.9335,0 247.94003,111.00654 247.94003,247.94004c0,136.9335 -111.00653,247.94004 -247.94003,247.94004c-136.9335,0 -247.94003,-111.00653 -247.94003,-247.94004z" fill="url(#color-8)"/><path d="M52.83977,34.43541c0,-136.9335 111.00653,-247.94004 247.94004,-247.94004c136.9335,0 247.94003,111.00654 247.94003,247.94004c0,136.9335 -111.00653,247.94004 -247.94003,247.94004c-136.9335,0 -247.94003,-111.00654 -247.94003,-247.94004z" fill="url(#color-9)"/><path d="M-81.93695,362.24596v-364.49186h643.87395v364.49186z" fill-opacity="0.10588" fill="#ffffff"/></g><path d="M-40.1549,57.52145v-59.04283h569.06907v59.04283z" fill="url(#color-10)" stroke-width="0"/><text transform="translate(12.74025,116.97276) scale(0.35093,0.35093)" font-size="40" xml:space="preserve" fill="#ffffff" stroke-width="1" font-family="&quot;OpenSans-Light&quot;, Sans Serif" font-weight="normal" text-anchor="start"><tspan x="0" dy="0">Current version:</tspan></text><text transform="translate(13.23219,168.67788) scale(1.28956,1.28956)" font-size="40" xml:space="preserve" fill="#ffffff" stroke-width="1" font-family="&quot;OpenSans-Light&quot;, Sans Serif" font-weight="normal" text-anchor="start"><tspan x="0" dy="0">Tap!Dash 1.0.</tspan></text><path d="M14.16494,297.5055v-57.05706h175.67568v57.05706z" fill="url(#color-11)" stroke-width="0"/><text transform="translate(12.74025,225.57638) scale(0.35093,0.35093)" font-size="40" xml:space="preserve" fill="#ffffff" stroke-width="1" font-family="&quot;OpenSans-Light&quot;, Sans Serif" font-weight="normal" text-anchor="start"><tspan x="0" dy="0">View Credits:</tspan></text><text transform="translate(175.80003,192.49906) scale(0.36967,0.36967)" font-size="40" xml:space="preserve" fill="#ffffff" stroke-width="1" font-family="&quot;OpenSans-Light&quot;, Sans Serif" font-weight="normal" text-anchor="start"><tspan x="0" dy="0">bugfixes and community capabilities</tspan></text><text transform="translate(329.81683,170.9267) scale(1.53617,1.53617)" font-size="40" xml:space="preserve" fill="#ff0000" stroke-width="1" font-family="&quot;OpenSans_Condensed-Bold&quot;, Sans Serif" font-weight="normal" text-anchor="start"><tspan x="0" dy="0">2</tspan></text><g stroke-width="0"><path d="M-145.67769,418.44783v-460.96096h148.64865c0,0 -17.05238,54.69971 -26.3694,114.68271c-6.79469,43.74421 -12.66964,91.09689 -12.66964,124.05603c0,33.3204 4.94922,71.8718 12.14943,114.57988c9.09333,53.93709 26.88961,107.64234 26.88961,107.64234z" fill="#000000"/><path d="M478.94693,416.94634c0,0 17.79627,-53.70525 26.8896,-107.64234c7.20021,-42.70808 12.14944,-81.25948 12.14944,-114.57988c0,-32.95914 -5.87495,-80.31181 -12.66964,-124.05602c-9.31702,-59.983 -26.3694,-114.68271 -26.3694,-114.68271h148.64865v460.96096z" fill="#000000"/><path d="M-123.15519,430.45985v-490.99099h15.01502v490.99099z" fill="#500000"/><path d="M-96.12817,428.95833v-490.99099h15.01502v490.99099z" fill="#4f1f1f"/><path d="M-64.59663,428.95833v-490.99099h15.01502v490.99099z" fill="#4f3d3d"/><path d="M588.55653,436.46584v-490.99099h15.01502v490.99099z" fill="#500000"/><path d="M561.52951,434.96435v-490.99099h15.01501v490.99099z" fill="#4f1f1f"/><path d="M529.99799,434.96435v-490.99099h15.01501v490.99099z" fill="#4f3d3d"/></g><path d="M281.14011,58.3728v-59.04283h55.83876v59.04283z" fill="#7b0000" stroke-width="0"/><text transform="translate(288.40038,34.11151) scale(0.43481,0.43835)" font-size="40" xml:space="preserve" fill="#ffffff" stroke-width="1" font-family="&quot;OpenSans_Condensed-Bold&quot;, Sans Serif" font-weight="normal" text-anchor="start"><tspan x="0" dy="0">About</tspan></text></g></g></svg>