<svg version="1.1" xmlns="http://www.w3.org/2000/svg" xmlns:xlink="http://www.w3.org/1999/xlink" width="41.97818" height="41.97818" viewBox="0,0,41.97818,41.97818"><defs><linearGradient x1="373.5" y1="160.01092" x2="373.5" y2="199.9891" gradientUnits="userSpaceOnUse" id="color-1"><stop offset="0" stop-color="#ff0000"/><stop offset="1" stop-color="#005cff"/></linearGradient><linearGradient x1="359.01238" y1="165.5124" x2="387.9876" y2="194.48762" gradientUnits="userSpaceOnUse" id="color-2"><stop offset="0" stop-color="#ff0000"/><stop offset="1" stop-color="#005cff"/></linearGradient><linearGradient x1="357.55278" y1="189.6868" x2="369.10833" y2="189.6868" gradientUnits="userSpaceOnUse" id="color-3"><stop offset="0" stop-color="#ff0000"/><stop offset="1" stop-color="#005cff"/></linearGradient><linearGradient x1="377.44167" y1="170.40903" x2="388.88611" y2="170.40903" gradientUnits="userSpaceOnUse" id="color-4"><stop offset="0" stop-color="#ff0000"/><stop offset="1" stop-color="#005cff"/></linearGradient></defs><g transform="translate(-352.51091,-159.01092)"><g stroke="#000000" stroke-width="2" stroke-miterlimit="10"><path d="M353.51091,199.9891v-39.97818h39.97818v39.97818z" fill="url(#color-1)"/><path d="M384.17217,198.30306c0,0 -8.55752,-11.21175 -13.47226,-16.12647c-4.73715,-4.73715 -15.50296,-12.84876 -15.50296,-12.84876l7.63088,-7.63088c0,0 7.85144,11.3904 12.62758,16.16654c4.88004,4.88004 16.34766,12.8087 16.34766,12.8087z" fill="url(#color-2)"/><path d="M357.55278,189.6868c0,-3.19098 2.5868,-5.77778 5.77778,-5.77778c3.19098,0 5.77778,2.5868 5.77778,5.77778c0,3.19098 -2.5868,5.77778 -5.77778,5.77778c-3.19098,0 -5.77778,-2.5868 -5.77778,-5.77778z" fill="url(#color-3)"/><path d="M377.44167,170.40903c0,-3.1603 2.56193,-5.72222 5.72222,-5.72222c3.1603,0 5.72222,2.56193 5.72222,5.72222c0,3.1603 -2.56193,5.72222 -5.72222,5.72222c-3.1603,0 -5.72222,-2.56193 -5.72222,-5.72222z" fill="url(#color-4)"/></g></g></svg>