<svg version="1.1" xmlns="http://www.w3.org/2000/svg" xmlns:xlink="http://www.w3.org/1999/xlink" width="41.97818" height="51.08352" viewBox="0,0,41.97818,51.08352"><defs><radialGradient cx="356.24757" cy="163.20564" r="19.98909" gradientUnits="userSpaceOnUse" id="color-1"><stop offset="0" stop-color="#ff4040"/><stop offset="1" stop-color="#a50000"/></radialGradient><radialGradient cx="373.50013" cy="196.10562" r="24.675" gradientUnits="userSpaceOnUse" id="color-2"><stop offset="0" stop-color="#00ffda"/><stop offset="1" stop-color="#00ffda" stop-opacity="0"/></radialGradient></defs><g transform="translate(-352.51103,-149.90562)"><g stroke-miterlimit="10"><path d="M353.51104,199.98915v-39.97818h39.97818v39.97818z" fill="url(#color-1)" stroke="#000000" stroke-width="2" stroke-linecap="butt"/><path d="M384.45013,174.58062c0,13.62763 -4.90248,24.675 -10.95,24.675c-6.04752,0 -10.95,-11.04737 -10.95,-24.675c0,-13.62763 4.90248,-24.675 10.95,-24.675c6.04752,0 10.95,11.04737 10.95,24.675z" fill="url(#color-2)" stroke="none" stroke-width="0" stroke-linecap="butt"/><path d="M373.20888,197.90562c0,0 3.31787,-5.14192 2.57649,-11.93686c-0.21337,-1.95559 -6.17427,-5.88243 -5.97728,-7.60202c0.13735,-1.19892 7.23267,-0.06184 7.26991,-1.1498c0.03935,-1.14948 -2.72889,-3.53049 -2.70731,-4.50638c0.00534,-0.24137 -3.58995,-0.77632 -3.5859,-1.00427c0.02409,-1.35648 3.62471,-2.16556 3.59355,-2.91032c-0.0824,-1.96925 -2.56946,-4.35003 -2.56946,-4.35003l1.58295,-1.94031" fill="none" stroke="#00ffe6" stroke-width="2.5" stroke-linecap="round"/></g></g></svg>