<svg version="1.1" xmlns="http://www.w3.org/2000/svg" xmlns:xlink="http://www.w3.org/1999/xlink" width="103.22749" height="89.77715" viewBox="0,0,103.22749,89.77715"><g transform="translate(-280.33265,-156.25095)"><g stroke-miterlimit="10"><path d="M294.1809,246.02811v-16.67138h54.03828v16.67138z" fill="#ff6f00" stroke="none" stroke-width="0" stroke-linecap="butt"/><text transform="translate(309.22767,241.72632) scale(0.33616,0.33616)" font-size="40" xml:space="preserve" fill="#ffffff" stroke="none" stroke-width="1" stroke-linecap="butt" font-family="&quot;OpenSans-Bold&quot;, Sans Serif" font-weight="normal" text-anchor="start"><tspan x="0" dy="0">50C</tspan></text><path d="M280.33266,195.31001v-39.05905h103.22749v39.05905z" fill="#ffffff" stroke="none" stroke-width="NaN" stroke-linecap="butt"/><path d="M302.65211,225.06929v-31.61923h13.94966z" fill="#ffffff" stroke="none" stroke-width="0" stroke-linecap="butt"/><text transform="translate(285.91252,171.9246) scale(0.33421,0.33421)" font-size="40" xml:space="preserve" fill="#00867f" stroke="none" stroke-width="1" stroke-linecap="butt" font-family="&quot;OpenSans_Condensed-Bold&quot;, Sans Serif" font-weight="normal" text-anchor="start"><tspan x="0" dy="0">Invisibility for</tspan><tspan x="0" dy="46.15px">3 minutes</tspan></text><path d="M356.28081,180.00001c0,-6.59136 5.34335,-11.93471 11.93471,-11.93471c6.59136,0 11.93471,5.34335 11.93471,11.93471c0,6.59136 -5.34335,11.93471 -11.93471,11.93471c-6.59136,0 -11.93471,-5.34335 -11.93471,-11.93471z" fill="#00867f" stroke="none" stroke-width="0" stroke-linecap="butt"/><path d="M359.84572,182.78994l4.64989,6.19985l12.0897,-17.97957" fill="none" stroke="#ffffff" stroke-width="2" stroke-linecap="round"/></g></g></svg>