<svg version="1.1" xmlns="http://www.w3.org/2000/svg" xmlns:xlink="http://www.w3.org/1999/xlink" width="650.75317" height="373.21315" viewBox="0,0,650.75317,373.21315"><g transform="translate(3.55785,4.96393)"><g stroke="none" stroke-miterlimit="10"><path d="M-3.55785,368.24922v-373.21315h650.75317v373.21315z" fill="#000000" stroke-width="0"/><g fill="#ffffff" stroke-width="1" font-family="&quot;OpenSans-Bold&quot;, Sans Serif" font-weight="normal" font-size="40" text-anchor="start"><text transform="translate(255.84096,64.54197) scale(1.25366,1.25366)" font-size="40" xml:space="preserve" fill="#ffffff"><tspan x="0" dy="0">T</tspan></text><text transform="translate(273.55842,67.56084) rotate(16.70068) scale(0.76061,0.76061)" font-size="40" xml:space="preserve" fill="#ffffff"><tspan x="0" dy="0">a</tspan></text><text transform="translate(287.40278,52.0698) rotate(16.70068) scale(0.76061,0.76061)" font-size="40" xml:space="preserve" fill="#ffffff"><tspan x="0" dy="0">p</tspan></text><text transform="translate(306.05331,64.54195) scale(1.25366,1.25366)" font-size="40" xml:space="preserve" fill="#ffffff"><tspan x="0" dy="0">D</tspan></text><text transform="translate(331.85098,61.15075) rotate(16.70068) scale(0.76061,0.76061)" font-size="40" xml:space="preserve" fill="#ffffff"><tspan x="0" dy="0">a</tspan></text><text transform="translate(354.52034,62.49061) rotate(-28.29928) scale(0.76061,0.76061)" font-size="40" xml:space="preserve" fill="#ffffff"><tspan x="0" dy="0">s</tspan></text><text transform="translate(359.58572,61.2244) rotate(20.16937) scale(0.76061,0.76061)" font-size="40" xml:space="preserve" fill="#ffffff"><tspan x="0" dy="0">h</tspan></text></g><text transform="translate(147.27875,120.06028) scale(0.3062,0.3062)" font-size="40" xml:space="preserve" fill="#ffffff" stroke-width="1" font-family="&quot;OpenSans-Medium&quot;, Sans Serif" font-weight="normal" text-anchor="start"><tspan x="0" dy="0">Tap!Dash allows you to play on your desired hardware using</tspan><tspan x="0" dy="48px">                         touchscreen or no touchscreen.</tspan></text><text transform="translate(271.25047,97.65037) scale(0.42971,0.42971)" font-size="40" xml:space="preserve" fill="#ffffff" stroke-width="1" font-family="&quot;KNBobohei-Bold&quot;, Sans Serif" font-weight="normal" text-anchor="start"><tspan x="0" dy="0">No Touch!</tspan></text></g></g></svg>