<svg version="1.1" xmlns="http://www.w3.org/2000/svg" xmlns:xlink="http://www.w3.org/1999/xlink" width="41.97818" height="41.97818" viewBox="0,0,41.97818,41.97818"><defs><linearGradient x1="373.5001" y1="160.01092" x2="373.5001" y2="199.98913" gradientUnits="userSpaceOnUse" id="color-1"><stop offset="0" stop-color="#ff0000"/><stop offset="1" stop-color="#005cff"/></linearGradient></defs><g transform="translate(-352.51093,-159.01095)"><g stroke-miterlimit="10"><path d="M353.51093,199.98913v-39.97818h39.97818v39.97818z" fill="url(#color-1)" stroke="#000000" stroke-width="2"/><path d="M360.73781,186.08429l-0.9171,-1.39166l26.4415,-17.42484l0.9171,1.39166z" fill="#ffeaea" stroke="none" stroke-width="0"/><path d="M379.91252,197.00937v-10h10.5v10z" fill="#ffeaea" stroke="none" stroke-width="0"/><path d="M356.57918,197.17604v-10h10.5v10z" fill="#ffeaea" stroke="none" stroke-width="0"/><path d="M390.4167,162.90008v3.44262h-10.5v-3.44262z" fill="#ffeaea" stroke="none" stroke-width="0"/><path d="M367.08337,162.8427v3.44262h-10.5v-3.44262z" fill="#ffeaea" stroke="none" stroke-width="0"/><path d="M359.94528,168.45057l0.93834,-1.37743l26.17112,17.82836l-0.93834,1.37743z" fill="#ffeaea" stroke="none" stroke-width="0"/><path d="M359.50003,176.50937c0,-1.28866 1.04467,-2.33333 2.33333,-2.33333c1.28866,0 2.33333,1.04467 2.33333,2.33333c0,1.28866 -1.04467,2.33333 -2.33333,2.33333c-1.28866,0 -2.33333,-1.04467 -2.33333,-2.33333z" fill="#ffeaea" stroke="none" stroke-width="0"/><path d="M382.82918,177.00937c0,-1.28867 1.04467,-2.33334 2.33334,-2.33334c1.28866,0 2.33333,1.04467 2.33333,2.33334c0,1.28867 -1.04467,2.33333 -2.33333,2.33333c-1.28866,0 -2.33334,-1.04466 -2.33334,-2.33333z" fill="#ffeaea" stroke="none" stroke-width="0"/><path d="M370.83336,186.08429c0,-1.28867 1.04467,-2.33334 2.33333,-2.33334c1.28866,0 2.33334,1.04467 2.33334,2.33334c0,1.28867 -1.04467,2.33333 -2.33334,2.33333c-1.28866,0 -2.33333,-1.04466 -2.33333,-2.33333z" fill="#ffeaea" stroke="none" stroke-width="0"/><path d="M371.16667,169.50938c0,-1.28867 1.04467,-2.33334 2.33333,-2.33334c1.28866,0 2.33334,1.04467 2.33334,2.33334c0,1.28867 -1.04467,2.33333 -2.33334,2.33333c-1.28866,0 -2.33333,-1.04466 -2.33333,-2.33333z" fill="#ffeaea" stroke="none" stroke-width="0"/></g></g></svg>