<svg version="1.1" xmlns="http://www.w3.org/2000/svg" xmlns:xlink="http://www.w3.org/1999/xlink" width="890.44946" height="721.40915" viewBox="0,0,890.44946,721.40915"><defs><radialGradient cx="101.18926" cy="133.15608" r="247.94004" gradientUnits="userSpaceOnUse" id="color-1"><stop offset="0" stop-color="#ffffff" stop-opacity="0.36078"/><stop offset="1" stop-color="#ffffff" stop-opacity="0"/></radialGradient><radialGradient cx="41.05736" cy="24.51334" r="81.8719" gradientUnits="userSpaceOnUse" id="color-2"><stop offset="0" stop-color="#ffffff" stop-opacity="0.36078"/><stop offset="1" stop-color="#ffffff" stop-opacity="0"/></radialGradient><radialGradient cx="154.39445" cy="287.71763" r="180.40728" gradientUnits="userSpaceOnUse" id="color-3"><stop offset="0" stop-color="#ffffff" stop-opacity="0.36078"/><stop offset="1" stop-color="#ffffff" stop-opacity="0"/></radialGradient><radialGradient cx="270.7494" cy="95.08711" r="120.99205" gradientUnits="userSpaceOnUse" id="color-4"><stop offset="0" stop-color="#ffffff" stop-opacity="0.36078"/><stop offset="1" stop-color="#ffffff" stop-opacity="0"/></radialGradient><radialGradient cx="569.30461" cy="304.83211" r="174.39409" gradientUnits="userSpaceOnUse" id="color-5"><stop offset="0" stop-color="#ffffff" stop-opacity="0.36078"/><stop offset="1" stop-color="#ffffff" stop-opacity="0"/></radialGradient><radialGradient cx="346.14556" cy="133.15608" r="81.8719" gradientUnits="userSpaceOnUse" id="color-6"><stop offset="0" stop-color="#ffffff" stop-opacity="0.36078"/><stop offset="1" stop-color="#ffffff" stop-opacity="0"/></radialGradient><radialGradient cx="370.39519" cy="259.96448" r="247.94004" gradientUnits="userSpaceOnUse" id="color-7"><stop offset="0" stop-color="#ffffff" stop-opacity="0.36078"/><stop offset="1" stop-color="#ffffff" stop-opacity="0"/></radialGradient><radialGradient cx="485.31679" cy="75.14009" r="247.94004" gradientUnits="userSpaceOnUse" id="color-8"><stop offset="0" stop-color="#ffffff" stop-opacity="0.36078"/><stop offset="1" stop-color="#ffffff" stop-opacity="0"/></radialGradient><radialGradient cx="380.7798" cy="34.43541" r="247.94004" gradientUnits="userSpaceOnUse" id="color-9"><stop offset="0" stop-color="#ffffff" stop-opacity="0.36078"/><stop offset="1" stop-color="#ffffff" stop-opacity="0"/></radialGradient><radialGradient cx="606.30885" cy="34.43541" r="120.99205" gradientUnits="userSpaceOnUse" id="color-10"><stop offset="0" stop-color="#ffffff" stop-opacity="0.36078"/><stop offset="1" stop-color="#ffffff" stop-opacity="0"/></radialGradient></defs><g transform="translate(146.75077,213.50464)"><g stroke="none" stroke-miterlimit="10"><g stroke-width="0"><path d="M-146.75076,133.15608c0,-136.9335 111.00653,-247.94004 247.94004,-247.94004c136.9335,0 247.94004,111.00654 247.94004,247.94004c0,136.93351 -111.00653,247.94004 -247.94004,247.94004c-136.9335,0 -247.94004,-111.00653 -247.94004,-247.94004z" fill="url(#color-1)"/><path d="M-40.81454,24.51335c0,-45.2166 36.6553,-81.8719 81.8719,-81.8719c45.2166,0 81.8719,36.6553 81.8719,81.8719c0,45.2166 -36.6553,81.8719 -81.8719,81.8719c-45.2166,0 -81.8719,-36.6553 -81.8719,-81.8719z" fill="url(#color-2)"/><path d="M-26.01284,287.71767c0,-99.63619 80.77109,-180.40729 180.40729,-180.40729c99.63619,0 180.40727,80.77109 180.40727,180.40729c0,99.63619 -80.77108,180.40727 -180.40727,180.40727c-99.63619,0 -180.40729,-80.77108 -180.40729,-180.40727z" fill="url(#color-3)"/><path d="M149.75736,95.08711c0,-66.82206 54.16998,-120.99205 120.99205,-120.99205c66.82206,0 120.99204,54.16998 120.99204,120.99205c0,66.82206 -54.16998,120.99204 -120.99204,120.99204c-66.82206,0 -120.99205,-54.16998 -120.99205,-120.99204z" fill="url(#color-4)"/><path d="M394.91052,304.83211c0,-96.3152 78.07889,-174.39409 174.39409,-174.39409c96.3152,0 174.39409,78.07889 174.39409,174.39409c0,96.3152 -78.07889,174.39409 -174.39409,174.39409c-96.3152,0 -174.39409,-78.07889 -174.39409,-174.39409z" fill="url(#color-5)"/><path d="M264.27366,133.15608c0,-45.21661 36.6553,-81.87191 81.8719,-81.87191c45.21661,0 81.8719,36.6553 81.8719,81.87191c0,45.21661 -36.6553,81.8719 -81.8719,81.8719c-45.21661,0 -81.8719,-36.6553 -81.8719,-81.8719z" fill="url(#color-6)"/><path d="M122.45517,259.96448c0,-136.93351 111.00652,-247.94004 247.94003,-247.94004c136.93351,0 247.94004,111.00653 247.94004,247.94004c0,136.93351 -111.00653,247.94004 -247.94004,247.94004c-136.93351,0 -247.94003,-111.00653 -247.94003,-247.94004z" fill="url(#color-7)"/><path d="M237.37677,75.14009c0,-136.9335 111.00653,-247.94004 247.94003,-247.94004c136.9335,0 247.94003,111.00654 247.94003,247.94004c0,136.9335 -111.00653,247.94004 -247.94003,247.94004c-136.9335,0 -247.94003,-111.00653 -247.94003,-247.94004z" fill="url(#color-8)"/><path d="M132.83976,34.43541c0,-136.9335 111.00653,-247.94004 247.94004,-247.94004c136.9335,0 247.94003,111.00654 247.94003,247.94004c0,136.9335 -111.00653,247.94004 -247.94003,247.94004c-136.9335,0 -247.94003,-111.00654 -247.94003,-247.94004z" fill="url(#color-9)"/><path d="M-1.93696,362.24596v-364.49186h643.87395v364.49186z" fill-opacity="0.10588" fill="#ffffff"/></g><path d="M485.31679,34.43541c0,-66.82206 54.16998,-120.99205 120.99204,-120.99205c66.82206,0 120.99205,54.16998 120.99205,120.99205c0,66.82206 -54.16998,120.99205 -120.99205,120.99205c-66.82206,0 -120.99204,-54.16998 -120.99204,-120.99205z" fill="url(#color-10)" stroke-width="0"/><path d="M39.84509,57.52144v-59.04283h569.06907v59.04283z" fill="#000000" stroke-width="0"/><text transform="translate(526.51163,32.6667) scale(0.38889,0.38889)" font-size="40" xml:space="preserve" fill="#ffffff" stroke-width="1" font-family="&quot;OpenSans_Condensed-Bold&quot;, Sans Serif" font-weight="normal" text-anchor="start"><tspan x="0" dy="0">Back</tspan></text><g stroke-width="0"><path d="M-65.6777,418.44782v-460.96096h148.64865c0,0 -17.05237,54.69971 -26.3694,114.68271c-6.79469,43.74421 -12.66964,91.09688 -12.66964,124.05602c0,33.3204 4.94922,71.8718 12.14944,114.57988c9.09333,53.93709 26.8896,107.64234 26.8896,107.64234z" fill="#000000"/><path d="M558.94692,416.9463c0,0 17.79627,-53.70525 26.8896,-107.64234c7.20021,-42.70808 12.14944,-81.25948 12.14944,-114.57988c0,-32.95914 -5.87495,-80.31181 -12.66964,-124.05602c-9.31703,-59.983 -26.3694,-114.68271 -26.3694,-114.68271h148.64865v460.96096z" fill="#000000"/><path d="M-43.15518,430.45984v-490.99099h15.01502v490.99099z" fill="#500000"/><path d="M-16.12815,428.95833v-490.99099h15.01502v490.99099z" fill="#4f1f1f"/><path d="M15.40337,428.95833v-490.99099h15.01502v490.99099z" fill="#4f3d3d"/><path d="M668.55653,436.46584v-490.99099h15.01501v490.99099z" fill="#500000"/><path d="M641.5295,434.96434v-490.99099h15.01501v490.99099z" fill="#4f1f1f"/><path d="M609.99797,434.96434v-490.99099h15.01501v490.99099z" fill="#4f3d3d"/></g><text transform="translate(163.43939,238.26764) scale(0.5,0.5)" font-size="40" xml:space="preserve" fill="#000000" stroke-width="1" font-family="&quot;OpenSans_Condensed-Bold&quot;, Sans Serif" font-weight="normal" text-anchor="start"><tspan x="0" dy="0">Pick a setting category above to continue</tspan></text><text transform="translate(201.00568,216.97729) scale(1.27937,1.27937)" font-size="40" xml:space="preserve" fill="#000000" stroke-width="1" font-family="&quot;OpenSans-Bold&quot;, Sans Serif" font-weight="normal" text-anchor="start"><tspan x="0" dy="0">SETTINGS</tspan></text><text transform="translate(201.0055,173.4773) scale(1.27937,1.27937)" font-size="40" xml:space="preserve" fill="#000000" stroke-width="1" font-family="&quot;OpenSans-Light&quot;, Sans Serif" font-weight="normal" text-anchor="start"><tspan x="0" dy="0">TAP!DASH</tspan></text></g></g></svg>