<svg version="1.1" xmlns="http://www.w3.org/2000/svg" xmlns:xlink="http://www.w3.org/1999/xlink" width="41.97818" height="41.97818" viewBox="0,0,41.97818,41.97818"><defs><linearGradient x1="373.5" y1="160.01092" x2="373.5" y2="199.9891" gradientUnits="userSpaceOnUse" id="color-1"><stop offset="0" stop-color="#383838"/><stop offset="1" stop-color="#000000"/></linearGradient><linearGradient x1="373.50005" y1="163.78324" x2="373.50005" y2="196.21678" gradientUnits="userSpaceOnUse" id="color-2"><stop offset="0" stop-color="#0038ff"/><stop offset="1" stop-color="#00bdff"/></linearGradient></defs><g transform="translate(-352.51091,-159.01092)"><g stroke-miterlimit="10"><path d="M353.51091,199.9891v-39.97818h39.97818v39.97818z" fill="url(#color-1)" stroke="#000000" stroke-width="2" stroke-linecap="butt"/><path d="M357.28324,180c0,-8.95629 7.26049,-16.21677 16.21676,-16.21677c8.95629,0 16.21677,7.26049 16.21677,16.21676c0,8.95629 -7.26049,16.21676 -16.21677,16.21676c-8.95629,0 -16.21676,-7.26049 -16.21676,-16.21676z" fill="url(#color-2)" stroke="none" stroke-width="0" stroke-linecap="butt"/><path d="M367.05555,176.88889c0,-3.28303 0.55293,-5.94444 2.19445,-5.94444c1.64152,0 1.75,2.66141 1.75,5.94444c0,3.28303 -0.10848,5.94444 -1.75,5.94444c-1.64152,0 -2.19445,-2.66141 -2.19445,-5.94444z" fill="none" stroke="#ffffff" stroke-width="2.5" stroke-linecap="butt"/><path d="M363.11111,187.90903c0,0 6.98848,3 10.44166,3c3.47263,0 10.33611,-3 10.33611,-3" fill="none" stroke="#ffffff" stroke-width="2.5" stroke-linecap="round"/><path d="M375.38889,176.88889c0,-3.28303 0.55293,-5.94444 2.19444,-5.94444c1.64152,0 1.75,2.66141 1.75,5.94444c0,3.28303 -0.10848,5.94444 -1.75,5.94444c-1.64152,0 -2.19444,-2.66141 -2.19444,-5.94444z" fill="none" stroke="#ffffff" stroke-width="2.5" stroke-linecap="butt"/></g></g></svg>