<svg version="1.1" xmlns="http://www.w3.org/2000/svg" xmlns:xlink="http://www.w3.org/1999/xlink" width="41.97818" height="41.97818" viewBox="0,0,41.97818,41.97818"><defs><linearGradient x1="373.5" y1="160.01092" x2="373.5" y2="199.9891" gradientUnits="userSpaceOnUse" id="color-1"><stop offset="0" stop-color="#383838"/><stop offset="1" stop-color="#000000"/></linearGradient></defs><g transform="translate(-352.51091,-159.01092)"><g stroke-miterlimit="10"><path d="M353.51091,199.9891v-39.97818h39.97818v39.97818z" fill="url(#color-1)" stroke="#000000" stroke-width="2"/><path d="M357.28324,180c0,-8.95629 7.26049,-16.21677 16.21676,-16.21677c8.95629,0 16.21677,7.26049 16.21677,16.21676c0,8.95629 -7.26049,16.21676 -16.21677,16.21676c-8.95629,0 -16.21676,-7.26049 -16.21676,-16.21676z" fill="#00921b" stroke="none" stroke-width="0"/><path d="M374.47099,185.48746c-2.9408,4.20102 -5.57058,6.18091 -6.3003,1.94836c-0.72972,-4.23257 1.60603,-7.91786 4.54683,-12.11888c2.9408,-4.20102 5.373,-7.3269 6.10273,-3.09433c0.72972,4.23257 -1.40846,9.06383 -4.34926,13.26485z" fill="none" stroke="#ffffff" stroke-width="2.5"/></g></g></svg>