<svg version="1.1" xmlns="http://www.w3.org/2000/svg" xmlns:xlink="http://www.w3.org/1999/xlink" width="99.469" height="126.19635" viewBox="0,0,99.469,126.19635"><defs><radialGradient cx="303.46647" cy="186.54392" r="48.2345" gradientUnits="userSpaceOnUse" id="color-1"><stop offset="0" stop-color="#ffffff"/><stop offset="1" stop-color="#000000" stop-opacity="0.26667"/></radialGradient><radialGradient cx="303.00379" cy="189.32001" r="48.2345" gradientUnits="userSpaceOnUse" id="color-2"><stop offset="0" stop-color="#ffffff"/><stop offset="1" stop-color="#000000"/></radialGradient><linearGradient x1="301.26874" y1="148.48866" x2="301.26874" y2="175.97541" gradientUnits="userSpaceOnUse" id="color-3"><stop offset="0" stop-color="#ffffff"/><stop offset="1" stop-color="#000000"/></linearGradient><linearGradient x1="301.26874" y1="104.25815" x2="301.26874" y2="144.49716" gradientUnits="userSpaceOnUse" id="color-4"><stop offset="0" stop-color="#ffffff"/><stop offset="1" stop-color="#000000"/></linearGradient><linearGradient x1="301.58352" y1="131.07061" x2="301.58352" y2="146.80974" gradientUnits="userSpaceOnUse" id="color-5"><stop offset="0" stop-color="#ffffff"/><stop offset="1" stop-color="#ffffff" stop-opacity="0"/></linearGradient></defs><g transform="translate(-251.53423,-91.11966)"><g stroke-miterlimit="10"><path d="M253.03423,189.08867v-96.469h96.469v96.469z" fill="url(#color-1)" stroke="url(#color-2)" stroke-width="3"/><path d="M265.49058,175.97541v-27.48675h71.5563v27.48675z" fill-opacity="0.35294" fill="#000000" stroke="url(#color-3)" stroke-width="7.5"/><path d="M266.43493,141.34933c0,0 11.6441,-35.20248 22.0464,-35.20248c2.2565,0 27.05257,-1.48386 30.02006,1.16734c11.62534,10.38625 18.23071,34.03515 18.23071,34.03515z" fill-opacity="0.35294" fill="#000000" stroke="url(#color-4)" stroke-width="7.5"/><path d="M297.80613,146.80974v-15.73913h7.55478v15.73913z" fill-opacity="0.35294" fill="#ff0000" stroke="url(#color-5)" stroke-width="7.5"/><text transform="translate(255.20168,211.06602) scale(0.5,0.5)" font-size="40" xml:space="preserve" fill-opacity="0.35294" fill="#ffffff" stroke="none" stroke-width="1" font-family="&quot;OpenSans_Condensed-Bold&quot;, Sans Serif" font-weight="normal" text-anchor="start"><tspan x="0" dy="0">Daily Chests</tspan></text></g></g></svg>