<svg version="1.1" xmlns="http://www.w3.org/2000/svg" xmlns:xlink="http://www.w3.org/1999/xlink" width="41.97818" height="41.97818" viewBox="0,0,41.97818,41.97818"><defs><linearGradient x1="373.5" y1="160.01092" x2="373.5" y2="199.9891" gradientUnits="userSpaceOnUse" id="color-1"><stop offset="0" stop-color="#ff0000"/><stop offset="1" stop-color="#005cff"/></linearGradient><linearGradient x1="358.9194" y1="168.35784" x2="388.08058" y2="168.35784" gradientUnits="userSpaceOnUse" id="color-2"><stop offset="0" stop-color="#ff0000"/><stop offset="1" stop-color="#005cff"/></linearGradient><linearGradient x1="388.08061" y1="186.19777" x2="358.91942" y2="186.19777" gradientUnits="userSpaceOnUse" id="color-3"><stop offset="0" stop-color="#ff0000"/><stop offset="1" stop-color="#005cff"/></linearGradient><linearGradient x1="358.9194" y1="179.87763" x2="388.08059" y2="179.87763" gradientUnits="userSpaceOnUse" id="color-4"><stop offset="0" stop-color="#ff0000"/><stop offset="1" stop-color="#005cff"/></linearGradient><linearGradient x1="388.08061" y1="174.09985" x2="358.91942" y2="174.09985" gradientUnits="userSpaceOnUse" id="color-5"><stop offset="0" stop-color="#ff0000"/><stop offset="1" stop-color="#005cff"/></linearGradient><linearGradient x1="358.9194" y1="191.64221" x2="388.08059" y2="191.64221" gradientUnits="userSpaceOnUse" id="color-6"><stop offset="0" stop-color="#ff0000"/><stop offset="1" stop-color="#005cff"/></linearGradient></defs><g transform="translate(-352.51091,-159.01092)"><g stroke="#000000" stroke-width="2" stroke-miterlimit="10"><path d="M353.51091,199.9891v-39.97818h39.97818v39.97818z" fill="url(#color-1)"/><path d="M388.08059,172.19776c0,0 -9.94808,-1.33563 -14.89435,-1.33562c-4.76755,0 -14.26684,1.33562 -14.26684,1.33562l0,-7.67986c0,0 9.68267,1.78084 14.48946,1.78084c4.91136,0 14.67174,-1.78084 14.67174,-1.78084z" fill="url(#color-2)"/><path d="M358.9194,182.35783c0,0 9.76038,1.78084 14.67174,1.78084c4.8068,0 14.48946,-1.78084 14.48946,-1.78084v7.67986c0,0 -9.49929,-1.33562 -14.26684,-1.33562c-4.94628,-0.00001 -14.89435,1.33562 -14.89435,1.33562z" fill="url(#color-3)"/><path d="M388.08059,183.71755c0,0 -9.94808,-1.33563 -14.89435,-1.33562c-4.76756,0 -14.26684,1.33561 -14.26684,1.33561v-7.67986c0,0 9.68267,1.78084 14.48946,1.78084c4.91136,0 14.67174,-1.78084 14.67174,-1.78084z" fill="url(#color-4)"/><path d="M358.9194,170.25991c0,0 9.76038,1.78084 14.67174,1.78084c4.8068,0 14.48946,-1.78084 14.48946,-1.78084v7.67986c0,0 -9.49929,-1.33561 -14.26684,-1.33561c-4.94628,-0.00001 -14.89435,1.33562 -14.89435,1.33562z" fill="url(#color-5)"/><path d="M388.08059,195.48213c0,0 -9.94808,-1.33563 -14.89435,-1.33562c-4.76756,0 -14.26684,1.33561 -14.26684,1.33561v-7.67986c0,0 9.68267,1.78084 14.48946,1.78084c4.91136,0 14.67174,-1.78084 14.67174,-1.78084z" fill="url(#color-6)"/></g></g></svg>